M48
; DRILL file {KiCad (6.0.0)} date Tue Jun 28 12:49:35 2022
; FORMAT={-:-/ absolute / inch / decimal}
; #@! TF.CreationDate,2022-06-28T12:49:35+09:30
; #@! TF.GenerationSoftware,Kicad,Pcbnew,(6.0.0)
; #@! TF.FileFunction,Plated,1,2,PTH
FMAT,2
INCH
; #@! TA.AperFunction,Plated,PTH,ViaDrill
T1C0.0157
; #@! TA.AperFunction,Plated,PTH,ViaDrill
T2C0.0315
; #@! TA.AperFunction,Plated,PTH,ComponentDrill
T3C0.0315
; #@! TA.AperFunction,Plated,PTH,ComponentDrill
T4C0.0394
; #@! TA.AperFunction,Plated,PTH,ComponentDrill
T5C0.0512
; #@! TA.AperFunction,Plated,PTH,ComponentDrill
T6C0.0551
; #@! TA.AperFunction,Plated,PTH,ComponentDrill
T7C0.1260
%
G90
G05
T1
X5.5118Y-3.5433
T2
X4.0354Y-2.1654
X4.0354Y-2.3622
X4.0354Y-2.5591
X4.0354Y-2.7559
X4.0354Y-2.9528
X4.0354Y-3.1496
X4.0354Y-3.3465
X4.0354Y-3.5433
X4.0354Y-3.7402
X4.0354Y-3.937
X4.0354Y-4.1339
X4.0354Y-4.3307
X4.0354Y-4.5276
X4.0354Y-4.7244
X4.0354Y-4.9213
X4.0354Y-5.1181
X4.0354Y-5.315
X4.0354Y-5.5118
X4.0354Y-5.7087
X4.2323Y-2.5591
X4.2323Y-2.7559
X4.2323Y-2.9528
X4.2323Y-3.1496
X4.2323Y-3.3465
X4.2323Y-3.5433
X4.2323Y-3.7402
X4.2323Y-3.937
X4.2323Y-4.1339
X4.2323Y-4.3307
X4.2323Y-4.5276
X4.2323Y-4.7244
X4.2323Y-4.9213
X4.2323Y-5.1181
X4.2323Y-5.315
X4.2323Y-5.5118
X4.2323Y-5.7087
X4.2323Y-5.9055
X4.4291Y-2.1654
X4.4291Y-2.3622
X4.4291Y-2.5591
X4.4291Y-2.7559
X4.626Y-2.1654
X4.626Y-2.3622
X4.626Y-2.5591
X4.626Y-2.7559
X4.626Y-2.9528
X4.626Y-3.1496
X4.626Y-3.3465
X4.626Y-3.5433
X4.626Y-3.7402
X4.626Y-3.937
X4.626Y-4.1339
X4.626Y-4.3307
X4.626Y-4.5276
X4.626Y-4.7244
X4.626Y-4.9213
X4.626Y-5.1181
X4.626Y-5.315
X4.626Y-5.5118
X4.626Y-5.7087
X4.8228Y-2.1654
X4.8228Y-2.3622
X4.8228Y-2.5591
X4.8228Y-2.7559
X4.8228Y-2.9528
X4.8228Y-3.1496
X4.8228Y-3.5433
X4.8228Y-3.7402
X4.8228Y-3.937
X4.8228Y-4.1339
X4.8228Y-4.3307
X4.8228Y-4.5276
X4.8228Y-4.7244
X4.8228Y-4.9213
X4.8228Y-5.1181
X4.8228Y-5.315
X4.8228Y-5.5118
X4.8228Y-5.7087
X5.0197Y-2.1654
X5.0197Y-2.3622
X5.0197Y-2.5591
X5.0197Y-2.7559
X5.2165Y-2.3622
X5.2165Y-2.9528
X5.2165Y-3.1496
X5.2165Y-3.3465
X5.2165Y-3.5433
X5.2165Y-3.7402
X5.2165Y-3.937
X5.2165Y-4.1339
X5.2165Y-4.3307
X5.2165Y-4.5276
X5.2165Y-4.7244
X5.2165Y-4.9213
X5.2165Y-5.1181
X5.2165Y-5.315
X5.2165Y-5.5118
X5.2165Y-5.7087
X5.2165Y-5.9055
X5.4134Y-2.3622
X5.4134Y-2.9528
X5.4134Y-3.1496
X5.4134Y-3.5433
X5.4134Y-3.7402
X5.4134Y-4.1339
X5.4134Y-4.3307
X5.4134Y-4.7244
X5.4134Y-4.9213
X5.4134Y-5.1181
X5.4134Y-5.315
X5.4134Y-5.5118
X5.4134Y-5.7087
X5.4134Y-5.9055
X5.6102Y-2.1654
X5.6102Y-2.3622
X5.6102Y-2.5591
X5.6102Y-4.7244
X5.6102Y-4.9213
X5.6102Y-5.1181
X5.6102Y-5.315
X5.6102Y-5.5118
X5.6102Y-5.7087
X5.6102Y-5.9055
X5.8071Y-2.3622
X5.8071Y-2.9528
X5.8071Y-3.1496
X5.8071Y-3.3465
X5.8071Y-3.5433
X5.8071Y-3.7402
X5.8071Y-4.1339
X5.8071Y-4.3307
X5.8071Y-4.9213
X5.8071Y-5.1181
X5.8071Y-5.315
X5.8071Y-5.5118
X5.8071Y-5.7087
X5.8071Y-5.9055
X5.8457Y-4.7125
X6.0039Y-2.3622
X6.0039Y-2.9528
X6.0039Y-3.1496
X6.0039Y-3.3465
X6.0039Y-3.5433
X6.0039Y-3.7402
X6.0039Y-3.937
X6.0039Y-4.1339
X6.0039Y-4.3307
X6.0039Y-4.7244
X6.0039Y-4.9213
X6.0039Y-5.1181
X6.0039Y-5.315
X6.0039Y-5.5118
X6.0039Y-5.7087
X6.0039Y-5.9055
X6.2008Y-2.1654
X6.2008Y-2.5591
X6.3976Y-2.1654
X6.3976Y-2.3622
X6.3976Y-2.9528
X6.3976Y-3.1496
X6.3976Y-3.5433
X6.3976Y-3.7402
X6.3976Y-3.937
X6.3976Y-4.1339
X6.3976Y-4.3307
X6.3976Y-4.5276
X6.3976Y-4.7244
X6.3976Y-4.9213
X6.3976Y-5.1181
X6.3976Y-5.315
X6.3976Y-5.5118
X6.3976Y-5.7087
X6.5945Y-2.1654
X6.5945Y-2.3622
X6.5945Y-2.5591
X6.5945Y-2.9528
X6.5945Y-3.1496
X6.5945Y-3.3465
X6.5945Y-3.5433
X6.5945Y-3.7402
X6.5945Y-3.937
X6.5945Y-4.1339
X6.5945Y-4.3307
X6.5945Y-4.5276
X6.5945Y-4.7244
X6.5945Y-4.9213
X6.5945Y-5.1181
X6.5945Y-5.315
X6.5945Y-5.5118
X6.5945Y-5.7087
X6.7913Y-2.1654
X6.7913Y-2.3622
X6.7913Y-2.5591
X6.9882Y-2.5591
X6.9882Y-2.9528
X6.9882Y-3.1496
X6.9882Y-3.3465
X6.9882Y-3.5433
X6.9882Y-3.7402
X6.9882Y-3.937
X6.9882Y-4.1339
X6.9882Y-4.3307
X6.9882Y-4.5276
X6.9882Y-4.7244
X6.9882Y-4.9213
X6.9882Y-5.1181
X6.9882Y-5.315
X6.9882Y-5.5118
X6.9882Y-5.7087
X6.9882Y-5.9055
X7.185Y-2.1654
X7.185Y-2.3622
X7.185Y-2.5591
X7.185Y-2.7559
X7.185Y-2.9528
X7.185Y-3.1496
X7.185Y-3.3465
X7.185Y-3.5433
X7.185Y-3.7402
X7.185Y-3.937
X7.185Y-4.1339
X7.185Y-4.3307
X7.185Y-4.5276
X7.185Y-4.7244
X7.185Y-4.9213
X7.185Y-5.1181
X7.185Y-5.315
X7.185Y-5.7087
T3
X6.4028Y-2.6476
X7.0028Y-2.6476
T4
X4.7589Y-3.3465
X5.3071Y-4.4862
X5.3071Y-4.998
X5.3071Y-5.2638
X5.5081Y-4.7018
X5.5081Y-4.8018
X5.736Y-4.7008
X5.736Y-4.8008
X5.9016Y-4.4852
X5.9016Y-4.9961
X5.9016Y-5.252
X6.4616Y-3.3169
T5
X5.374Y-3.4595
X5.374Y-3.9399
X5.6102Y-3.3808
X5.8465Y-3.4595
X5.8465Y-3.9399
T6
X5.1949Y-2.1991
X5.1949Y-2.4491
X5.3602Y-2.1991
X5.3602Y-2.4491
X5.5256Y-2.1991
X5.5256Y-2.4491
X5.6909Y-2.1991
X5.6909Y-2.4491
X5.8563Y-2.1991
X5.8563Y-2.4491
X6.0217Y-2.1991
X6.0217Y-2.4491
T7
X4.2303Y-2.2771
X6.9862Y-2.2771
T0
M30
