%TF.GenerationSoftware,KiCad,Pcbnew,(6.0.0)*%
%TF.CreationDate,2022-06-28T12:49:40+09:30*%
%TF.ProjectId,Indicator V2,496e6469-6361-4746-9f72-2056322e6b69,E*%
%TF.SameCoordinates,Original*%
%TF.FileFunction,Legend,Top*%
%TF.FilePolarity,Positive*%
%FSLAX46Y46*%
G04 Gerber Fmt 4.6, Leading zero omitted, Abs format (unit mm)*
G04 Created by KiCad (PCBNEW (6.0.0)) date 2022-06-28 12:49:40*
%MOMM*%
%LPD*%
G01*
G04 APERTURE LIST*
%ADD10C,0.026458*%
%ADD11C,0.300000*%
%ADD12C,0.450000*%
%ADD13C,1.000000*%
%ADD14C,0.150000*%
%ADD15C,0.254000*%
%ADD16C,0.120000*%
%ADD17C,0.100000*%
G04 APERTURE END LIST*
D10*
X131832518Y-66773537D02*
X131843629Y-66761564D01*
X131843629Y-66761564D02*
X131853615Y-66749026D01*
X131853615Y-66749026D02*
X131862493Y-66735975D01*
X131862493Y-66735975D02*
X131870277Y-66722465D01*
X131870277Y-66722465D02*
X131876986Y-66708549D01*
X131876986Y-66708549D02*
X131882634Y-66694280D01*
X131882634Y-66694280D02*
X131887239Y-66679713D01*
X131887239Y-66679713D02*
X131890817Y-66664901D01*
X131890817Y-66664901D02*
X131893384Y-66649896D01*
X131893384Y-66649896D02*
X131894956Y-66634753D01*
X131894956Y-66634753D02*
X131895549Y-66619524D01*
X131895549Y-66619524D02*
X131895180Y-66604264D01*
X131895180Y-66604264D02*
X131893866Y-66589026D01*
X131893866Y-66589026D02*
X131891622Y-66573862D01*
X131891622Y-66573862D02*
X131888464Y-66558827D01*
X131888464Y-66558827D02*
X131884410Y-66543974D01*
X131884410Y-66543974D02*
X131879475Y-66529356D01*
X131879475Y-66529356D02*
X131873676Y-66515027D01*
X131873676Y-66515027D02*
X131867028Y-66501039D01*
X131867028Y-66501039D02*
X131859549Y-66487448D01*
X131859549Y-66487448D02*
X131851254Y-66474306D01*
X131851254Y-66474306D02*
X131842160Y-66461665D01*
X131842160Y-66461665D02*
X131832283Y-66449581D01*
X131832283Y-66449581D02*
X131821639Y-66438106D01*
X131821639Y-66438106D02*
X131810245Y-66427294D01*
X131810245Y-66427294D02*
X131798117Y-66417197D01*
X131798117Y-66417197D02*
X131785272Y-66407871D01*
X131785272Y-66407871D02*
X131771725Y-66399367D01*
X131771725Y-66399367D02*
X131757492Y-66391739D01*
X131757492Y-66391739D02*
X131742591Y-66385042D01*
X131742591Y-66385042D02*
X131727037Y-66379327D01*
X131727037Y-66379327D02*
X131710847Y-66374649D01*
X131710847Y-66374649D02*
X131701974Y-66372671D01*
X131701974Y-66372671D02*
X131692969Y-66371148D01*
X131692969Y-66371148D02*
X131683850Y-66370074D01*
X131683850Y-66370074D02*
X131674635Y-66369437D01*
X131674635Y-66369437D02*
X131655990Y-66369448D01*
X131655990Y-66369448D02*
X131637181Y-66371113D01*
X131637181Y-66371113D02*
X131618352Y-66374363D01*
X131618352Y-66374363D02*
X131599650Y-66379132D01*
X131599650Y-66379132D02*
X131581219Y-66385352D01*
X131581219Y-66385352D02*
X131563206Y-66392954D01*
X131563206Y-66392954D02*
X131545755Y-66401871D01*
X131545755Y-66401871D02*
X131529014Y-66412035D01*
X131529014Y-66412035D02*
X131513126Y-66423378D01*
X131513126Y-66423378D02*
X131498238Y-66435833D01*
X131498238Y-66435833D02*
X131484495Y-66449331D01*
X131484495Y-66449331D02*
X131472043Y-66463806D01*
X131472043Y-66463806D02*
X131466346Y-66471388D01*
X131466346Y-66471388D02*
X131461027Y-66479188D01*
X131461027Y-66479188D02*
X131456103Y-66487199D01*
X131456103Y-66487199D02*
X131451593Y-66495411D01*
X131451593Y-66495411D02*
X131443330Y-66512088D01*
X131443330Y-66512088D02*
X131436159Y-66528104D01*
X131436159Y-66528104D02*
X131430079Y-66543541D01*
X131430079Y-66543541D02*
X131425089Y-66558480D01*
X131425089Y-66558480D02*
X131421190Y-66573000D01*
X131421190Y-66573000D02*
X131418379Y-66587182D01*
X131418379Y-66587182D02*
X131416658Y-66601108D01*
X131416658Y-66601108D02*
X131416024Y-66614858D01*
X131416024Y-66614858D02*
X131416479Y-66628513D01*
X131416479Y-66628513D02*
X131418021Y-66642154D01*
X131418021Y-66642154D02*
X131420650Y-66655860D01*
X131420650Y-66655860D02*
X131424365Y-66669713D01*
X131424365Y-66669713D02*
X131429166Y-66683794D01*
X131429166Y-66683794D02*
X131435052Y-66698184D01*
X131435052Y-66698184D02*
X131442022Y-66712962D01*
X131442022Y-66712962D02*
X131450077Y-66728210D01*
X131450077Y-66728210D02*
X131457840Y-66741323D01*
X131457840Y-66741323D02*
X131466177Y-66753717D01*
X131466177Y-66753717D02*
X131475057Y-66765389D01*
X131475057Y-66765389D02*
X131484450Y-66776335D01*
X131484450Y-66776335D02*
X131494325Y-66786552D01*
X131494325Y-66786552D02*
X131504653Y-66796035D01*
X131504653Y-66796035D02*
X131515403Y-66804782D01*
X131515403Y-66804782D02*
X131526544Y-66812789D01*
X131526544Y-66812789D02*
X131538046Y-66820052D01*
X131538046Y-66820052D02*
X131549880Y-66826567D01*
X131549880Y-66826567D02*
X131562013Y-66832332D01*
X131562013Y-66832332D02*
X131574417Y-66837341D01*
X131574417Y-66837341D02*
X131587061Y-66841593D01*
X131587061Y-66841593D02*
X131599914Y-66845083D01*
X131599914Y-66845083D02*
X131612947Y-66847808D01*
X131612947Y-66847808D02*
X131626128Y-66849763D01*
X131626128Y-66849763D02*
X131639428Y-66850946D01*
X131639428Y-66850946D02*
X131652816Y-66851353D01*
X131652816Y-66851353D02*
X131666262Y-66850980D01*
X131666262Y-66850980D02*
X131679736Y-66849824D01*
X131679736Y-66849824D02*
X131693206Y-66847880D01*
X131693206Y-66847880D02*
X131706644Y-66845146D01*
X131706644Y-66845146D02*
X131720018Y-66841618D01*
X131720018Y-66841618D02*
X131733298Y-66837293D01*
X131733298Y-66837293D02*
X131746454Y-66832166D01*
X131746454Y-66832166D02*
X131759455Y-66826234D01*
X131759455Y-66826234D02*
X131772271Y-66819493D01*
X131772271Y-66819493D02*
X131784873Y-66811941D01*
X131784873Y-66811941D02*
X131797229Y-66803572D01*
X131797229Y-66803572D02*
X131809308Y-66794384D01*
X131809308Y-66794384D02*
X131821082Y-66784374D01*
X131821082Y-66784374D02*
X131832519Y-66773537D01*
X131832519Y-66773537D02*
X131832518Y-66773537D01*
X131832518Y-66773537D02*
X131832518Y-66773537D01*
G36*
X131683850Y-66370074D02*
G01*
X131692969Y-66371148D01*
X131701974Y-66372671D01*
X131710847Y-66374649D01*
X131727037Y-66379327D01*
X131742591Y-66385042D01*
X131757492Y-66391739D01*
X131771725Y-66399367D01*
X131785272Y-66407871D01*
X131798117Y-66417197D01*
X131810245Y-66427294D01*
X131821639Y-66438106D01*
X131832283Y-66449581D01*
X131842160Y-66461665D01*
X131851254Y-66474306D01*
X131859549Y-66487448D01*
X131867028Y-66501039D01*
X131873676Y-66515027D01*
X131879475Y-66529356D01*
X131884410Y-66543974D01*
X131888464Y-66558827D01*
X131891622Y-66573862D01*
X131893866Y-66589026D01*
X131895180Y-66604264D01*
X131895549Y-66619524D01*
X131894956Y-66634753D01*
X131893384Y-66649896D01*
X131890817Y-66664901D01*
X131887239Y-66679713D01*
X131882634Y-66694280D01*
X131876986Y-66708549D01*
X131870277Y-66722465D01*
X131862493Y-66735975D01*
X131853615Y-66749026D01*
X131843629Y-66761564D01*
X131832518Y-66773537D01*
X131832519Y-66773537D01*
X131821082Y-66784374D01*
X131809308Y-66794384D01*
X131797229Y-66803572D01*
X131784873Y-66811941D01*
X131772271Y-66819493D01*
X131759455Y-66826234D01*
X131746454Y-66832166D01*
X131733298Y-66837293D01*
X131720018Y-66841618D01*
X131706644Y-66845146D01*
X131693206Y-66847880D01*
X131679736Y-66849824D01*
X131666262Y-66850980D01*
X131652816Y-66851353D01*
X131639428Y-66850946D01*
X131626128Y-66849763D01*
X131612947Y-66847808D01*
X131599914Y-66845083D01*
X131587061Y-66841593D01*
X131574417Y-66837341D01*
X131562013Y-66832332D01*
X131549880Y-66826567D01*
X131538046Y-66820052D01*
X131526544Y-66812789D01*
X131515403Y-66804782D01*
X131504653Y-66796035D01*
X131494325Y-66786552D01*
X131484450Y-66776335D01*
X131475057Y-66765389D01*
X131466177Y-66753717D01*
X131457840Y-66741323D01*
X131450077Y-66728210D01*
X131442022Y-66712962D01*
X131435052Y-66698184D01*
X131429166Y-66683794D01*
X131424365Y-66669713D01*
X131420650Y-66655860D01*
X131418021Y-66642154D01*
X131416479Y-66628513D01*
X131416024Y-66614858D01*
X131416658Y-66601108D01*
X131418379Y-66587182D01*
X131421190Y-66573000D01*
X131425089Y-66558480D01*
X131430079Y-66543541D01*
X131436159Y-66528104D01*
X131443330Y-66512088D01*
X131451593Y-66495411D01*
X131456103Y-66487199D01*
X131461027Y-66479188D01*
X131466346Y-66471388D01*
X131472043Y-66463806D01*
X131484495Y-66449331D01*
X131498238Y-66435833D01*
X131513126Y-66423378D01*
X131529014Y-66412035D01*
X131545755Y-66401871D01*
X131563206Y-66392954D01*
X131581219Y-66385352D01*
X131599650Y-66379132D01*
X131618352Y-66374363D01*
X131637181Y-66371113D01*
X131655990Y-66369448D01*
X131674635Y-66369437D01*
X131683850Y-66370074D01*
G37*
X131683850Y-66370074D02*
X131692969Y-66371148D01*
X131701974Y-66372671D01*
X131710847Y-66374649D01*
X131727037Y-66379327D01*
X131742591Y-66385042D01*
X131757492Y-66391739D01*
X131771725Y-66399367D01*
X131785272Y-66407871D01*
X131798117Y-66417197D01*
X131810245Y-66427294D01*
X131821639Y-66438106D01*
X131832283Y-66449581D01*
X131842160Y-66461665D01*
X131851254Y-66474306D01*
X131859549Y-66487448D01*
X131867028Y-66501039D01*
X131873676Y-66515027D01*
X131879475Y-66529356D01*
X131884410Y-66543974D01*
X131888464Y-66558827D01*
X131891622Y-66573862D01*
X131893866Y-66589026D01*
X131895180Y-66604264D01*
X131895549Y-66619524D01*
X131894956Y-66634753D01*
X131893384Y-66649896D01*
X131890817Y-66664901D01*
X131887239Y-66679713D01*
X131882634Y-66694280D01*
X131876986Y-66708549D01*
X131870277Y-66722465D01*
X131862493Y-66735975D01*
X131853615Y-66749026D01*
X131843629Y-66761564D01*
X131832518Y-66773537D01*
X131832519Y-66773537D01*
X131821082Y-66784374D01*
X131809308Y-66794384D01*
X131797229Y-66803572D01*
X131784873Y-66811941D01*
X131772271Y-66819493D01*
X131759455Y-66826234D01*
X131746454Y-66832166D01*
X131733298Y-66837293D01*
X131720018Y-66841618D01*
X131706644Y-66845146D01*
X131693206Y-66847880D01*
X131679736Y-66849824D01*
X131666262Y-66850980D01*
X131652816Y-66851353D01*
X131639428Y-66850946D01*
X131626128Y-66849763D01*
X131612947Y-66847808D01*
X131599914Y-66845083D01*
X131587061Y-66841593D01*
X131574417Y-66837341D01*
X131562013Y-66832332D01*
X131549880Y-66826567D01*
X131538046Y-66820052D01*
X131526544Y-66812789D01*
X131515403Y-66804782D01*
X131504653Y-66796035D01*
X131494325Y-66786552D01*
X131484450Y-66776335D01*
X131475057Y-66765389D01*
X131466177Y-66753717D01*
X131457840Y-66741323D01*
X131450077Y-66728210D01*
X131442022Y-66712962D01*
X131435052Y-66698184D01*
X131429166Y-66683794D01*
X131424365Y-66669713D01*
X131420650Y-66655860D01*
X131418021Y-66642154D01*
X131416479Y-66628513D01*
X131416024Y-66614858D01*
X131416658Y-66601108D01*
X131418379Y-66587182D01*
X131421190Y-66573000D01*
X131425089Y-66558480D01*
X131430079Y-66543541D01*
X131436159Y-66528104D01*
X131443330Y-66512088D01*
X131451593Y-66495411D01*
X131456103Y-66487199D01*
X131461027Y-66479188D01*
X131466346Y-66471388D01*
X131472043Y-66463806D01*
X131484495Y-66449331D01*
X131498238Y-66435833D01*
X131513126Y-66423378D01*
X131529014Y-66412035D01*
X131545755Y-66401871D01*
X131563206Y-66392954D01*
X131581219Y-66385352D01*
X131599650Y-66379132D01*
X131618352Y-66374363D01*
X131637181Y-66371113D01*
X131655990Y-66369448D01*
X131674635Y-66369437D01*
X131683850Y-66370074D01*
X131815478Y-69780446D02*
X131823258Y-68755185D01*
X131823258Y-68755185D02*
X131894790Y-68609664D01*
X131894790Y-68609664D02*
X131902666Y-68594272D01*
X131902666Y-68594272D02*
X131911479Y-68578195D01*
X131911479Y-68578195D02*
X131921133Y-68561565D01*
X131921133Y-68561565D02*
X131931534Y-68544512D01*
X131931534Y-68544512D02*
X131954195Y-68509662D01*
X131954195Y-68509662D02*
X131978701Y-68474691D01*
X131978701Y-68474691D02*
X132004295Y-68440645D01*
X132004295Y-68440645D02*
X132030215Y-68408572D01*
X132030215Y-68408572D02*
X132043060Y-68393602D01*
X132043060Y-68393602D02*
X132055703Y-68379518D01*
X132055703Y-68379518D02*
X132068047Y-68366449D01*
X132068047Y-68366449D02*
X132079998Y-68354528D01*
X132079998Y-68354528D02*
X132122015Y-68320920D01*
X132122015Y-68320920D02*
X132193844Y-68271247D01*
X132193844Y-68271247D02*
X132409201Y-68133993D01*
X132409201Y-68133993D02*
X132690591Y-67963350D01*
X132690591Y-67963350D02*
X133002538Y-67779901D01*
X133002538Y-67779901D02*
X133309564Y-67604230D01*
X133309564Y-67604230D02*
X133576193Y-67456920D01*
X133576193Y-67456920D02*
X133766947Y-67358553D01*
X133766947Y-67358553D02*
X133822785Y-67334156D01*
X133822785Y-67334156D02*
X133838879Y-67329280D01*
X133838879Y-67329280D02*
X133846350Y-67329714D01*
X133846350Y-67329714D02*
X133848865Y-67332956D01*
X133848865Y-67332956D02*
X133851929Y-67337835D01*
X133851929Y-67337835D02*
X133855502Y-67344251D01*
X133855502Y-67344251D02*
X133859540Y-67352107D01*
X133859540Y-67352107D02*
X133868844Y-67371741D01*
X133868844Y-67371741D02*
X133879502Y-67395944D01*
X133879502Y-67395944D02*
X133891176Y-67423925D01*
X133891176Y-67423925D02*
X133903528Y-67454893D01*
X133903528Y-67454893D02*
X133916217Y-67488058D01*
X133916217Y-67488058D02*
X133928907Y-67522626D01*
X133928907Y-67522626D02*
X133989887Y-67692359D01*
X133989887Y-67692359D02*
X133927052Y-67734293D01*
X133927052Y-67734293D02*
X133848441Y-67781891D01*
X133848441Y-67781891D02*
X133680852Y-67880491D01*
X133680852Y-67880491D02*
X133448891Y-68015694D01*
X133448891Y-68015694D02*
X133177163Y-68173102D01*
X133177163Y-68173102D02*
X132910415Y-68329289D01*
X132910415Y-68329289D02*
X132692015Y-68461167D01*
X132692015Y-68461167D02*
X132607987Y-68513650D01*
X132607987Y-68513650D02*
X132544497Y-68554846D01*
X132544497Y-68554846D02*
X132504360Y-68583020D01*
X132504360Y-68583020D02*
X132493930Y-68591681D01*
X132493930Y-68591681D02*
X132490395Y-68596435D01*
X132490395Y-68596435D02*
X132490560Y-68597879D01*
X132490560Y-68597879D02*
X132491020Y-68599479D01*
X132491020Y-68599479D02*
X132491769Y-68601229D01*
X132491769Y-68601229D02*
X132492799Y-68603123D01*
X132492799Y-68603123D02*
X132494102Y-68605154D01*
X132494102Y-68605154D02*
X132495671Y-68607317D01*
X132495671Y-68607317D02*
X132497499Y-68609605D01*
X132497499Y-68609605D02*
X132499578Y-68612014D01*
X132499578Y-68612014D02*
X132504460Y-68617166D01*
X132504460Y-68617166D02*
X132510258Y-68622725D01*
X132510258Y-68622725D02*
X132516914Y-68628643D01*
X132516914Y-68628643D02*
X132524368Y-68634872D01*
X132524368Y-68634872D02*
X132532561Y-68641364D01*
X132532561Y-68641364D02*
X132541434Y-68648071D01*
X132541434Y-68648071D02*
X132550928Y-68654944D01*
X132550928Y-68654944D02*
X132560984Y-68661936D01*
X132560984Y-68661936D02*
X132571542Y-68668999D01*
X132571542Y-68668999D02*
X132582545Y-68676084D01*
X132582545Y-68676084D02*
X132593932Y-68683144D01*
X132593932Y-68683144D02*
X132605645Y-68690131D01*
X132605645Y-68690131D02*
X132720610Y-68757368D01*
X132720610Y-68757368D02*
X132863131Y-68680175D01*
X132863131Y-68680175D02*
X132907580Y-68658030D01*
X132907580Y-68658030D02*
X132952383Y-68639448D01*
X132952383Y-68639448D02*
X132997415Y-68624349D01*
X132997415Y-68624349D02*
X133042551Y-68612648D01*
X133042551Y-68612648D02*
X133087665Y-68604262D01*
X133087665Y-68604262D02*
X133132633Y-68599109D01*
X133132633Y-68599109D02*
X133177329Y-68597106D01*
X133177329Y-68597106D02*
X133221627Y-68598169D01*
X133221627Y-68598169D02*
X133265403Y-68602215D01*
X133265403Y-68602215D02*
X133308531Y-68609162D01*
X133308531Y-68609162D02*
X133350887Y-68618926D01*
X133350887Y-68618926D02*
X133392344Y-68631424D01*
X133392344Y-68631424D02*
X133432777Y-68646574D01*
X133432777Y-68646574D02*
X133472062Y-68664291D01*
X133472062Y-68664291D02*
X133510072Y-68684494D01*
X133510072Y-68684494D02*
X133546683Y-68707099D01*
X133546683Y-68707099D02*
X133581770Y-68732024D01*
X133581770Y-68732024D02*
X133615207Y-68759184D01*
X133615207Y-68759184D02*
X133646869Y-68788497D01*
X133646869Y-68788497D02*
X133676630Y-68819880D01*
X133676630Y-68819880D02*
X133704366Y-68853250D01*
X133704366Y-68853250D02*
X133729950Y-68888524D01*
X133729950Y-68888524D02*
X133753259Y-68925619D01*
X133753259Y-68925619D02*
X133774166Y-68964452D01*
X133774166Y-68964452D02*
X133792547Y-69004940D01*
X133792547Y-69004940D02*
X133808275Y-69046999D01*
X133808275Y-69046999D02*
X133821227Y-69090547D01*
X133821227Y-69090547D02*
X133831276Y-69135501D01*
X133831276Y-69135501D02*
X133838297Y-69181777D01*
X133838297Y-69181777D02*
X133842165Y-69229293D01*
X133842165Y-69229293D02*
X133842755Y-69277966D01*
X133842755Y-69277966D02*
X133839942Y-69327712D01*
X133839942Y-69327712D02*
X133835970Y-69362023D01*
X133835970Y-69362023D02*
X133830362Y-69395691D01*
X133830362Y-69395691D02*
X133823163Y-69428679D01*
X133823163Y-69428679D02*
X133814415Y-69460951D01*
X133814415Y-69460951D02*
X133804165Y-69492470D01*
X133804165Y-69492470D02*
X133792455Y-69523199D01*
X133792455Y-69523199D02*
X133779330Y-69553103D01*
X133779330Y-69553103D02*
X133764833Y-69582144D01*
X133764833Y-69582144D02*
X133749010Y-69610285D01*
X133749010Y-69610285D02*
X133731904Y-69637490D01*
X133731904Y-69637490D02*
X133713560Y-69663723D01*
X133713560Y-69663723D02*
X133694020Y-69688946D01*
X133694020Y-69688946D02*
X133673331Y-69713123D01*
X133673331Y-69713123D02*
X133651535Y-69736218D01*
X133651535Y-69736218D02*
X133628677Y-69758193D01*
X133628677Y-69758193D02*
X133604801Y-69779013D01*
X133604801Y-69779013D02*
X133579951Y-69798640D01*
X133579951Y-69798640D02*
X133554172Y-69817038D01*
X133554172Y-69817038D02*
X133527507Y-69834170D01*
X133527507Y-69834170D02*
X133500000Y-69850000D01*
X133500000Y-69850000D02*
X133471697Y-69864490D01*
X133471697Y-69864490D02*
X133442640Y-69877605D01*
X133442640Y-69877605D02*
X133412874Y-69889308D01*
X133412874Y-69889308D02*
X133382443Y-69899562D01*
X133382443Y-69899562D02*
X133351391Y-69908330D01*
X133351391Y-69908330D02*
X133319763Y-69915575D01*
X133319763Y-69915575D02*
X133287602Y-69921262D01*
X133287602Y-69921262D02*
X133254953Y-69925354D01*
X133254953Y-69925354D02*
X133221860Y-69927813D01*
X133221860Y-69927813D02*
X133188367Y-69928604D01*
X133188367Y-69928604D02*
X133154518Y-69927689D01*
X133154518Y-69927689D02*
X133120357Y-69925032D01*
X133120357Y-69925032D02*
X133087791Y-69920962D01*
X133087791Y-69920962D02*
X133055869Y-69915558D01*
X133055869Y-69915558D02*
X133024616Y-69908847D01*
X133024616Y-69908847D02*
X132994058Y-69900859D01*
X132994058Y-69900859D02*
X132964220Y-69891620D01*
X132964220Y-69891620D02*
X132935128Y-69881159D01*
X132935128Y-69881159D02*
X132906807Y-69869505D01*
X132906807Y-69869505D02*
X132879284Y-69856684D01*
X132879284Y-69856684D02*
X132852583Y-69842725D01*
X132852583Y-69842725D02*
X132826731Y-69827657D01*
X132826731Y-69827657D02*
X132801752Y-69811506D01*
X132801752Y-69811506D02*
X132777673Y-69794302D01*
X132777673Y-69794302D02*
X132754519Y-69776072D01*
X132754519Y-69776072D02*
X132732316Y-69756844D01*
X132732316Y-69756844D02*
X132711089Y-69736647D01*
X132711089Y-69736647D02*
X132690864Y-69715508D01*
X132690864Y-69715508D02*
X132671667Y-69693455D01*
X132671667Y-69693455D02*
X132653522Y-69670516D01*
X132653522Y-69670516D02*
X132636456Y-69646721D01*
X132636456Y-69646721D02*
X132620495Y-69622095D01*
X132620495Y-69622095D02*
X132605663Y-69596668D01*
X132605663Y-69596668D02*
X132591987Y-69570468D01*
X132591987Y-69570468D02*
X132579492Y-69543522D01*
X132579492Y-69543522D02*
X132568203Y-69515859D01*
X132568203Y-69515859D02*
X132558147Y-69487507D01*
X132558147Y-69487507D02*
X132549348Y-69458494D01*
X132549348Y-69458494D02*
X132541833Y-69428847D01*
X132541833Y-69428847D02*
X132535627Y-69398595D01*
X132535627Y-69398595D02*
X132530755Y-69367766D01*
X132530755Y-69367766D02*
X132527244Y-69336388D01*
X132527244Y-69336388D02*
X132525118Y-69304489D01*
X132525118Y-69304489D02*
X132524404Y-69272097D01*
X132524404Y-69272097D02*
X132524404Y-69120783D01*
X132524404Y-69120783D02*
X132395146Y-69050432D01*
X132395146Y-69050432D02*
X132368849Y-69036300D01*
X132368849Y-69036300D02*
X132343675Y-69023116D01*
X132343675Y-69023116D02*
X132320219Y-69011169D01*
X132320219Y-69011169D02*
X132299081Y-69000747D01*
X132299081Y-69000747D02*
X132280855Y-68992139D01*
X132280855Y-68992139D02*
X132266139Y-68985633D01*
X132266139Y-68985633D02*
X132255530Y-68981517D01*
X132255530Y-68981517D02*
X132251953Y-68980446D01*
X132251953Y-68980446D02*
X132249625Y-68980081D01*
X132249625Y-68980081D02*
X132247969Y-68984661D01*
X132247969Y-68984661D02*
X132246358Y-68998098D01*
X132246358Y-68998098D02*
X132243311Y-69049732D01*
X132243311Y-69049732D02*
X132240549Y-69131365D01*
X132240549Y-69131365D02*
X132238139Y-69239375D01*
X132238139Y-69239375D02*
X132234645Y-69520047D01*
X132234645Y-69520047D02*
X132233362Y-69862783D01*
X132233362Y-69862783D02*
X132233362Y-70745485D01*
X132233362Y-70745485D02*
X132083429Y-70775596D01*
X132083429Y-70775596D02*
X132052026Y-70781644D01*
X132052026Y-70781644D02*
X132020249Y-70787287D01*
X132020249Y-70787287D02*
X131988970Y-70792401D01*
X131988970Y-70792401D02*
X131959062Y-70796861D01*
X131959062Y-70796861D02*
X131931397Y-70800546D01*
X131931397Y-70800546D02*
X131906850Y-70803330D01*
X131906850Y-70803330D02*
X131886292Y-70805092D01*
X131886292Y-70805092D02*
X131870597Y-70805706D01*
X131870597Y-70805706D02*
X131807700Y-70805706D01*
X131807700Y-70805706D02*
X131815478Y-69780446D01*
X131815478Y-69780446D02*
X131815478Y-69780446D01*
G36*
X133846350Y-67329714D02*
G01*
X133848865Y-67332956D01*
X133851929Y-67337835D01*
X133855502Y-67344251D01*
X133859540Y-67352107D01*
X133868844Y-67371741D01*
X133879502Y-67395944D01*
X133891176Y-67423925D01*
X133903528Y-67454893D01*
X133916217Y-67488058D01*
X133928907Y-67522626D01*
X133989887Y-67692359D01*
X133927052Y-67734293D01*
X133848441Y-67781891D01*
X133680852Y-67880491D01*
X133448891Y-68015694D01*
X133177163Y-68173102D01*
X132910415Y-68329289D01*
X132692015Y-68461167D01*
X132607987Y-68513650D01*
X132544497Y-68554846D01*
X132504360Y-68583020D01*
X132493930Y-68591681D01*
X132490395Y-68596435D01*
X132490560Y-68597879D01*
X132491020Y-68599479D01*
X132491769Y-68601229D01*
X132492799Y-68603123D01*
X132494102Y-68605154D01*
X132495671Y-68607317D01*
X132497499Y-68609605D01*
X132499578Y-68612014D01*
X132504460Y-68617166D01*
X132510258Y-68622725D01*
X132516914Y-68628643D01*
X132524368Y-68634872D01*
X132532561Y-68641364D01*
X132541434Y-68648071D01*
X132550928Y-68654944D01*
X132560984Y-68661936D01*
X132571542Y-68668999D01*
X132582545Y-68676084D01*
X132593932Y-68683144D01*
X132605645Y-68690131D01*
X132720610Y-68757368D01*
X132863131Y-68680175D01*
X132907580Y-68658030D01*
X132952383Y-68639448D01*
X132997415Y-68624349D01*
X133042551Y-68612648D01*
X133087665Y-68604262D01*
X133132633Y-68599109D01*
X133177329Y-68597106D01*
X133221627Y-68598169D01*
X133265403Y-68602215D01*
X133308531Y-68609162D01*
X133350887Y-68618926D01*
X133392344Y-68631424D01*
X133432777Y-68646574D01*
X133472062Y-68664291D01*
X133510072Y-68684494D01*
X133546683Y-68707099D01*
X133581770Y-68732024D01*
X133615207Y-68759184D01*
X133646869Y-68788497D01*
X133676630Y-68819880D01*
X133704366Y-68853250D01*
X133729950Y-68888524D01*
X133753259Y-68925619D01*
X133774166Y-68964452D01*
X133792547Y-69004940D01*
X133808275Y-69046999D01*
X133821227Y-69090547D01*
X133831276Y-69135501D01*
X133838297Y-69181777D01*
X133842165Y-69229293D01*
X133842755Y-69277966D01*
X133839942Y-69327712D01*
X133835970Y-69362023D01*
X133830362Y-69395691D01*
X133823163Y-69428679D01*
X133814415Y-69460951D01*
X133804165Y-69492470D01*
X133792455Y-69523199D01*
X133779330Y-69553103D01*
X133764833Y-69582144D01*
X133749010Y-69610285D01*
X133731904Y-69637490D01*
X133713560Y-69663723D01*
X133694020Y-69688946D01*
X133673331Y-69713123D01*
X133651535Y-69736218D01*
X133628677Y-69758193D01*
X133604801Y-69779013D01*
X133579951Y-69798640D01*
X133554172Y-69817038D01*
X133527507Y-69834170D01*
X133500000Y-69850000D01*
X133471697Y-69864490D01*
X133442640Y-69877605D01*
X133412874Y-69889308D01*
X133382443Y-69899562D01*
X133351391Y-69908330D01*
X133319763Y-69915575D01*
X133287602Y-69921262D01*
X133254953Y-69925354D01*
X133221860Y-69927813D01*
X133188367Y-69928604D01*
X133154518Y-69927689D01*
X133120357Y-69925032D01*
X133087791Y-69920962D01*
X133055869Y-69915558D01*
X133024616Y-69908847D01*
X132994058Y-69900859D01*
X132964220Y-69891620D01*
X132935128Y-69881159D01*
X132906807Y-69869505D01*
X132879284Y-69856684D01*
X132852583Y-69842725D01*
X132826731Y-69827657D01*
X132801752Y-69811506D01*
X132777673Y-69794302D01*
X132754519Y-69776072D01*
X132732316Y-69756844D01*
X132711089Y-69736647D01*
X132690864Y-69715508D01*
X132671667Y-69693455D01*
X132653522Y-69670516D01*
X132636456Y-69646721D01*
X132620495Y-69622095D01*
X132605663Y-69596668D01*
X132591987Y-69570468D01*
X132579492Y-69543522D01*
X132568203Y-69515859D01*
X132558147Y-69487507D01*
X132549348Y-69458494D01*
X132541833Y-69428847D01*
X132535627Y-69398595D01*
X132530755Y-69367766D01*
X132527244Y-69336388D01*
X132525118Y-69304489D01*
X132524404Y-69272097D01*
X132524404Y-69120783D01*
X132395146Y-69050432D01*
X132368849Y-69036300D01*
X132343675Y-69023116D01*
X132320219Y-69011169D01*
X132299081Y-69000747D01*
X132280855Y-68992139D01*
X132266139Y-68985633D01*
X132255530Y-68981517D01*
X132251953Y-68980446D01*
X132249625Y-68980081D01*
X132247969Y-68984661D01*
X132246358Y-68998098D01*
X132243311Y-69049732D01*
X132240549Y-69131365D01*
X132238139Y-69239375D01*
X132234645Y-69520047D01*
X132233362Y-69862783D01*
X132233362Y-70745485D01*
X132083429Y-70775596D01*
X132052026Y-70781644D01*
X132020249Y-70787287D01*
X131988970Y-70792401D01*
X131959062Y-70796861D01*
X131931397Y-70800546D01*
X131906850Y-70803330D01*
X131886292Y-70805092D01*
X131870597Y-70805706D01*
X131807700Y-70805706D01*
X131815478Y-69780446D01*
X131823258Y-68755185D01*
X131894790Y-68609664D01*
X131902666Y-68594272D01*
X131911479Y-68578195D01*
X131921133Y-68561565D01*
X131931534Y-68544512D01*
X131954195Y-68509662D01*
X131978701Y-68474691D01*
X132004295Y-68440645D01*
X132030215Y-68408572D01*
X132043060Y-68393602D01*
X132055703Y-68379518D01*
X132068047Y-68366449D01*
X132079998Y-68354528D01*
X132122015Y-68320920D01*
X132193844Y-68271247D01*
X132409201Y-68133993D01*
X132690591Y-67963350D01*
X133002538Y-67779901D01*
X133309564Y-67604230D01*
X133576193Y-67456920D01*
X133766947Y-67358553D01*
X133822785Y-67334156D01*
X133838879Y-67329280D01*
X133846350Y-67329714D01*
G37*
X133846350Y-67329714D02*
X133848865Y-67332956D01*
X133851929Y-67337835D01*
X133855502Y-67344251D01*
X133859540Y-67352107D01*
X133868844Y-67371741D01*
X133879502Y-67395944D01*
X133891176Y-67423925D01*
X133903528Y-67454893D01*
X133916217Y-67488058D01*
X133928907Y-67522626D01*
X133989887Y-67692359D01*
X133927052Y-67734293D01*
X133848441Y-67781891D01*
X133680852Y-67880491D01*
X133448891Y-68015694D01*
X133177163Y-68173102D01*
X132910415Y-68329289D01*
X132692015Y-68461167D01*
X132607987Y-68513650D01*
X132544497Y-68554846D01*
X132504360Y-68583020D01*
X132493930Y-68591681D01*
X132490395Y-68596435D01*
X132490560Y-68597879D01*
X132491020Y-68599479D01*
X132491769Y-68601229D01*
X132492799Y-68603123D01*
X132494102Y-68605154D01*
X132495671Y-68607317D01*
X132497499Y-68609605D01*
X132499578Y-68612014D01*
X132504460Y-68617166D01*
X132510258Y-68622725D01*
X132516914Y-68628643D01*
X132524368Y-68634872D01*
X132532561Y-68641364D01*
X132541434Y-68648071D01*
X132550928Y-68654944D01*
X132560984Y-68661936D01*
X132571542Y-68668999D01*
X132582545Y-68676084D01*
X132593932Y-68683144D01*
X132605645Y-68690131D01*
X132720610Y-68757368D01*
X132863131Y-68680175D01*
X132907580Y-68658030D01*
X132952383Y-68639448D01*
X132997415Y-68624349D01*
X133042551Y-68612648D01*
X133087665Y-68604262D01*
X133132633Y-68599109D01*
X133177329Y-68597106D01*
X133221627Y-68598169D01*
X133265403Y-68602215D01*
X133308531Y-68609162D01*
X133350887Y-68618926D01*
X133392344Y-68631424D01*
X133432777Y-68646574D01*
X133472062Y-68664291D01*
X133510072Y-68684494D01*
X133546683Y-68707099D01*
X133581770Y-68732024D01*
X133615207Y-68759184D01*
X133646869Y-68788497D01*
X133676630Y-68819880D01*
X133704366Y-68853250D01*
X133729950Y-68888524D01*
X133753259Y-68925619D01*
X133774166Y-68964452D01*
X133792547Y-69004940D01*
X133808275Y-69046999D01*
X133821227Y-69090547D01*
X133831276Y-69135501D01*
X133838297Y-69181777D01*
X133842165Y-69229293D01*
X133842755Y-69277966D01*
X133839942Y-69327712D01*
X133835970Y-69362023D01*
X133830362Y-69395691D01*
X133823163Y-69428679D01*
X133814415Y-69460951D01*
X133804165Y-69492470D01*
X133792455Y-69523199D01*
X133779330Y-69553103D01*
X133764833Y-69582144D01*
X133749010Y-69610285D01*
X133731904Y-69637490D01*
X133713560Y-69663723D01*
X133694020Y-69688946D01*
X133673331Y-69713123D01*
X133651535Y-69736218D01*
X133628677Y-69758193D01*
X133604801Y-69779013D01*
X133579951Y-69798640D01*
X133554172Y-69817038D01*
X133527507Y-69834170D01*
X133500000Y-69850000D01*
X133471697Y-69864490D01*
X133442640Y-69877605D01*
X133412874Y-69889308D01*
X133382443Y-69899562D01*
X133351391Y-69908330D01*
X133319763Y-69915575D01*
X133287602Y-69921262D01*
X133254953Y-69925354D01*
X133221860Y-69927813D01*
X133188367Y-69928604D01*
X133154518Y-69927689D01*
X133120357Y-69925032D01*
X133087791Y-69920962D01*
X133055869Y-69915558D01*
X133024616Y-69908847D01*
X132994058Y-69900859D01*
X132964220Y-69891620D01*
X132935128Y-69881159D01*
X132906807Y-69869505D01*
X132879284Y-69856684D01*
X132852583Y-69842725D01*
X132826731Y-69827657D01*
X132801752Y-69811506D01*
X132777673Y-69794302D01*
X132754519Y-69776072D01*
X132732316Y-69756844D01*
X132711089Y-69736647D01*
X132690864Y-69715508D01*
X132671667Y-69693455D01*
X132653522Y-69670516D01*
X132636456Y-69646721D01*
X132620495Y-69622095D01*
X132605663Y-69596668D01*
X132591987Y-69570468D01*
X132579492Y-69543522D01*
X132568203Y-69515859D01*
X132558147Y-69487507D01*
X132549348Y-69458494D01*
X132541833Y-69428847D01*
X132535627Y-69398595D01*
X132530755Y-69367766D01*
X132527244Y-69336388D01*
X132525118Y-69304489D01*
X132524404Y-69272097D01*
X132524404Y-69120783D01*
X132395146Y-69050432D01*
X132368849Y-69036300D01*
X132343675Y-69023116D01*
X132320219Y-69011169D01*
X132299081Y-69000747D01*
X132280855Y-68992139D01*
X132266139Y-68985633D01*
X132255530Y-68981517D01*
X132251953Y-68980446D01*
X132249625Y-68980081D01*
X132247969Y-68984661D01*
X132246358Y-68998098D01*
X132243311Y-69049732D01*
X132240549Y-69131365D01*
X132238139Y-69239375D01*
X132234645Y-69520047D01*
X132233362Y-69862783D01*
X132233362Y-70745485D01*
X132083429Y-70775596D01*
X132052026Y-70781644D01*
X132020249Y-70787287D01*
X131988970Y-70792401D01*
X131959062Y-70796861D01*
X131931397Y-70800546D01*
X131906850Y-70803330D01*
X131886292Y-70805092D01*
X131870597Y-70805706D01*
X131807700Y-70805706D01*
X131815478Y-69780446D01*
X131823258Y-68755185D01*
X131894790Y-68609664D01*
X131902666Y-68594272D01*
X131911479Y-68578195D01*
X131921133Y-68561565D01*
X131931534Y-68544512D01*
X131954195Y-68509662D01*
X131978701Y-68474691D01*
X132004295Y-68440645D01*
X132030215Y-68408572D01*
X132043060Y-68393602D01*
X132055703Y-68379518D01*
X132068047Y-68366449D01*
X132079998Y-68354528D01*
X132122015Y-68320920D01*
X132193844Y-68271247D01*
X132409201Y-68133993D01*
X132690591Y-67963350D01*
X133002538Y-67779901D01*
X133309564Y-67604230D01*
X133576193Y-67456920D01*
X133766947Y-67358553D01*
X133822785Y-67334156D01*
X133838879Y-67329280D01*
X133846350Y-67329714D01*
X131320549Y-70792555D02*
X131313209Y-70790413D01*
X131313209Y-70790413D02*
X131302447Y-70787761D01*
X131302447Y-70787761D02*
X131288778Y-70784702D01*
X131288778Y-70784702D02*
X131272717Y-70781342D01*
X131272717Y-70781342D02*
X131254781Y-70777786D01*
X131254781Y-70777786D02*
X131235484Y-70774138D01*
X131235484Y-70774138D02*
X131215343Y-70770503D01*
X131215343Y-70770503D02*
X131194872Y-70766986D01*
X131194872Y-70766986D02*
X131095653Y-70750391D01*
X131095653Y-70750391D02*
X131095653Y-69880027D01*
X131095653Y-69880027D02*
X131093800Y-69540379D01*
X131093800Y-69540379D02*
X131088749Y-69260570D01*
X131088749Y-69260570D02*
X131081263Y-69069260D01*
X131081263Y-69069260D02*
X131076845Y-69015748D01*
X131076845Y-69015748D02*
X131074509Y-69001095D01*
X131074509Y-69001095D02*
X131072104Y-68995108D01*
X131072104Y-68995108D02*
X131070738Y-68994451D01*
X131070738Y-68994451D02*
X131069073Y-68993979D01*
X131069073Y-68993979D02*
X131067118Y-68993688D01*
X131067118Y-68993688D02*
X131064884Y-68993576D01*
X131064884Y-68993576D02*
X131059614Y-68993870D01*
X131059614Y-68993870D02*
X131053336Y-68994836D01*
X131053336Y-68994836D02*
X131046126Y-68996445D01*
X131046126Y-68996445D02*
X131038057Y-68998669D01*
X131038057Y-68998669D02*
X131029205Y-69001481D01*
X131029205Y-69001481D02*
X131019643Y-69004854D01*
X131019643Y-69004854D02*
X131009448Y-69008761D01*
X131009448Y-69008761D02*
X130998692Y-69013173D01*
X130998692Y-69013173D02*
X130987452Y-69018063D01*
X130987452Y-69018063D02*
X130975801Y-69023404D01*
X130975801Y-69023404D02*
X130963814Y-69029168D01*
X130963814Y-69029168D02*
X130951566Y-69035328D01*
X130951566Y-69035328D02*
X130939131Y-69041856D01*
X130939131Y-69041856D02*
X130926583Y-69048725D01*
X130926583Y-69048725D02*
X130804612Y-69116896D01*
X130804612Y-69116896D02*
X130804347Y-69266770D01*
X130804347Y-69266770D02*
X130801464Y-69331056D01*
X130801464Y-69331056D02*
X130793242Y-69392438D01*
X130793242Y-69392438D02*
X130779979Y-69450846D01*
X130779979Y-69450846D02*
X130761973Y-69506215D01*
X130761973Y-69506215D02*
X130739523Y-69558478D01*
X130739523Y-69558478D02*
X130712927Y-69607566D01*
X130712927Y-69607566D02*
X130682484Y-69653414D01*
X130682484Y-69653414D02*
X130648493Y-69695953D01*
X130648493Y-69695953D02*
X130611252Y-69735118D01*
X130611252Y-69735118D02*
X130571060Y-69770840D01*
X130571060Y-69770840D02*
X130528214Y-69803053D01*
X130528214Y-69803053D02*
X130483014Y-69831689D01*
X130483014Y-69831689D02*
X130435759Y-69856682D01*
X130435759Y-69856682D02*
X130386746Y-69877964D01*
X130386746Y-69877964D02*
X130336274Y-69895468D01*
X130336274Y-69895468D02*
X130284641Y-69909128D01*
X130284641Y-69909128D02*
X130232147Y-69918875D01*
X130232147Y-69918875D02*
X130179090Y-69924643D01*
X130179090Y-69924643D02*
X130125768Y-69926366D01*
X130125768Y-69926366D02*
X130072479Y-69923974D01*
X130072479Y-69923974D02*
X130019523Y-69917403D01*
X130019523Y-69917403D02*
X129967198Y-69906584D01*
X129967198Y-69906584D02*
X129915802Y-69891450D01*
X129915802Y-69891450D02*
X129865634Y-69871935D01*
X129865634Y-69871935D02*
X129816992Y-69847970D01*
X129816992Y-69847970D02*
X129770175Y-69819490D01*
X129770175Y-69819490D02*
X129725481Y-69786427D01*
X129725481Y-69786427D02*
X129683209Y-69748713D01*
X129683209Y-69748713D02*
X129643658Y-69706283D01*
X129643658Y-69706283D02*
X129607126Y-69659068D01*
X129607126Y-69659068D02*
X129573911Y-69607001D01*
X129573911Y-69607001D02*
X129544312Y-69550016D01*
X129544312Y-69550016D02*
X129526337Y-69508017D01*
X129526337Y-69508017D02*
X129511343Y-69465784D01*
X129511343Y-69465784D02*
X129499266Y-69423419D01*
X129499266Y-69423419D02*
X129490043Y-69381025D01*
X129490043Y-69381025D02*
X129483610Y-69338706D01*
X129483610Y-69338706D02*
X129479903Y-69296564D01*
X129479903Y-69296564D02*
X129478860Y-69254701D01*
X129478860Y-69254701D02*
X129480415Y-69213221D01*
X129480415Y-69213221D02*
X129484507Y-69172226D01*
X129484507Y-69172226D02*
X129491071Y-69131820D01*
X129491071Y-69131820D02*
X129500043Y-69092104D01*
X129500043Y-69092104D02*
X129511360Y-69053182D01*
X129511360Y-69053182D02*
X129524959Y-69015157D01*
X129524959Y-69015157D02*
X129540775Y-68978131D01*
X129540775Y-68978131D02*
X129558745Y-68942207D01*
X129558745Y-68942207D02*
X129578806Y-68907488D01*
X129578806Y-68907488D02*
X129600894Y-68874077D01*
X129600894Y-68874077D02*
X129624946Y-68842077D01*
X129624946Y-68842077D02*
X129650897Y-68811589D01*
X129650897Y-68811589D02*
X129678684Y-68782718D01*
X129678684Y-68782718D02*
X129708244Y-68755566D01*
X129708244Y-68755566D02*
X129739513Y-68730236D01*
X129739513Y-68730236D02*
X129772428Y-68706830D01*
X129772428Y-68706830D02*
X129806924Y-68685451D01*
X129806924Y-68685451D02*
X129842938Y-68666203D01*
X129842938Y-68666203D02*
X129880407Y-68649187D01*
X129880407Y-68649187D02*
X129919267Y-68634507D01*
X129919267Y-68634507D02*
X129959454Y-68622266D01*
X129959454Y-68622266D02*
X130000905Y-68612566D01*
X130000905Y-68612566D02*
X130043557Y-68605510D01*
X130043557Y-68605510D02*
X130087344Y-68601202D01*
X130087344Y-68601202D02*
X130132205Y-68599742D01*
X130132205Y-68599742D02*
X130155006Y-68599953D01*
X130155006Y-68599953D02*
X130176741Y-68600607D01*
X130176741Y-68600607D02*
X130197553Y-68601740D01*
X130197553Y-68601740D02*
X130217585Y-68603384D01*
X130217585Y-68603384D02*
X130236980Y-68605575D01*
X130236980Y-68605575D02*
X130255881Y-68608346D01*
X130255881Y-68608346D02*
X130274430Y-68611731D01*
X130274430Y-68611731D02*
X130292771Y-68615766D01*
X130292771Y-68615766D02*
X130311046Y-68620483D01*
X130311046Y-68620483D02*
X130329398Y-68625917D01*
X130329398Y-68625917D02*
X130347971Y-68632102D01*
X130347971Y-68632102D02*
X130366907Y-68639073D01*
X130366907Y-68639073D02*
X130386348Y-68646864D01*
X130386348Y-68646864D02*
X130406439Y-68655507D01*
X130406439Y-68655507D02*
X130427321Y-68665039D01*
X130427321Y-68665039D02*
X130449138Y-68675493D01*
X130449138Y-68675493D02*
X130603966Y-68751243D01*
X130603966Y-68751243D02*
X130718914Y-68687068D01*
X130718914Y-68687068D02*
X130730619Y-68680394D01*
X130730619Y-68680394D02*
X130741985Y-68673637D01*
X130741985Y-68673637D02*
X130752956Y-68666844D01*
X130752956Y-68666844D02*
X130763471Y-68660063D01*
X130763471Y-68660063D02*
X130773473Y-68653338D01*
X130773473Y-68653338D02*
X130782904Y-68646717D01*
X130782904Y-68646717D02*
X130791704Y-68640247D01*
X130791704Y-68640247D02*
X130799816Y-68633973D01*
X130799816Y-68633973D02*
X130807181Y-68627942D01*
X130807181Y-68627942D02*
X130813740Y-68622200D01*
X130813740Y-68622200D02*
X130819436Y-68616795D01*
X130819436Y-68616795D02*
X130824209Y-68611772D01*
X130824209Y-68611772D02*
X130828001Y-68607178D01*
X130828001Y-68607178D02*
X130830754Y-68603060D01*
X130830754Y-68603060D02*
X130832409Y-68599463D01*
X130832409Y-68599463D02*
X130832807Y-68597875D01*
X130832807Y-68597875D02*
X130832908Y-68596435D01*
X130832908Y-68596435D02*
X130831875Y-68594511D01*
X130831875Y-68594511D02*
X130828908Y-68591486D01*
X130828908Y-68591486D02*
X130817360Y-68582252D01*
X130817360Y-68582252D02*
X130798651Y-68568971D01*
X130798651Y-68568971D02*
X130773167Y-68551878D01*
X130773167Y-68551878D02*
X130703421Y-68507203D01*
X130703421Y-68507203D02*
X130611210Y-68450119D01*
X130611210Y-68450119D02*
X130499626Y-68382515D01*
X130499626Y-68382515D02*
X130371758Y-68306282D01*
X130371758Y-68306282D02*
X130230696Y-68223310D01*
X130230696Y-68223310D02*
X130079530Y-68135491D01*
X130079530Y-68135491D02*
X129327108Y-67701005D01*
X129327108Y-67701005D02*
X129389030Y-67530412D01*
X129389030Y-67530412D02*
X129401978Y-67495635D01*
X129401978Y-67495635D02*
X129415042Y-67462205D01*
X129415042Y-67462205D02*
X129427865Y-67430927D01*
X129427865Y-67430927D02*
X129440092Y-67402601D01*
X129440092Y-67402601D02*
X129451366Y-67378030D01*
X129451366Y-67378030D02*
X129461330Y-67358016D01*
X129461330Y-67358016D02*
X129469628Y-67343361D01*
X129469628Y-67343361D02*
X129473041Y-67338294D01*
X129473041Y-67338294D02*
X129475904Y-67334867D01*
X129475904Y-67334867D02*
X129478227Y-67333919D01*
X129478227Y-67333919D02*
X129482251Y-67334002D01*
X129482251Y-67334002D02*
X129495332Y-67337220D01*
X129495332Y-67337220D02*
X129515000Y-67344442D01*
X129515000Y-67344442D02*
X129541111Y-67355593D01*
X129541111Y-67355593D02*
X129573516Y-67370597D01*
X129573516Y-67370597D02*
X129612071Y-67389375D01*
X129612071Y-67389375D02*
X129707040Y-67437953D01*
X129707040Y-67437953D02*
X129824849Y-67500713D01*
X129824849Y-67500713D02*
X129964326Y-67577044D01*
X129964326Y-67577044D02*
X130124301Y-67666333D01*
X130124301Y-67666333D02*
X130303603Y-67767966D01*
X130303603Y-67767966D02*
X130621709Y-67951174D01*
X130621709Y-67951174D02*
X130871735Y-68100372D01*
X130871735Y-68100372D02*
X130974128Y-68164556D01*
X130974128Y-68164556D02*
X131062992Y-68223043D01*
X131062992Y-68223043D02*
X131139491Y-68276771D01*
X131139491Y-68276771D02*
X131204790Y-68326673D01*
X131204790Y-68326673D02*
X131260050Y-68373686D01*
X131260050Y-68373686D02*
X131306437Y-68418745D01*
X131306437Y-68418745D02*
X131345114Y-68462785D01*
X131345114Y-68462785D02*
X131377245Y-68506743D01*
X131377245Y-68506743D02*
X131403993Y-68551553D01*
X131403993Y-68551553D02*
X131426523Y-68598152D01*
X131426523Y-68598152D02*
X131445997Y-68647474D01*
X131445997Y-68647474D02*
X131463581Y-68700455D01*
X131463581Y-68700455D02*
X131472760Y-68731073D01*
X131472760Y-68731073D02*
X131480870Y-68760788D01*
X131480870Y-68760788D02*
X131487976Y-68790958D01*
X131487976Y-68790958D02*
X131494144Y-68822942D01*
X131494144Y-68822942D02*
X131499440Y-68858097D01*
X131499440Y-68858097D02*
X131503930Y-68897784D01*
X131503930Y-68897784D02*
X131507679Y-68943361D01*
X131507679Y-68943361D02*
X131510754Y-68996186D01*
X131510754Y-68996186D02*
X131513220Y-69057617D01*
X131513220Y-69057617D02*
X131515144Y-69129015D01*
X131515144Y-69129015D02*
X131516591Y-69211736D01*
X131516591Y-69211736D02*
X131517627Y-69307141D01*
X131517627Y-69307141D02*
X131518731Y-69541434D01*
X131518731Y-69541434D02*
X131518981Y-69842764D01*
X131518981Y-69842764D02*
X131518981Y-70805706D01*
X131518981Y-70805706D02*
X131432992Y-70803618D01*
X131432992Y-70803618D02*
X131415178Y-70803016D01*
X131415178Y-70803016D02*
X131397516Y-70802099D01*
X131397516Y-70802099D02*
X131380466Y-70800915D01*
X131380466Y-70800915D02*
X131364490Y-70799507D01*
X131364490Y-70799507D02*
X131350048Y-70797922D01*
X131350048Y-70797922D02*
X131337602Y-70796205D01*
X131337602Y-70796205D02*
X131327614Y-70794401D01*
X131327614Y-70794401D02*
X131323685Y-70793480D01*
X131323685Y-70793480D02*
X131320544Y-70792556D01*
X131320544Y-70792556D02*
X131320549Y-70792555D01*
X131320549Y-70792555D02*
X131320549Y-70792555D01*
G36*
X129482251Y-67334002D02*
G01*
X129495332Y-67337220D01*
X129515000Y-67344442D01*
X129541111Y-67355593D01*
X129573516Y-67370597D01*
X129612071Y-67389375D01*
X129707040Y-67437953D01*
X129824849Y-67500713D01*
X129964326Y-67577044D01*
X130124301Y-67666333D01*
X130303603Y-67767966D01*
X130621709Y-67951174D01*
X130871735Y-68100372D01*
X130974128Y-68164556D01*
X131062992Y-68223043D01*
X131139491Y-68276771D01*
X131204790Y-68326673D01*
X131260050Y-68373686D01*
X131306437Y-68418745D01*
X131345114Y-68462785D01*
X131377245Y-68506743D01*
X131403993Y-68551553D01*
X131426523Y-68598152D01*
X131445997Y-68647474D01*
X131463581Y-68700455D01*
X131472760Y-68731073D01*
X131480870Y-68760788D01*
X131487976Y-68790958D01*
X131494144Y-68822942D01*
X131499440Y-68858097D01*
X131503930Y-68897784D01*
X131507679Y-68943361D01*
X131510754Y-68996186D01*
X131513220Y-69057617D01*
X131515144Y-69129015D01*
X131516591Y-69211736D01*
X131517627Y-69307141D01*
X131518731Y-69541434D01*
X131518981Y-69842764D01*
X131518981Y-70805706D01*
X131432992Y-70803618D01*
X131415178Y-70803016D01*
X131397516Y-70802099D01*
X131380466Y-70800915D01*
X131364490Y-70799507D01*
X131350048Y-70797922D01*
X131337602Y-70796205D01*
X131327614Y-70794401D01*
X131323685Y-70793480D01*
X131320544Y-70792556D01*
X131320549Y-70792555D01*
X131313209Y-70790413D01*
X131302447Y-70787761D01*
X131288778Y-70784702D01*
X131272717Y-70781342D01*
X131254781Y-70777786D01*
X131235484Y-70774138D01*
X131215343Y-70770503D01*
X131194872Y-70766986D01*
X131095653Y-70750391D01*
X131095653Y-69880027D01*
X131093800Y-69540379D01*
X131088749Y-69260570D01*
X131081263Y-69069260D01*
X131076845Y-69015748D01*
X131074509Y-69001095D01*
X131072104Y-68995108D01*
X131070738Y-68994451D01*
X131069073Y-68993979D01*
X131067118Y-68993688D01*
X131064884Y-68993576D01*
X131059614Y-68993870D01*
X131053336Y-68994836D01*
X131046126Y-68996445D01*
X131038057Y-68998669D01*
X131029205Y-69001481D01*
X131019643Y-69004854D01*
X131009448Y-69008761D01*
X130998692Y-69013173D01*
X130987452Y-69018063D01*
X130975801Y-69023404D01*
X130963814Y-69029168D01*
X130951566Y-69035328D01*
X130939131Y-69041856D01*
X130926583Y-69048725D01*
X130804612Y-69116896D01*
X130804347Y-69266770D01*
X130801464Y-69331056D01*
X130793242Y-69392438D01*
X130779979Y-69450846D01*
X130761973Y-69506215D01*
X130739523Y-69558478D01*
X130712927Y-69607566D01*
X130682484Y-69653414D01*
X130648493Y-69695953D01*
X130611252Y-69735118D01*
X130571060Y-69770840D01*
X130528214Y-69803053D01*
X130483014Y-69831689D01*
X130435759Y-69856682D01*
X130386746Y-69877964D01*
X130336274Y-69895468D01*
X130284641Y-69909128D01*
X130232147Y-69918875D01*
X130179090Y-69924643D01*
X130125768Y-69926366D01*
X130072479Y-69923974D01*
X130019523Y-69917403D01*
X129967198Y-69906584D01*
X129915802Y-69891450D01*
X129865634Y-69871935D01*
X129816992Y-69847970D01*
X129770175Y-69819490D01*
X129725481Y-69786427D01*
X129683209Y-69748713D01*
X129643658Y-69706283D01*
X129607126Y-69659068D01*
X129573911Y-69607001D01*
X129544312Y-69550016D01*
X129526337Y-69508017D01*
X129511343Y-69465784D01*
X129499266Y-69423419D01*
X129490043Y-69381025D01*
X129483610Y-69338706D01*
X129479903Y-69296564D01*
X129478860Y-69254701D01*
X129480415Y-69213221D01*
X129484507Y-69172226D01*
X129491071Y-69131820D01*
X129500043Y-69092104D01*
X129511360Y-69053182D01*
X129524959Y-69015157D01*
X129540775Y-68978131D01*
X129558745Y-68942207D01*
X129578806Y-68907488D01*
X129600894Y-68874077D01*
X129624946Y-68842077D01*
X129650897Y-68811589D01*
X129678684Y-68782718D01*
X129708244Y-68755566D01*
X129739513Y-68730236D01*
X129772428Y-68706830D01*
X129806924Y-68685451D01*
X129842938Y-68666203D01*
X129880407Y-68649187D01*
X129919267Y-68634507D01*
X129959454Y-68622266D01*
X130000905Y-68612566D01*
X130043557Y-68605510D01*
X130087344Y-68601202D01*
X130132205Y-68599742D01*
X130155006Y-68599953D01*
X130176741Y-68600607D01*
X130197553Y-68601740D01*
X130217585Y-68603384D01*
X130236980Y-68605575D01*
X130255881Y-68608346D01*
X130274430Y-68611731D01*
X130292771Y-68615766D01*
X130311046Y-68620483D01*
X130329398Y-68625917D01*
X130347971Y-68632102D01*
X130366907Y-68639073D01*
X130386348Y-68646864D01*
X130406439Y-68655507D01*
X130427321Y-68665039D01*
X130449138Y-68675493D01*
X130603966Y-68751243D01*
X130718914Y-68687068D01*
X130730619Y-68680394D01*
X130741985Y-68673637D01*
X130752956Y-68666844D01*
X130763471Y-68660063D01*
X130773473Y-68653338D01*
X130782904Y-68646717D01*
X130791704Y-68640247D01*
X130799816Y-68633973D01*
X130807181Y-68627942D01*
X130813740Y-68622200D01*
X130819436Y-68616795D01*
X130824209Y-68611772D01*
X130828001Y-68607178D01*
X130830754Y-68603060D01*
X130832409Y-68599463D01*
X130832807Y-68597875D01*
X130832908Y-68596435D01*
X130831875Y-68594511D01*
X130828908Y-68591486D01*
X130817360Y-68582252D01*
X130798651Y-68568971D01*
X130773167Y-68551878D01*
X130703421Y-68507203D01*
X130611210Y-68450119D01*
X130499626Y-68382515D01*
X130371758Y-68306282D01*
X130230696Y-68223310D01*
X130079530Y-68135491D01*
X129327108Y-67701005D01*
X129389030Y-67530412D01*
X129401978Y-67495635D01*
X129415042Y-67462205D01*
X129427865Y-67430927D01*
X129440092Y-67402601D01*
X129451366Y-67378030D01*
X129461330Y-67358016D01*
X129469628Y-67343361D01*
X129473041Y-67338294D01*
X129475904Y-67334867D01*
X129478227Y-67333919D01*
X129482251Y-67334002D01*
G37*
X129482251Y-67334002D02*
X129495332Y-67337220D01*
X129515000Y-67344442D01*
X129541111Y-67355593D01*
X129573516Y-67370597D01*
X129612071Y-67389375D01*
X129707040Y-67437953D01*
X129824849Y-67500713D01*
X129964326Y-67577044D01*
X130124301Y-67666333D01*
X130303603Y-67767966D01*
X130621709Y-67951174D01*
X130871735Y-68100372D01*
X130974128Y-68164556D01*
X131062992Y-68223043D01*
X131139491Y-68276771D01*
X131204790Y-68326673D01*
X131260050Y-68373686D01*
X131306437Y-68418745D01*
X131345114Y-68462785D01*
X131377245Y-68506743D01*
X131403993Y-68551553D01*
X131426523Y-68598152D01*
X131445997Y-68647474D01*
X131463581Y-68700455D01*
X131472760Y-68731073D01*
X131480870Y-68760788D01*
X131487976Y-68790958D01*
X131494144Y-68822942D01*
X131499440Y-68858097D01*
X131503930Y-68897784D01*
X131507679Y-68943361D01*
X131510754Y-68996186D01*
X131513220Y-69057617D01*
X131515144Y-69129015D01*
X131516591Y-69211736D01*
X131517627Y-69307141D01*
X131518731Y-69541434D01*
X131518981Y-69842764D01*
X131518981Y-70805706D01*
X131432992Y-70803618D01*
X131415178Y-70803016D01*
X131397516Y-70802099D01*
X131380466Y-70800915D01*
X131364490Y-70799507D01*
X131350048Y-70797922D01*
X131337602Y-70796205D01*
X131327614Y-70794401D01*
X131323685Y-70793480D01*
X131320544Y-70792556D01*
X131320549Y-70792555D01*
X131313209Y-70790413D01*
X131302447Y-70787761D01*
X131288778Y-70784702D01*
X131272717Y-70781342D01*
X131254781Y-70777786D01*
X131235484Y-70774138D01*
X131215343Y-70770503D01*
X131194872Y-70766986D01*
X131095653Y-70750391D01*
X131095653Y-69880027D01*
X131093800Y-69540379D01*
X131088749Y-69260570D01*
X131081263Y-69069260D01*
X131076845Y-69015748D01*
X131074509Y-69001095D01*
X131072104Y-68995108D01*
X131070738Y-68994451D01*
X131069073Y-68993979D01*
X131067118Y-68993688D01*
X131064884Y-68993576D01*
X131059614Y-68993870D01*
X131053336Y-68994836D01*
X131046126Y-68996445D01*
X131038057Y-68998669D01*
X131029205Y-69001481D01*
X131019643Y-69004854D01*
X131009448Y-69008761D01*
X130998692Y-69013173D01*
X130987452Y-69018063D01*
X130975801Y-69023404D01*
X130963814Y-69029168D01*
X130951566Y-69035328D01*
X130939131Y-69041856D01*
X130926583Y-69048725D01*
X130804612Y-69116896D01*
X130804347Y-69266770D01*
X130801464Y-69331056D01*
X130793242Y-69392438D01*
X130779979Y-69450846D01*
X130761973Y-69506215D01*
X130739523Y-69558478D01*
X130712927Y-69607566D01*
X130682484Y-69653414D01*
X130648493Y-69695953D01*
X130611252Y-69735118D01*
X130571060Y-69770840D01*
X130528214Y-69803053D01*
X130483014Y-69831689D01*
X130435759Y-69856682D01*
X130386746Y-69877964D01*
X130336274Y-69895468D01*
X130284641Y-69909128D01*
X130232147Y-69918875D01*
X130179090Y-69924643D01*
X130125768Y-69926366D01*
X130072479Y-69923974D01*
X130019523Y-69917403D01*
X129967198Y-69906584D01*
X129915802Y-69891450D01*
X129865634Y-69871935D01*
X129816992Y-69847970D01*
X129770175Y-69819490D01*
X129725481Y-69786427D01*
X129683209Y-69748713D01*
X129643658Y-69706283D01*
X129607126Y-69659068D01*
X129573911Y-69607001D01*
X129544312Y-69550016D01*
X129526337Y-69508017D01*
X129511343Y-69465784D01*
X129499266Y-69423419D01*
X129490043Y-69381025D01*
X129483610Y-69338706D01*
X129479903Y-69296564D01*
X129478860Y-69254701D01*
X129480415Y-69213221D01*
X129484507Y-69172226D01*
X129491071Y-69131820D01*
X129500043Y-69092104D01*
X129511360Y-69053182D01*
X129524959Y-69015157D01*
X129540775Y-68978131D01*
X129558745Y-68942207D01*
X129578806Y-68907488D01*
X129600894Y-68874077D01*
X129624946Y-68842077D01*
X129650897Y-68811589D01*
X129678684Y-68782718D01*
X129708244Y-68755566D01*
X129739513Y-68730236D01*
X129772428Y-68706830D01*
X129806924Y-68685451D01*
X129842938Y-68666203D01*
X129880407Y-68649187D01*
X129919267Y-68634507D01*
X129959454Y-68622266D01*
X130000905Y-68612566D01*
X130043557Y-68605510D01*
X130087344Y-68601202D01*
X130132205Y-68599742D01*
X130155006Y-68599953D01*
X130176741Y-68600607D01*
X130197553Y-68601740D01*
X130217585Y-68603384D01*
X130236980Y-68605575D01*
X130255881Y-68608346D01*
X130274430Y-68611731D01*
X130292771Y-68615766D01*
X130311046Y-68620483D01*
X130329398Y-68625917D01*
X130347971Y-68632102D01*
X130366907Y-68639073D01*
X130386348Y-68646864D01*
X130406439Y-68655507D01*
X130427321Y-68665039D01*
X130449138Y-68675493D01*
X130603966Y-68751243D01*
X130718914Y-68687068D01*
X130730619Y-68680394D01*
X130741985Y-68673637D01*
X130752956Y-68666844D01*
X130763471Y-68660063D01*
X130773473Y-68653338D01*
X130782904Y-68646717D01*
X130791704Y-68640247D01*
X130799816Y-68633973D01*
X130807181Y-68627942D01*
X130813740Y-68622200D01*
X130819436Y-68616795D01*
X130824209Y-68611772D01*
X130828001Y-68607178D01*
X130830754Y-68603060D01*
X130832409Y-68599463D01*
X130832807Y-68597875D01*
X130832908Y-68596435D01*
X130831875Y-68594511D01*
X130828908Y-68591486D01*
X130817360Y-68582252D01*
X130798651Y-68568971D01*
X130773167Y-68551878D01*
X130703421Y-68507203D01*
X130611210Y-68450119D01*
X130499626Y-68382515D01*
X130371758Y-68306282D01*
X130230696Y-68223310D01*
X130079530Y-68135491D01*
X129327108Y-67701005D01*
X129389030Y-67530412D01*
X129401978Y-67495635D01*
X129415042Y-67462205D01*
X129427865Y-67430927D01*
X129440092Y-67402601D01*
X129451366Y-67378030D01*
X129461330Y-67358016D01*
X129469628Y-67343361D01*
X129473041Y-67338294D01*
X129475904Y-67334867D01*
X129478227Y-67333919D01*
X129482251Y-67334002D01*
X130303938Y-69431908D02*
X130315749Y-69419456D01*
X130315749Y-69419456D02*
X130326599Y-69406707D01*
X130326599Y-69406707D02*
X130336493Y-69393694D01*
X130336493Y-69393694D02*
X130345437Y-69380448D01*
X130345437Y-69380448D02*
X130353438Y-69367000D01*
X130353438Y-69367000D02*
X130360500Y-69353382D01*
X130360500Y-69353382D02*
X130366630Y-69339627D01*
X130366630Y-69339627D02*
X130371834Y-69325765D01*
X130371834Y-69325765D02*
X130376116Y-69311829D01*
X130376116Y-69311829D02*
X130379483Y-69297849D01*
X130379483Y-69297849D02*
X130381941Y-69283859D01*
X130381941Y-69283859D02*
X130383494Y-69269889D01*
X130383494Y-69269889D02*
X130384150Y-69255972D01*
X130384150Y-69255972D02*
X130383914Y-69242138D01*
X130383914Y-69242138D02*
X130382791Y-69228420D01*
X130382791Y-69228420D02*
X130380787Y-69214850D01*
X130380787Y-69214850D02*
X130377909Y-69201458D01*
X130377909Y-69201458D02*
X130374161Y-69188277D01*
X130374161Y-69188277D02*
X130369549Y-69175339D01*
X130369549Y-69175339D02*
X130364080Y-69162675D01*
X130364080Y-69162675D02*
X130357758Y-69150317D01*
X130357758Y-69150317D02*
X130350590Y-69138296D01*
X130350590Y-69138296D02*
X130342582Y-69126645D01*
X130342582Y-69126645D02*
X130333739Y-69115394D01*
X130333739Y-69115394D02*
X130324067Y-69104577D01*
X130324067Y-69104577D02*
X130313571Y-69094223D01*
X130313571Y-69094223D02*
X130302258Y-69084366D01*
X130302258Y-69084366D02*
X130290132Y-69075037D01*
X130290132Y-69075037D02*
X130277201Y-69066267D01*
X130277201Y-69066267D02*
X130263469Y-69058088D01*
X130263469Y-69058088D02*
X130248943Y-69050533D01*
X130248943Y-69050533D02*
X130233628Y-69043632D01*
X130233628Y-69043632D02*
X130219534Y-69037872D01*
X130219534Y-69037872D02*
X130206555Y-69032881D01*
X130206555Y-69032881D02*
X130194530Y-69028657D01*
X130194530Y-69028657D02*
X130183300Y-69025202D01*
X130183300Y-69025202D02*
X130172706Y-69022514D01*
X130172706Y-69022514D02*
X130162590Y-69020594D01*
X130162590Y-69020594D02*
X130152792Y-69019442D01*
X130152792Y-69019442D02*
X130143153Y-69019058D01*
X130143153Y-69019058D02*
X130133514Y-69019442D01*
X130133514Y-69019442D02*
X130123716Y-69020594D01*
X130123716Y-69020594D02*
X130113600Y-69022514D01*
X130113600Y-69022514D02*
X130103007Y-69025202D01*
X130103007Y-69025202D02*
X130091777Y-69028657D01*
X130091777Y-69028657D02*
X130079752Y-69032881D01*
X130079752Y-69032881D02*
X130066772Y-69037872D01*
X130066772Y-69037872D02*
X130052679Y-69043632D01*
X130052679Y-69043632D02*
X130037363Y-69050533D01*
X130037363Y-69050533D02*
X130022837Y-69058088D01*
X130022837Y-69058088D02*
X130009105Y-69066267D01*
X130009105Y-69066267D02*
X129996174Y-69075037D01*
X129996174Y-69075037D02*
X129984049Y-69084366D01*
X129984049Y-69084366D02*
X129972736Y-69094223D01*
X129972736Y-69094223D02*
X129962240Y-69104577D01*
X129962240Y-69104577D02*
X129952568Y-69115394D01*
X129952568Y-69115394D02*
X129943724Y-69126645D01*
X129943724Y-69126645D02*
X129935716Y-69138296D01*
X129935716Y-69138296D02*
X129928548Y-69150317D01*
X129928548Y-69150317D02*
X129922227Y-69162675D01*
X129922227Y-69162675D02*
X129916757Y-69175339D01*
X129916757Y-69175339D02*
X129912146Y-69188277D01*
X129912146Y-69188277D02*
X129908398Y-69201458D01*
X129908398Y-69201458D02*
X129905519Y-69214850D01*
X129905519Y-69214850D02*
X129903515Y-69228420D01*
X129903515Y-69228420D02*
X129902392Y-69242138D01*
X129902392Y-69242138D02*
X129902156Y-69255972D01*
X129902156Y-69255972D02*
X129902812Y-69269889D01*
X129902812Y-69269889D02*
X129904366Y-69283859D01*
X129904366Y-69283859D02*
X129906823Y-69297849D01*
X129906823Y-69297849D02*
X129910190Y-69311829D01*
X129910190Y-69311829D02*
X129914473Y-69325765D01*
X129914473Y-69325765D02*
X129919676Y-69339627D01*
X129919676Y-69339627D02*
X129925806Y-69353382D01*
X129925806Y-69353382D02*
X129932868Y-69367000D01*
X129932868Y-69367000D02*
X129940869Y-69380448D01*
X129940869Y-69380448D02*
X129949814Y-69393694D01*
X129949814Y-69393694D02*
X129959708Y-69406707D01*
X129959708Y-69406707D02*
X129970557Y-69419456D01*
X129970557Y-69419456D02*
X129982368Y-69431908D01*
X129982368Y-69431908D02*
X129992144Y-69441352D01*
X129992144Y-69441352D02*
X130001973Y-69450186D01*
X130001973Y-69450186D02*
X130011851Y-69458411D01*
X130011851Y-69458411D02*
X130021775Y-69466027D01*
X130021775Y-69466027D02*
X130031741Y-69473033D01*
X130031741Y-69473033D02*
X130041746Y-69479431D01*
X130041746Y-69479431D02*
X130051786Y-69485219D01*
X130051786Y-69485219D02*
X130061858Y-69490397D01*
X130061858Y-69490397D02*
X130071958Y-69494967D01*
X130071958Y-69494967D02*
X130082083Y-69498927D01*
X130082083Y-69498927D02*
X130092229Y-69502278D01*
X130092229Y-69502278D02*
X130102393Y-69505020D01*
X130102393Y-69505020D02*
X130112571Y-69507152D01*
X130112571Y-69507152D02*
X130122759Y-69508675D01*
X130122759Y-69508675D02*
X130132954Y-69509589D01*
X130132954Y-69509589D02*
X130143153Y-69509894D01*
X130143153Y-69509894D02*
X130153352Y-69509589D01*
X130153352Y-69509589D02*
X130163548Y-69508675D01*
X130163548Y-69508675D02*
X130173736Y-69507152D01*
X130173736Y-69507152D02*
X130183914Y-69505020D01*
X130183914Y-69505020D02*
X130194077Y-69502278D01*
X130194077Y-69502278D02*
X130204223Y-69498927D01*
X130204223Y-69498927D02*
X130214348Y-69494967D01*
X130214348Y-69494967D02*
X130224448Y-69490397D01*
X130224448Y-69490397D02*
X130234520Y-69485219D01*
X130234520Y-69485219D02*
X130244561Y-69479431D01*
X130244561Y-69479431D02*
X130254566Y-69473033D01*
X130254566Y-69473033D02*
X130264532Y-69466027D01*
X130264532Y-69466027D02*
X130274456Y-69458411D01*
X130274456Y-69458411D02*
X130284334Y-69450186D01*
X130284334Y-69450186D02*
X130294163Y-69441352D01*
X130294163Y-69441352D02*
X130303938Y-69431908D01*
X130303938Y-69431908D02*
X130303938Y-69431908D01*
G36*
X130152792Y-69019442D02*
G01*
X130162590Y-69020594D01*
X130172706Y-69022514D01*
X130183300Y-69025202D01*
X130194530Y-69028657D01*
X130206555Y-69032881D01*
X130219534Y-69037872D01*
X130233628Y-69043632D01*
X130248943Y-69050533D01*
X130263469Y-69058088D01*
X130277201Y-69066267D01*
X130290132Y-69075037D01*
X130302258Y-69084366D01*
X130313571Y-69094223D01*
X130324067Y-69104577D01*
X130333739Y-69115394D01*
X130342582Y-69126645D01*
X130350590Y-69138296D01*
X130357758Y-69150317D01*
X130364080Y-69162675D01*
X130369549Y-69175339D01*
X130374161Y-69188277D01*
X130377909Y-69201458D01*
X130380787Y-69214850D01*
X130382791Y-69228420D01*
X130383914Y-69242138D01*
X130384150Y-69255972D01*
X130383494Y-69269889D01*
X130381941Y-69283859D01*
X130379483Y-69297849D01*
X130376116Y-69311829D01*
X130371834Y-69325765D01*
X130366630Y-69339627D01*
X130360500Y-69353382D01*
X130353438Y-69367000D01*
X130345437Y-69380448D01*
X130336493Y-69393694D01*
X130326599Y-69406707D01*
X130315749Y-69419456D01*
X130303938Y-69431908D01*
X130294163Y-69441352D01*
X130284334Y-69450186D01*
X130274456Y-69458411D01*
X130264532Y-69466027D01*
X130254566Y-69473033D01*
X130244561Y-69479431D01*
X130234520Y-69485219D01*
X130224448Y-69490397D01*
X130214348Y-69494967D01*
X130204223Y-69498927D01*
X130194077Y-69502278D01*
X130183914Y-69505020D01*
X130173736Y-69507152D01*
X130163548Y-69508675D01*
X130153352Y-69509589D01*
X130143153Y-69509894D01*
X130132954Y-69509589D01*
X130122759Y-69508675D01*
X130112571Y-69507152D01*
X130102393Y-69505020D01*
X130092229Y-69502278D01*
X130082083Y-69498927D01*
X130071958Y-69494967D01*
X130061858Y-69490397D01*
X130051786Y-69485219D01*
X130041746Y-69479431D01*
X130031741Y-69473033D01*
X130021775Y-69466027D01*
X130011851Y-69458411D01*
X130001973Y-69450186D01*
X129992144Y-69441352D01*
X129982368Y-69431908D01*
X129970557Y-69419456D01*
X129959708Y-69406707D01*
X129949814Y-69393694D01*
X129940869Y-69380448D01*
X129932868Y-69367000D01*
X129925806Y-69353382D01*
X129919676Y-69339627D01*
X129914473Y-69325765D01*
X129910190Y-69311829D01*
X129906823Y-69297849D01*
X129904366Y-69283859D01*
X129902812Y-69269889D01*
X129902156Y-69255972D01*
X129902392Y-69242138D01*
X129903515Y-69228420D01*
X129905519Y-69214850D01*
X129908398Y-69201458D01*
X129912146Y-69188277D01*
X129916757Y-69175339D01*
X129922227Y-69162675D01*
X129928548Y-69150317D01*
X129935716Y-69138296D01*
X129943724Y-69126645D01*
X129952568Y-69115394D01*
X129962240Y-69104577D01*
X129972736Y-69094223D01*
X129984049Y-69084366D01*
X129996174Y-69075037D01*
X130009105Y-69066267D01*
X130022837Y-69058088D01*
X130037363Y-69050533D01*
X130052679Y-69043632D01*
X130066772Y-69037872D01*
X130079752Y-69032881D01*
X130091777Y-69028657D01*
X130103007Y-69025202D01*
X130113600Y-69022514D01*
X130123716Y-69020594D01*
X130133514Y-69019442D01*
X130143153Y-69019058D01*
X130152792Y-69019442D01*
G37*
X130152792Y-69019442D02*
X130162590Y-69020594D01*
X130172706Y-69022514D01*
X130183300Y-69025202D01*
X130194530Y-69028657D01*
X130206555Y-69032881D01*
X130219534Y-69037872D01*
X130233628Y-69043632D01*
X130248943Y-69050533D01*
X130263469Y-69058088D01*
X130277201Y-69066267D01*
X130290132Y-69075037D01*
X130302258Y-69084366D01*
X130313571Y-69094223D01*
X130324067Y-69104577D01*
X130333739Y-69115394D01*
X130342582Y-69126645D01*
X130350590Y-69138296D01*
X130357758Y-69150317D01*
X130364080Y-69162675D01*
X130369549Y-69175339D01*
X130374161Y-69188277D01*
X130377909Y-69201458D01*
X130380787Y-69214850D01*
X130382791Y-69228420D01*
X130383914Y-69242138D01*
X130384150Y-69255972D01*
X130383494Y-69269889D01*
X130381941Y-69283859D01*
X130379483Y-69297849D01*
X130376116Y-69311829D01*
X130371834Y-69325765D01*
X130366630Y-69339627D01*
X130360500Y-69353382D01*
X130353438Y-69367000D01*
X130345437Y-69380448D01*
X130336493Y-69393694D01*
X130326599Y-69406707D01*
X130315749Y-69419456D01*
X130303938Y-69431908D01*
X130294163Y-69441352D01*
X130284334Y-69450186D01*
X130274456Y-69458411D01*
X130264532Y-69466027D01*
X130254566Y-69473033D01*
X130244561Y-69479431D01*
X130234520Y-69485219D01*
X130224448Y-69490397D01*
X130214348Y-69494967D01*
X130204223Y-69498927D01*
X130194077Y-69502278D01*
X130183914Y-69505020D01*
X130173736Y-69507152D01*
X130163548Y-69508675D01*
X130153352Y-69509589D01*
X130143153Y-69509894D01*
X130132954Y-69509589D01*
X130122759Y-69508675D01*
X130112571Y-69507152D01*
X130102393Y-69505020D01*
X130092229Y-69502278D01*
X130082083Y-69498927D01*
X130071958Y-69494967D01*
X130061858Y-69490397D01*
X130051786Y-69485219D01*
X130041746Y-69479431D01*
X130031741Y-69473033D01*
X130021775Y-69466027D01*
X130011851Y-69458411D01*
X130001973Y-69450186D01*
X129992144Y-69441352D01*
X129982368Y-69431908D01*
X129970557Y-69419456D01*
X129959708Y-69406707D01*
X129949814Y-69393694D01*
X129940869Y-69380448D01*
X129932868Y-69367000D01*
X129925806Y-69353382D01*
X129919676Y-69339627D01*
X129914473Y-69325765D01*
X129910190Y-69311829D01*
X129906823Y-69297849D01*
X129904366Y-69283859D01*
X129902812Y-69269889D01*
X129902156Y-69255972D01*
X129902392Y-69242138D01*
X129903515Y-69228420D01*
X129905519Y-69214850D01*
X129908398Y-69201458D01*
X129912146Y-69188277D01*
X129916757Y-69175339D01*
X129922227Y-69162675D01*
X129928548Y-69150317D01*
X129935716Y-69138296D01*
X129943724Y-69126645D01*
X129952568Y-69115394D01*
X129962240Y-69104577D01*
X129972736Y-69094223D01*
X129984049Y-69084366D01*
X129996174Y-69075037D01*
X130009105Y-69066267D01*
X130022837Y-69058088D01*
X130037363Y-69050533D01*
X130052679Y-69043632D01*
X130066772Y-69037872D01*
X130079752Y-69032881D01*
X130091777Y-69028657D01*
X130103007Y-69025202D01*
X130113600Y-69022514D01*
X130123716Y-69020594D01*
X130133514Y-69019442D01*
X130143153Y-69019058D01*
X130152792Y-69019442D01*
X131381648Y-68016847D02*
X131287889Y-67968829D01*
X131287889Y-67968829D02*
X131086278Y-67858282D01*
X131086278Y-67858282D02*
X130504614Y-67531781D01*
X130504614Y-67531781D02*
X129926893Y-67201710D01*
X129926893Y-67201710D02*
X129730210Y-67086698D01*
X129730210Y-67086698D02*
X129643351Y-67032431D01*
X129643351Y-67032431D02*
X129642547Y-67030356D01*
X129642547Y-67030356D02*
X129643074Y-67026768D01*
X129643074Y-67026768D02*
X129647808Y-67015454D01*
X129647808Y-67015454D02*
X129656927Y-66999295D01*
X129656927Y-66999295D02*
X129669806Y-66979096D01*
X129669806Y-66979096D02*
X129685818Y-66955664D01*
X129685818Y-66955664D02*
X129704338Y-66929804D01*
X129704338Y-66929804D02*
X129746400Y-66874025D01*
X129746400Y-66874025D02*
X129790985Y-66818207D01*
X129790985Y-66818207D02*
X129812659Y-66792298D01*
X129812659Y-66792298D02*
X129833087Y-66768797D01*
X129833087Y-66768797D02*
X129851642Y-66748511D01*
X129851642Y-66748511D02*
X129867700Y-66732244D01*
X129867700Y-66732244D02*
X129880634Y-66720802D01*
X129880634Y-66720802D02*
X129885734Y-66717143D01*
X129885734Y-66717143D02*
X129889818Y-66714993D01*
X129889818Y-66714993D02*
X129892499Y-66714890D01*
X129892499Y-66714890D02*
X129897050Y-66715892D01*
X129897050Y-66715892D02*
X129911570Y-66721101D01*
X129911570Y-66721101D02*
X129932981Y-66730408D01*
X129932981Y-66730408D02*
X129960891Y-66743601D01*
X129960891Y-66743601D02*
X130034627Y-66780801D01*
X130034627Y-66780801D02*
X130129622Y-66831006D01*
X130129622Y-66831006D02*
X130242721Y-66892522D01*
X130242721Y-66892522D02*
X130370769Y-66963655D01*
X130370769Y-66963655D02*
X130510611Y-67042712D01*
X130510611Y-67042712D02*
X130659091Y-67127998D01*
X130659091Y-67127998D02*
X130947577Y-67292277D01*
X130947577Y-67292277D02*
X131189173Y-67424754D01*
X131189173Y-67424754D02*
X131284478Y-67474840D01*
X131284478Y-67474840D02*
X131358569Y-67511904D01*
X131358569Y-67511904D02*
X131408282Y-67534255D01*
X131408282Y-67534255D02*
X131423008Y-67539384D01*
X131423008Y-67539384D02*
X131430453Y-67540201D01*
X131430453Y-67540201D02*
X131432596Y-67539246D01*
X131432596Y-67539246D02*
X131434675Y-67538049D01*
X131434675Y-67538049D02*
X131436691Y-67536611D01*
X131436691Y-67536611D02*
X131438642Y-67534935D01*
X131438642Y-67534935D02*
X131440530Y-67533021D01*
X131440530Y-67533021D02*
X131442352Y-67530870D01*
X131442352Y-67530870D02*
X131444110Y-67528484D01*
X131444110Y-67528484D02*
X131445803Y-67525864D01*
X131445803Y-67525864D02*
X131447430Y-67523012D01*
X131447430Y-67523012D02*
X131448991Y-67519927D01*
X131448991Y-67519927D02*
X131450486Y-67516612D01*
X131450486Y-67516612D02*
X131451915Y-67513068D01*
X131451915Y-67513068D02*
X131453277Y-67509295D01*
X131453277Y-67509295D02*
X131454572Y-67505297D01*
X131454572Y-67505297D02*
X131455799Y-67501072D01*
X131455799Y-67501072D02*
X131456959Y-67496623D01*
X131456959Y-67496623D02*
X131459075Y-67487058D01*
X131459075Y-67487058D02*
X131460916Y-67476610D01*
X131460916Y-67476610D02*
X131462481Y-67465289D01*
X131462481Y-67465289D02*
X131463766Y-67453105D01*
X131463766Y-67453105D02*
X131464770Y-67440068D01*
X131464770Y-67440068D02*
X131465491Y-67426188D01*
X131465491Y-67426188D02*
X131465925Y-67411475D01*
X131465925Y-67411475D02*
X131466070Y-67395937D01*
X131466070Y-67395937D02*
X131465774Y-67352806D01*
X131465774Y-67352806D02*
X131465100Y-67335028D01*
X131465100Y-67335028D02*
X131463805Y-67319368D01*
X131463805Y-67319368D02*
X131462861Y-67312238D01*
X131462861Y-67312238D02*
X131461685Y-67305525D01*
X131461685Y-67305525D02*
X131460253Y-67299189D01*
X131460253Y-67299189D02*
X131458538Y-67293193D01*
X131458538Y-67293193D02*
X131456516Y-67287500D01*
X131456516Y-67287500D02*
X131454161Y-67282070D01*
X131454161Y-67282070D02*
X131451448Y-67276867D01*
X131451448Y-67276867D02*
X131448351Y-67271852D01*
X131448351Y-67271852D02*
X131444845Y-67266988D01*
X131444845Y-67266988D02*
X131440905Y-67262236D01*
X131440905Y-67262236D02*
X131436504Y-67257558D01*
X131436504Y-67257558D02*
X131431619Y-67252916D01*
X131431619Y-67252916D02*
X131426223Y-67248274D01*
X131426223Y-67248274D02*
X131420292Y-67243591D01*
X131420292Y-67243591D02*
X131406719Y-67233956D01*
X131406719Y-67233956D02*
X131390699Y-67223708D01*
X131390699Y-67223708D02*
X131372028Y-67212543D01*
X131372028Y-67212543D02*
X131325922Y-67186246D01*
X131325922Y-67186246D02*
X131300995Y-67171417D01*
X131300995Y-67171417D02*
X131276891Y-67155550D01*
X131276891Y-67155550D02*
X131253627Y-67138690D01*
X131253627Y-67138690D02*
X131231219Y-67120878D01*
X131231219Y-67120878D02*
X131209685Y-67102159D01*
X131209685Y-67102159D02*
X131189041Y-67082575D01*
X131189041Y-67082575D02*
X131169305Y-67062170D01*
X131169305Y-67062170D02*
X131150493Y-67040985D01*
X131150493Y-67040985D02*
X131132623Y-67019066D01*
X131132623Y-67019066D02*
X131115711Y-66996453D01*
X131115711Y-66996453D02*
X131099775Y-66973192D01*
X131099775Y-66973192D02*
X131084831Y-66949324D01*
X131084831Y-66949324D02*
X131070896Y-66924893D01*
X131070896Y-66924893D02*
X131057988Y-66899941D01*
X131057988Y-66899941D02*
X131046123Y-66874513D01*
X131046123Y-66874513D02*
X131035318Y-66848650D01*
X131035318Y-66848650D02*
X131025590Y-66822397D01*
X131025590Y-66822397D02*
X131016956Y-66795795D01*
X131016956Y-66795795D02*
X131009434Y-66768889D01*
X131009434Y-66768889D02*
X131003040Y-66741720D01*
X131003040Y-66741720D02*
X130997790Y-66714333D01*
X130997790Y-66714333D02*
X130993703Y-66686771D01*
X130993703Y-66686771D02*
X130990795Y-66659076D01*
X130990795Y-66659076D02*
X130989083Y-66631291D01*
X130989083Y-66631291D02*
X130988583Y-66603459D01*
X130988583Y-66603459D02*
X130989314Y-66575625D01*
X130989314Y-66575625D02*
X130991291Y-66547830D01*
X130991291Y-66547830D02*
X130994532Y-66520117D01*
X130994532Y-66520117D02*
X130999054Y-66492531D01*
X130999054Y-66492531D02*
X131004874Y-66465113D01*
X131004874Y-66465113D02*
X131012009Y-66437907D01*
X131012009Y-66437907D02*
X131020475Y-66410956D01*
X131020475Y-66410956D02*
X131031727Y-66380402D01*
X131031727Y-66380402D02*
X131044361Y-66350627D01*
X131044361Y-66350627D02*
X131058326Y-66321661D01*
X131058326Y-66321661D02*
X131073570Y-66293531D01*
X131073570Y-66293531D02*
X131090043Y-66266269D01*
X131090043Y-66266269D02*
X131107692Y-66239901D01*
X131107692Y-66239901D02*
X131126468Y-66214458D01*
X131126468Y-66214458D02*
X131146318Y-66189969D01*
X131146318Y-66189969D02*
X131167192Y-66166461D01*
X131167192Y-66166461D02*
X131189038Y-66143965D01*
X131189038Y-66143965D02*
X131211804Y-66122509D01*
X131211804Y-66122509D02*
X131235441Y-66102122D01*
X131235441Y-66102122D02*
X131259896Y-66082833D01*
X131259896Y-66082833D02*
X131285118Y-66064671D01*
X131285118Y-66064671D02*
X131311056Y-66047665D01*
X131311056Y-66047665D02*
X131337659Y-66031845D01*
X131337659Y-66031845D02*
X131364876Y-66017238D01*
X131364876Y-66017238D02*
X131392655Y-66003874D01*
X131392655Y-66003874D02*
X131420944Y-65991782D01*
X131420944Y-65991782D02*
X131449694Y-65980991D01*
X131449694Y-65980991D02*
X131478852Y-65971530D01*
X131478852Y-65971530D02*
X131508368Y-65963427D01*
X131508368Y-65963427D02*
X131538190Y-65956713D01*
X131538190Y-65956713D02*
X131568267Y-65951415D01*
X131568267Y-65951415D02*
X131598547Y-65947563D01*
X131598547Y-65947563D02*
X131628980Y-65945185D01*
X131628980Y-65945185D02*
X131659514Y-65944311D01*
X131659514Y-65944311D02*
X131690098Y-65944970D01*
X131690098Y-65944970D02*
X131720681Y-65947190D01*
X131720681Y-65947190D02*
X131751211Y-65951000D01*
X131751211Y-65951000D02*
X131781638Y-65956431D01*
X131781638Y-65956431D02*
X131811909Y-65963509D01*
X131811909Y-65963509D02*
X131865709Y-65979689D01*
X131865709Y-65979689D02*
X131916679Y-65999155D01*
X131916679Y-65999155D02*
X131964794Y-66021721D01*
X131964794Y-66021721D02*
X132010026Y-66047201D01*
X132010026Y-66047201D02*
X132052346Y-66075408D01*
X132052346Y-66075408D02*
X132091727Y-66106155D01*
X132091727Y-66106155D02*
X132128142Y-66139258D01*
X132128142Y-66139258D02*
X132161562Y-66174529D01*
X132161562Y-66174529D02*
X132191961Y-66211781D01*
X132191961Y-66211781D02*
X132219310Y-66250830D01*
X132219310Y-66250830D02*
X132243582Y-66291487D01*
X132243582Y-66291487D02*
X132264749Y-66333568D01*
X132264749Y-66333568D02*
X132282783Y-66376885D01*
X132282783Y-66376885D02*
X132297658Y-66421253D01*
X132297658Y-66421253D02*
X132309345Y-66466484D01*
X132309345Y-66466484D02*
X132317816Y-66512393D01*
X132317816Y-66512393D02*
X132323044Y-66558793D01*
X132323044Y-66558793D02*
X132325002Y-66605499D01*
X132325002Y-66605499D02*
X132323661Y-66652322D01*
X132323661Y-66652322D02*
X132318994Y-66699079D01*
X132318994Y-66699079D02*
X132310974Y-66745581D01*
X132310974Y-66745581D02*
X132299572Y-66791642D01*
X132299572Y-66791642D02*
X132284761Y-66837077D01*
X132284761Y-66837077D02*
X132266513Y-66881699D01*
X132266513Y-66881699D02*
X132244801Y-66925322D01*
X132244801Y-66925322D02*
X132219597Y-66967759D01*
X132219597Y-66967759D02*
X132190874Y-67008824D01*
X132190874Y-67008824D02*
X132158603Y-67048330D01*
X132158603Y-67048330D02*
X132122758Y-67086092D01*
X132122758Y-67086092D02*
X132083309Y-67121922D01*
X132083309Y-67121922D02*
X132040231Y-67155636D01*
X132040231Y-67155636D02*
X131993495Y-67187045D01*
X131993495Y-67187045D02*
X131950547Y-67214042D01*
X131950547Y-67214042D02*
X131933155Y-67225534D01*
X131933155Y-67225534D02*
X131918232Y-67236119D01*
X131918232Y-67236119D02*
X131905589Y-67246120D01*
X131905589Y-67246120D02*
X131900064Y-67251001D01*
X131900064Y-67251001D02*
X131895037Y-67255858D01*
X131895037Y-67255858D02*
X131890487Y-67260729D01*
X131890487Y-67260729D02*
X131886388Y-67265656D01*
X131886388Y-67265656D02*
X131882717Y-67270679D01*
X131882717Y-67270679D02*
X131879451Y-67275837D01*
X131879451Y-67275837D02*
X131876566Y-67281172D01*
X131876566Y-67281172D02*
X131874039Y-67286724D01*
X131874039Y-67286724D02*
X131871845Y-67292532D01*
X131871845Y-67292532D02*
X131869961Y-67298638D01*
X131869961Y-67298638D02*
X131868364Y-67305081D01*
X131868364Y-67305081D02*
X131867030Y-67311902D01*
X131867030Y-67311902D02*
X131865935Y-67319142D01*
X131865935Y-67319142D02*
X131865055Y-67326839D01*
X131865055Y-67326839D02*
X131863848Y-67343772D01*
X131863848Y-67343772D02*
X131863220Y-67363022D01*
X131863220Y-67363022D02*
X131862945Y-67409765D01*
X131862945Y-67409765D02*
X131863464Y-67441802D01*
X131863464Y-67441802D02*
X131864107Y-67456398D01*
X131864107Y-67456398D02*
X131865001Y-67470022D01*
X131865001Y-67470022D02*
X131866141Y-67482656D01*
X131866141Y-67482656D02*
X131867525Y-67494284D01*
X131867525Y-67494284D02*
X131869147Y-67504887D01*
X131869147Y-67504887D02*
X131871005Y-67514448D01*
X131871005Y-67514448D02*
X131873094Y-67522950D01*
X131873094Y-67522950D02*
X131875412Y-67530374D01*
X131875412Y-67530374D02*
X131877952Y-67536705D01*
X131877952Y-67536705D02*
X131880713Y-67541924D01*
X131880713Y-67541924D02*
X131883691Y-67546013D01*
X131883691Y-67546013D02*
X131886880Y-67548956D01*
X131886880Y-67548956D02*
X131888554Y-67549992D01*
X131888554Y-67549992D02*
X131890278Y-67550734D01*
X131890278Y-67550734D02*
X131892055Y-67551181D01*
X131892055Y-67551181D02*
X131893881Y-67551331D01*
X131893881Y-67551331D02*
X131900838Y-67549135D01*
X131900838Y-67549135D02*
X131915067Y-67542691D01*
X131915067Y-67542691D02*
X131963771Y-67517927D01*
X131963771Y-67517927D02*
X132036860Y-67478777D01*
X132036860Y-67478777D02*
X132131197Y-67426977D01*
X132131197Y-67426977D02*
X132371074Y-67292370D01*
X132371074Y-67292370D02*
X132658320Y-67127998D01*
X132658320Y-67127998D02*
X132945184Y-66963625D01*
X132945184Y-66963625D02*
X133184021Y-66829019D01*
X133184021Y-66829019D02*
X133349906Y-66738068D01*
X133349906Y-66738068D02*
X133397703Y-66713305D01*
X133397703Y-66713305D02*
X133417916Y-66704664D01*
X133417916Y-66704664D02*
X133421311Y-66705441D01*
X133421311Y-66705441D02*
X133425705Y-66707710D01*
X133425705Y-66707710D02*
X133437202Y-66716358D01*
X133437202Y-66716358D02*
X133451824Y-66729872D01*
X133451824Y-66729872D02*
X133468992Y-66747517D01*
X133468992Y-66747517D02*
X133488124Y-66768558D01*
X133488124Y-66768558D02*
X133508639Y-66792260D01*
X133508639Y-66792260D02*
X133529958Y-66817886D01*
X133529958Y-66817886D02*
X133551498Y-66844702D01*
X133551498Y-66844702D02*
X133572680Y-66871973D01*
X133572680Y-66871973D02*
X133592922Y-66898962D01*
X133592922Y-66898962D02*
X133611643Y-66924936D01*
X133611643Y-66924936D02*
X133628263Y-66949157D01*
X133628263Y-66949157D02*
X133642200Y-66970892D01*
X133642200Y-66970892D02*
X133652875Y-66989404D01*
X133652875Y-66989404D02*
X133659706Y-67003958D01*
X133659706Y-67003958D02*
X133661498Y-67009522D01*
X133661498Y-67009522D02*
X133662112Y-67013820D01*
X133662112Y-67013820D02*
X133643734Y-67031116D01*
X133643734Y-67031116D02*
X133591668Y-67066877D01*
X133591668Y-67066877D02*
X133404880Y-67183215D01*
X133404880Y-67183215D02*
X133138565Y-67341675D01*
X133138565Y-67341675D02*
X132829538Y-67521094D01*
X132829538Y-67521094D02*
X132514615Y-67700311D01*
X132514615Y-67700311D02*
X132230612Y-67858165D01*
X132230612Y-67858165D02*
X132014346Y-67973495D01*
X132014346Y-67973495D02*
X131943119Y-68008601D01*
X131943119Y-68008601D02*
X131902633Y-68025140D01*
X131902633Y-68025140D02*
X131874590Y-68031869D01*
X131874590Y-68031869D02*
X131844202Y-68037604D01*
X131844202Y-68037604D02*
X131811840Y-68042352D01*
X131811840Y-68042352D02*
X131777880Y-68046116D01*
X131777880Y-68046116D02*
X131742694Y-68048905D01*
X131742694Y-68048905D02*
X131706657Y-68050723D01*
X131706657Y-68050723D02*
X131670142Y-68051577D01*
X131670142Y-68051577D02*
X131633522Y-68051473D01*
X131633522Y-68051473D02*
X131597172Y-68050416D01*
X131597172Y-68050416D02*
X131561464Y-68048412D01*
X131561464Y-68048412D02*
X131526774Y-68045468D01*
X131526774Y-68045468D02*
X131493473Y-68041590D01*
X131493473Y-68041590D02*
X131461937Y-68036782D01*
X131461937Y-68036782D02*
X131432538Y-68031052D01*
X131432538Y-68031052D02*
X131405650Y-68024405D01*
X131405650Y-68024405D02*
X131381648Y-68016847D01*
X131381648Y-68016847D02*
X131381648Y-68016847D01*
G36*
X131690098Y-65944970D02*
G01*
X131720681Y-65947190D01*
X131751211Y-65951000D01*
X131781638Y-65956431D01*
X131811909Y-65963509D01*
X131865709Y-65979689D01*
X131916679Y-65999155D01*
X131964794Y-66021721D01*
X132010026Y-66047201D01*
X132052346Y-66075408D01*
X132091727Y-66106155D01*
X132128142Y-66139258D01*
X132161562Y-66174529D01*
X132191961Y-66211781D01*
X132219310Y-66250830D01*
X132243582Y-66291487D01*
X132264749Y-66333568D01*
X132282783Y-66376885D01*
X132297658Y-66421253D01*
X132309345Y-66466484D01*
X132317816Y-66512393D01*
X132323044Y-66558793D01*
X132325002Y-66605499D01*
X132323661Y-66652322D01*
X132318994Y-66699079D01*
X132310974Y-66745581D01*
X132299572Y-66791642D01*
X132284761Y-66837077D01*
X132266513Y-66881699D01*
X132244801Y-66925322D01*
X132219597Y-66967759D01*
X132190874Y-67008824D01*
X132158603Y-67048330D01*
X132122758Y-67086092D01*
X132083309Y-67121922D01*
X132040231Y-67155636D01*
X131993495Y-67187045D01*
X131950547Y-67214042D01*
X131933155Y-67225534D01*
X131918232Y-67236119D01*
X131905589Y-67246120D01*
X131900064Y-67251001D01*
X131895037Y-67255858D01*
X131890487Y-67260729D01*
X131886388Y-67265656D01*
X131882717Y-67270679D01*
X131879451Y-67275837D01*
X131876566Y-67281172D01*
X131874039Y-67286724D01*
X131871845Y-67292532D01*
X131869961Y-67298638D01*
X131868364Y-67305081D01*
X131867030Y-67311902D01*
X131865935Y-67319142D01*
X131865055Y-67326839D01*
X131863848Y-67343772D01*
X131863220Y-67363022D01*
X131862945Y-67409765D01*
X131863464Y-67441802D01*
X131864107Y-67456398D01*
X131865001Y-67470022D01*
X131866141Y-67482656D01*
X131867525Y-67494284D01*
X131869147Y-67504887D01*
X131871005Y-67514448D01*
X131873094Y-67522950D01*
X131875412Y-67530374D01*
X131877952Y-67536705D01*
X131880713Y-67541924D01*
X131883691Y-67546013D01*
X131886880Y-67548956D01*
X131888554Y-67549992D01*
X131890278Y-67550734D01*
X131892055Y-67551181D01*
X131893881Y-67551331D01*
X131900838Y-67549135D01*
X131915067Y-67542691D01*
X131963771Y-67517927D01*
X132036860Y-67478777D01*
X132131197Y-67426977D01*
X132371074Y-67292370D01*
X132658320Y-67127998D01*
X132945184Y-66963625D01*
X133184021Y-66829019D01*
X133349906Y-66738068D01*
X133397703Y-66713305D01*
X133417916Y-66704664D01*
X133421311Y-66705441D01*
X133425705Y-66707710D01*
X133437202Y-66716358D01*
X133451824Y-66729872D01*
X133468992Y-66747517D01*
X133488124Y-66768558D01*
X133508639Y-66792260D01*
X133529958Y-66817886D01*
X133551498Y-66844702D01*
X133572680Y-66871973D01*
X133592922Y-66898962D01*
X133611643Y-66924936D01*
X133628263Y-66949157D01*
X133642200Y-66970892D01*
X133652875Y-66989404D01*
X133659706Y-67003958D01*
X133661498Y-67009522D01*
X133662112Y-67013820D01*
X133643734Y-67031116D01*
X133591668Y-67066877D01*
X133404880Y-67183215D01*
X133138565Y-67341675D01*
X132829538Y-67521094D01*
X132514615Y-67700311D01*
X132230612Y-67858165D01*
X132014346Y-67973495D01*
X131943119Y-68008601D01*
X131902633Y-68025140D01*
X131874590Y-68031869D01*
X131844202Y-68037604D01*
X131811840Y-68042352D01*
X131777880Y-68046116D01*
X131742694Y-68048905D01*
X131706657Y-68050723D01*
X131670142Y-68051577D01*
X131633522Y-68051473D01*
X131597172Y-68050416D01*
X131561464Y-68048412D01*
X131526774Y-68045468D01*
X131493473Y-68041590D01*
X131461937Y-68036782D01*
X131432538Y-68031052D01*
X131405650Y-68024405D01*
X131381648Y-68016847D01*
X131287889Y-67968829D01*
X131086278Y-67858282D01*
X130504614Y-67531781D01*
X129926893Y-67201710D01*
X129730210Y-67086698D01*
X129643351Y-67032431D01*
X129642547Y-67030356D01*
X129643074Y-67026768D01*
X129647808Y-67015454D01*
X129656927Y-66999295D01*
X129669806Y-66979096D01*
X129685818Y-66955664D01*
X129704338Y-66929804D01*
X129746400Y-66874025D01*
X129790985Y-66818207D01*
X129812659Y-66792298D01*
X129833087Y-66768797D01*
X129851642Y-66748511D01*
X129867700Y-66732244D01*
X129880634Y-66720802D01*
X129885734Y-66717143D01*
X129889818Y-66714993D01*
X129892499Y-66714890D01*
X129897050Y-66715892D01*
X129911570Y-66721101D01*
X129932981Y-66730408D01*
X129960891Y-66743601D01*
X130034627Y-66780801D01*
X130129622Y-66831006D01*
X130242721Y-66892522D01*
X130370769Y-66963655D01*
X130510611Y-67042712D01*
X130659091Y-67127998D01*
X130947577Y-67292277D01*
X131189173Y-67424754D01*
X131284478Y-67474840D01*
X131358569Y-67511904D01*
X131408282Y-67534255D01*
X131423008Y-67539384D01*
X131430453Y-67540201D01*
X131432596Y-67539246D01*
X131434675Y-67538049D01*
X131436691Y-67536611D01*
X131438642Y-67534935D01*
X131440530Y-67533021D01*
X131442352Y-67530870D01*
X131444110Y-67528484D01*
X131445803Y-67525864D01*
X131447430Y-67523012D01*
X131448991Y-67519927D01*
X131450486Y-67516612D01*
X131451915Y-67513068D01*
X131453277Y-67509295D01*
X131454572Y-67505297D01*
X131455799Y-67501072D01*
X131456959Y-67496623D01*
X131459075Y-67487058D01*
X131460916Y-67476610D01*
X131462481Y-67465289D01*
X131463766Y-67453105D01*
X131464770Y-67440068D01*
X131465491Y-67426188D01*
X131465925Y-67411475D01*
X131466070Y-67395937D01*
X131465774Y-67352806D01*
X131465100Y-67335028D01*
X131463805Y-67319368D01*
X131462861Y-67312238D01*
X131461685Y-67305525D01*
X131460253Y-67299189D01*
X131458538Y-67293193D01*
X131456516Y-67287500D01*
X131454161Y-67282070D01*
X131451448Y-67276867D01*
X131448351Y-67271852D01*
X131444845Y-67266988D01*
X131440905Y-67262236D01*
X131436504Y-67257558D01*
X131431619Y-67252916D01*
X131426223Y-67248274D01*
X131420292Y-67243591D01*
X131406719Y-67233956D01*
X131390699Y-67223708D01*
X131372028Y-67212543D01*
X131325922Y-67186246D01*
X131300995Y-67171417D01*
X131276891Y-67155550D01*
X131253627Y-67138690D01*
X131231219Y-67120878D01*
X131209685Y-67102159D01*
X131189041Y-67082575D01*
X131169305Y-67062170D01*
X131150493Y-67040985D01*
X131132623Y-67019066D01*
X131115711Y-66996453D01*
X131099775Y-66973192D01*
X131084831Y-66949324D01*
X131070896Y-66924893D01*
X131057988Y-66899941D01*
X131046123Y-66874513D01*
X131035318Y-66848650D01*
X131025590Y-66822397D01*
X131016956Y-66795795D01*
X131009434Y-66768889D01*
X131003040Y-66741720D01*
X130997790Y-66714333D01*
X130993703Y-66686771D01*
X130990795Y-66659076D01*
X130989083Y-66631291D01*
X130988583Y-66603459D01*
X130989314Y-66575625D01*
X130991291Y-66547830D01*
X130994532Y-66520117D01*
X130999054Y-66492531D01*
X131004874Y-66465113D01*
X131012009Y-66437907D01*
X131020475Y-66410956D01*
X131031727Y-66380402D01*
X131044361Y-66350627D01*
X131058326Y-66321661D01*
X131073570Y-66293531D01*
X131090043Y-66266269D01*
X131107692Y-66239901D01*
X131126468Y-66214458D01*
X131146318Y-66189969D01*
X131167192Y-66166461D01*
X131189038Y-66143965D01*
X131211804Y-66122509D01*
X131235441Y-66102122D01*
X131259896Y-66082833D01*
X131285118Y-66064671D01*
X131311056Y-66047665D01*
X131337659Y-66031845D01*
X131364876Y-66017238D01*
X131392655Y-66003874D01*
X131420944Y-65991782D01*
X131449694Y-65980991D01*
X131478852Y-65971530D01*
X131508368Y-65963427D01*
X131538190Y-65956713D01*
X131568267Y-65951415D01*
X131598547Y-65947563D01*
X131628980Y-65945185D01*
X131659514Y-65944311D01*
X131690098Y-65944970D01*
G37*
X131690098Y-65944970D02*
X131720681Y-65947190D01*
X131751211Y-65951000D01*
X131781638Y-65956431D01*
X131811909Y-65963509D01*
X131865709Y-65979689D01*
X131916679Y-65999155D01*
X131964794Y-66021721D01*
X132010026Y-66047201D01*
X132052346Y-66075408D01*
X132091727Y-66106155D01*
X132128142Y-66139258D01*
X132161562Y-66174529D01*
X132191961Y-66211781D01*
X132219310Y-66250830D01*
X132243582Y-66291487D01*
X132264749Y-66333568D01*
X132282783Y-66376885D01*
X132297658Y-66421253D01*
X132309345Y-66466484D01*
X132317816Y-66512393D01*
X132323044Y-66558793D01*
X132325002Y-66605499D01*
X132323661Y-66652322D01*
X132318994Y-66699079D01*
X132310974Y-66745581D01*
X132299572Y-66791642D01*
X132284761Y-66837077D01*
X132266513Y-66881699D01*
X132244801Y-66925322D01*
X132219597Y-66967759D01*
X132190874Y-67008824D01*
X132158603Y-67048330D01*
X132122758Y-67086092D01*
X132083309Y-67121922D01*
X132040231Y-67155636D01*
X131993495Y-67187045D01*
X131950547Y-67214042D01*
X131933155Y-67225534D01*
X131918232Y-67236119D01*
X131905589Y-67246120D01*
X131900064Y-67251001D01*
X131895037Y-67255858D01*
X131890487Y-67260729D01*
X131886388Y-67265656D01*
X131882717Y-67270679D01*
X131879451Y-67275837D01*
X131876566Y-67281172D01*
X131874039Y-67286724D01*
X131871845Y-67292532D01*
X131869961Y-67298638D01*
X131868364Y-67305081D01*
X131867030Y-67311902D01*
X131865935Y-67319142D01*
X131865055Y-67326839D01*
X131863848Y-67343772D01*
X131863220Y-67363022D01*
X131862945Y-67409765D01*
X131863464Y-67441802D01*
X131864107Y-67456398D01*
X131865001Y-67470022D01*
X131866141Y-67482656D01*
X131867525Y-67494284D01*
X131869147Y-67504887D01*
X131871005Y-67514448D01*
X131873094Y-67522950D01*
X131875412Y-67530374D01*
X131877952Y-67536705D01*
X131880713Y-67541924D01*
X131883691Y-67546013D01*
X131886880Y-67548956D01*
X131888554Y-67549992D01*
X131890278Y-67550734D01*
X131892055Y-67551181D01*
X131893881Y-67551331D01*
X131900838Y-67549135D01*
X131915067Y-67542691D01*
X131963771Y-67517927D01*
X132036860Y-67478777D01*
X132131197Y-67426977D01*
X132371074Y-67292370D01*
X132658320Y-67127998D01*
X132945184Y-66963625D01*
X133184021Y-66829019D01*
X133349906Y-66738068D01*
X133397703Y-66713305D01*
X133417916Y-66704664D01*
X133421311Y-66705441D01*
X133425705Y-66707710D01*
X133437202Y-66716358D01*
X133451824Y-66729872D01*
X133468992Y-66747517D01*
X133488124Y-66768558D01*
X133508639Y-66792260D01*
X133529958Y-66817886D01*
X133551498Y-66844702D01*
X133572680Y-66871973D01*
X133592922Y-66898962D01*
X133611643Y-66924936D01*
X133628263Y-66949157D01*
X133642200Y-66970892D01*
X133652875Y-66989404D01*
X133659706Y-67003958D01*
X133661498Y-67009522D01*
X133662112Y-67013820D01*
X133643734Y-67031116D01*
X133591668Y-67066877D01*
X133404880Y-67183215D01*
X133138565Y-67341675D01*
X132829538Y-67521094D01*
X132514615Y-67700311D01*
X132230612Y-67858165D01*
X132014346Y-67973495D01*
X131943119Y-68008601D01*
X131902633Y-68025140D01*
X131874590Y-68031869D01*
X131844202Y-68037604D01*
X131811840Y-68042352D01*
X131777880Y-68046116D01*
X131742694Y-68048905D01*
X131706657Y-68050723D01*
X131670142Y-68051577D01*
X131633522Y-68051473D01*
X131597172Y-68050416D01*
X131561464Y-68048412D01*
X131526774Y-68045468D01*
X131493473Y-68041590D01*
X131461937Y-68036782D01*
X131432538Y-68031052D01*
X131405650Y-68024405D01*
X131381648Y-68016847D01*
X131287889Y-67968829D01*
X131086278Y-67858282D01*
X130504614Y-67531781D01*
X129926893Y-67201710D01*
X129730210Y-67086698D01*
X129643351Y-67032431D01*
X129642547Y-67030356D01*
X129643074Y-67026768D01*
X129647808Y-67015454D01*
X129656927Y-66999295D01*
X129669806Y-66979096D01*
X129685818Y-66955664D01*
X129704338Y-66929804D01*
X129746400Y-66874025D01*
X129790985Y-66818207D01*
X129812659Y-66792298D01*
X129833087Y-66768797D01*
X129851642Y-66748511D01*
X129867700Y-66732244D01*
X129880634Y-66720802D01*
X129885734Y-66717143D01*
X129889818Y-66714993D01*
X129892499Y-66714890D01*
X129897050Y-66715892D01*
X129911570Y-66721101D01*
X129932981Y-66730408D01*
X129960891Y-66743601D01*
X130034627Y-66780801D01*
X130129622Y-66831006D01*
X130242721Y-66892522D01*
X130370769Y-66963655D01*
X130510611Y-67042712D01*
X130659091Y-67127998D01*
X130947577Y-67292277D01*
X131189173Y-67424754D01*
X131284478Y-67474840D01*
X131358569Y-67511904D01*
X131408282Y-67534255D01*
X131423008Y-67539384D01*
X131430453Y-67540201D01*
X131432596Y-67539246D01*
X131434675Y-67538049D01*
X131436691Y-67536611D01*
X131438642Y-67534935D01*
X131440530Y-67533021D01*
X131442352Y-67530870D01*
X131444110Y-67528484D01*
X131445803Y-67525864D01*
X131447430Y-67523012D01*
X131448991Y-67519927D01*
X131450486Y-67516612D01*
X131451915Y-67513068D01*
X131453277Y-67509295D01*
X131454572Y-67505297D01*
X131455799Y-67501072D01*
X131456959Y-67496623D01*
X131459075Y-67487058D01*
X131460916Y-67476610D01*
X131462481Y-67465289D01*
X131463766Y-67453105D01*
X131464770Y-67440068D01*
X131465491Y-67426188D01*
X131465925Y-67411475D01*
X131466070Y-67395937D01*
X131465774Y-67352806D01*
X131465100Y-67335028D01*
X131463805Y-67319368D01*
X131462861Y-67312238D01*
X131461685Y-67305525D01*
X131460253Y-67299189D01*
X131458538Y-67293193D01*
X131456516Y-67287500D01*
X131454161Y-67282070D01*
X131451448Y-67276867D01*
X131448351Y-67271852D01*
X131444845Y-67266988D01*
X131440905Y-67262236D01*
X131436504Y-67257558D01*
X131431619Y-67252916D01*
X131426223Y-67248274D01*
X131420292Y-67243591D01*
X131406719Y-67233956D01*
X131390699Y-67223708D01*
X131372028Y-67212543D01*
X131325922Y-67186246D01*
X131300995Y-67171417D01*
X131276891Y-67155550D01*
X131253627Y-67138690D01*
X131231219Y-67120878D01*
X131209685Y-67102159D01*
X131189041Y-67082575D01*
X131169305Y-67062170D01*
X131150493Y-67040985D01*
X131132623Y-67019066D01*
X131115711Y-66996453D01*
X131099775Y-66973192D01*
X131084831Y-66949324D01*
X131070896Y-66924893D01*
X131057988Y-66899941D01*
X131046123Y-66874513D01*
X131035318Y-66848650D01*
X131025590Y-66822397D01*
X131016956Y-66795795D01*
X131009434Y-66768889D01*
X131003040Y-66741720D01*
X130997790Y-66714333D01*
X130993703Y-66686771D01*
X130990795Y-66659076D01*
X130989083Y-66631291D01*
X130988583Y-66603459D01*
X130989314Y-66575625D01*
X130991291Y-66547830D01*
X130994532Y-66520117D01*
X130999054Y-66492531D01*
X131004874Y-66465113D01*
X131012009Y-66437907D01*
X131020475Y-66410956D01*
X131031727Y-66380402D01*
X131044361Y-66350627D01*
X131058326Y-66321661D01*
X131073570Y-66293531D01*
X131090043Y-66266269D01*
X131107692Y-66239901D01*
X131126468Y-66214458D01*
X131146318Y-66189969D01*
X131167192Y-66166461D01*
X131189038Y-66143965D01*
X131211804Y-66122509D01*
X131235441Y-66102122D01*
X131259896Y-66082833D01*
X131285118Y-66064671D01*
X131311056Y-66047665D01*
X131337659Y-66031845D01*
X131364876Y-66017238D01*
X131392655Y-66003874D01*
X131420944Y-65991782D01*
X131449694Y-65980991D01*
X131478852Y-65971530D01*
X131508368Y-65963427D01*
X131538190Y-65956713D01*
X131568267Y-65951415D01*
X131598547Y-65947563D01*
X131628980Y-65945185D01*
X131659514Y-65944311D01*
X131690098Y-65944970D01*
X133364455Y-69416061D02*
X133373849Y-69404594D01*
X133373849Y-69404594D02*
X133382387Y-69392825D01*
X133382387Y-69392825D02*
X133390076Y-69380785D01*
X133390076Y-69380785D02*
X133396923Y-69368503D01*
X133396923Y-69368503D02*
X133402936Y-69356008D01*
X133402936Y-69356008D02*
X133408121Y-69343330D01*
X133408121Y-69343330D02*
X133412485Y-69330500D01*
X133412485Y-69330500D02*
X133416037Y-69317546D01*
X133416037Y-69317546D02*
X133418782Y-69304498D01*
X133418782Y-69304498D02*
X133420728Y-69291386D01*
X133420728Y-69291386D02*
X133421882Y-69278240D01*
X133421882Y-69278240D02*
X133422252Y-69265089D01*
X133422252Y-69265089D02*
X133421843Y-69251962D01*
X133421843Y-69251962D02*
X133420664Y-69238891D01*
X133420664Y-69238891D02*
X133418722Y-69225903D01*
X133418722Y-69225903D02*
X133416023Y-69213029D01*
X133416023Y-69213029D02*
X133412575Y-69200299D01*
X133412575Y-69200299D02*
X133408385Y-69187742D01*
X133408385Y-69187742D02*
X133403460Y-69175388D01*
X133403460Y-69175388D02*
X133397808Y-69163266D01*
X133397808Y-69163266D02*
X133391434Y-69151406D01*
X133391434Y-69151406D02*
X133384347Y-69139838D01*
X133384347Y-69139838D02*
X133376553Y-69128592D01*
X133376553Y-69128592D02*
X133368060Y-69117696D01*
X133368060Y-69117696D02*
X133358875Y-69107182D01*
X133358875Y-69107182D02*
X133349005Y-69097078D01*
X133349005Y-69097078D02*
X133338456Y-69087413D01*
X133338456Y-69087413D02*
X133327237Y-69078219D01*
X133327237Y-69078219D02*
X133315354Y-69069524D01*
X133315354Y-69069524D02*
X133302814Y-69061358D01*
X133302814Y-69061358D02*
X133289625Y-69053751D01*
X133289625Y-69053751D02*
X133275793Y-69046732D01*
X133275793Y-69046732D02*
X133261857Y-69040243D01*
X133261857Y-69040243D02*
X133249083Y-69034606D01*
X133249083Y-69034606D02*
X133237300Y-69029816D01*
X133237300Y-69029816D02*
X133226336Y-69025872D01*
X133226336Y-69025872D02*
X133216021Y-69022769D01*
X133216021Y-69022769D02*
X133206183Y-69020504D01*
X133206183Y-69020504D02*
X133201390Y-69019685D01*
X133201390Y-69019685D02*
X133196652Y-69019075D01*
X133196652Y-69019075D02*
X133191947Y-69018672D01*
X133191947Y-69018672D02*
X133187254Y-69018476D01*
X133187254Y-69018476D02*
X133182553Y-69018488D01*
X133182553Y-69018488D02*
X133177821Y-69018706D01*
X133177821Y-69018706D02*
X133168179Y-69019760D01*
X133168179Y-69019760D02*
X133158159Y-69021636D01*
X133158159Y-69021636D02*
X133147588Y-69024329D01*
X133147588Y-69024329D02*
X133136297Y-69027838D01*
X133136297Y-69027838D02*
X133124112Y-69032157D01*
X133124112Y-69032157D02*
X133110864Y-69037285D01*
X133110864Y-69037285D02*
X133096381Y-69043217D01*
X133096381Y-69043217D02*
X133076987Y-69051894D01*
X133076987Y-69051894D02*
X133067863Y-69056432D01*
X133067863Y-69056432D02*
X133059114Y-69061113D01*
X133059114Y-69061113D02*
X133050736Y-69065944D01*
X133050736Y-69065944D02*
X133042724Y-69070933D01*
X133042724Y-69070933D02*
X133035074Y-69076087D01*
X133035074Y-69076087D02*
X133027781Y-69081414D01*
X133027781Y-69081414D02*
X133020840Y-69086920D01*
X133020840Y-69086920D02*
X133014246Y-69092614D01*
X133014246Y-69092614D02*
X133007996Y-69098502D01*
X133007996Y-69098502D02*
X133002084Y-69104592D01*
X133002084Y-69104592D02*
X132996506Y-69110892D01*
X132996506Y-69110892D02*
X132991256Y-69117409D01*
X132991256Y-69117409D02*
X132986331Y-69124151D01*
X132986331Y-69124151D02*
X132981726Y-69131124D01*
X132981726Y-69131124D02*
X132977436Y-69138336D01*
X132977436Y-69138336D02*
X132973456Y-69145795D01*
X132973456Y-69145795D02*
X132969783Y-69153508D01*
X132969783Y-69153508D02*
X132966410Y-69161482D01*
X132966410Y-69161482D02*
X132963334Y-69169725D01*
X132963334Y-69169725D02*
X132960549Y-69178245D01*
X132960549Y-69178245D02*
X132958052Y-69187048D01*
X132958052Y-69187048D02*
X132955838Y-69196142D01*
X132955838Y-69196142D02*
X132953901Y-69205534D01*
X132953901Y-69205534D02*
X132952238Y-69215232D01*
X132952238Y-69215232D02*
X132950843Y-69225244D01*
X132950843Y-69225244D02*
X132949713Y-69235576D01*
X132949713Y-69235576D02*
X132948225Y-69257232D01*
X132948225Y-69257232D02*
X132947737Y-69280260D01*
X132947737Y-69280260D02*
X132948115Y-69292550D01*
X132948115Y-69292550D02*
X132949232Y-69304685D01*
X132949232Y-69304685D02*
X132951066Y-69316643D01*
X132951066Y-69316643D02*
X132953594Y-69328407D01*
X132953594Y-69328407D02*
X132956790Y-69339956D01*
X132956790Y-69339956D02*
X132960634Y-69351271D01*
X132960634Y-69351271D02*
X132965100Y-69362333D01*
X132965100Y-69362333D02*
X132970166Y-69373122D01*
X132970166Y-69373122D02*
X132975808Y-69383618D01*
X132975808Y-69383618D02*
X132982003Y-69393803D01*
X132982003Y-69393803D02*
X132988727Y-69403656D01*
X132988727Y-69403656D02*
X132995957Y-69413158D01*
X132995957Y-69413158D02*
X133003671Y-69422291D01*
X133003671Y-69422291D02*
X133011843Y-69431033D01*
X133011843Y-69431033D02*
X133020452Y-69439366D01*
X133020452Y-69439366D02*
X133029473Y-69447270D01*
X133029473Y-69447270D02*
X133038884Y-69454726D01*
X133038884Y-69454726D02*
X133048660Y-69461715D01*
X133048660Y-69461715D02*
X133058779Y-69468216D01*
X133058779Y-69468216D02*
X133069217Y-69474211D01*
X133069217Y-69474211D02*
X133079950Y-69479679D01*
X133079950Y-69479679D02*
X133090957Y-69484602D01*
X133090957Y-69484602D02*
X133102212Y-69488960D01*
X133102212Y-69488960D02*
X133113693Y-69492733D01*
X133113693Y-69492733D02*
X133125376Y-69495903D01*
X133125376Y-69495903D02*
X133137238Y-69498448D01*
X133137238Y-69498448D02*
X133149255Y-69500351D01*
X133149255Y-69500351D02*
X133161405Y-69501591D01*
X133161405Y-69501591D02*
X133173663Y-69502149D01*
X133173663Y-69502149D02*
X133186007Y-69502006D01*
X133186007Y-69502006D02*
X133198413Y-69501142D01*
X133198413Y-69501142D02*
X133210857Y-69499538D01*
X133210857Y-69499538D02*
X133221200Y-69497606D01*
X133221200Y-69497606D02*
X133231716Y-69495088D01*
X133231716Y-69495088D02*
X133242346Y-69492017D01*
X133242346Y-69492017D02*
X133253032Y-69488423D01*
X133253032Y-69488423D02*
X133263717Y-69484338D01*
X133263717Y-69484338D02*
X133274340Y-69479794D01*
X133274340Y-69479794D02*
X133284845Y-69474823D01*
X133284845Y-69474823D02*
X133295174Y-69469456D01*
X133295174Y-69469456D02*
X133305267Y-69463724D01*
X133305267Y-69463724D02*
X133315068Y-69457660D01*
X133315068Y-69457660D02*
X133324517Y-69451295D01*
X133324517Y-69451295D02*
X133333557Y-69444661D01*
X133333557Y-69444661D02*
X133342128Y-69437788D01*
X133342128Y-69437788D02*
X133350174Y-69430710D01*
X133350174Y-69430710D02*
X133357636Y-69423457D01*
X133357636Y-69423457D02*
X133364456Y-69416061D01*
X133364456Y-69416061D02*
X133364455Y-69416061D01*
X133364455Y-69416061D02*
X133364455Y-69416061D01*
G36*
X133191947Y-69018672D02*
G01*
X133196652Y-69019075D01*
X133201390Y-69019685D01*
X133206183Y-69020504D01*
X133216021Y-69022769D01*
X133226336Y-69025872D01*
X133237300Y-69029816D01*
X133249083Y-69034606D01*
X133261857Y-69040243D01*
X133275793Y-69046732D01*
X133289625Y-69053751D01*
X133302814Y-69061358D01*
X133315354Y-69069524D01*
X133327237Y-69078219D01*
X133338456Y-69087413D01*
X133349005Y-69097078D01*
X133358875Y-69107182D01*
X133368060Y-69117696D01*
X133376553Y-69128592D01*
X133384347Y-69139838D01*
X133391434Y-69151406D01*
X133397808Y-69163266D01*
X133403460Y-69175388D01*
X133408385Y-69187742D01*
X133412575Y-69200299D01*
X133416023Y-69213029D01*
X133418722Y-69225903D01*
X133420664Y-69238891D01*
X133421843Y-69251962D01*
X133422252Y-69265089D01*
X133421882Y-69278240D01*
X133420728Y-69291386D01*
X133418782Y-69304498D01*
X133416037Y-69317546D01*
X133412485Y-69330500D01*
X133408121Y-69343330D01*
X133402936Y-69356008D01*
X133396923Y-69368503D01*
X133390076Y-69380785D01*
X133382387Y-69392825D01*
X133373849Y-69404594D01*
X133364455Y-69416061D01*
X133364456Y-69416061D01*
X133357636Y-69423457D01*
X133350174Y-69430710D01*
X133342128Y-69437788D01*
X133333557Y-69444661D01*
X133324517Y-69451295D01*
X133315068Y-69457660D01*
X133305267Y-69463724D01*
X133295174Y-69469456D01*
X133284845Y-69474823D01*
X133274340Y-69479794D01*
X133263717Y-69484338D01*
X133253032Y-69488423D01*
X133242346Y-69492017D01*
X133231716Y-69495088D01*
X133221200Y-69497606D01*
X133210857Y-69499538D01*
X133198413Y-69501142D01*
X133186007Y-69502006D01*
X133173663Y-69502149D01*
X133161405Y-69501591D01*
X133149255Y-69500351D01*
X133137238Y-69498448D01*
X133125376Y-69495903D01*
X133113693Y-69492733D01*
X133102212Y-69488960D01*
X133090957Y-69484602D01*
X133079950Y-69479679D01*
X133069217Y-69474211D01*
X133058779Y-69468216D01*
X133048660Y-69461715D01*
X133038884Y-69454726D01*
X133029473Y-69447270D01*
X133020452Y-69439366D01*
X133011843Y-69431033D01*
X133003671Y-69422291D01*
X132995957Y-69413158D01*
X132988727Y-69403656D01*
X132982003Y-69393803D01*
X132975808Y-69383618D01*
X132970166Y-69373122D01*
X132965100Y-69362333D01*
X132960634Y-69351271D01*
X132956790Y-69339956D01*
X132953594Y-69328407D01*
X132951066Y-69316643D01*
X132949232Y-69304685D01*
X132948115Y-69292550D01*
X132947737Y-69280260D01*
X132948225Y-69257232D01*
X132949713Y-69235576D01*
X132950843Y-69225244D01*
X132952238Y-69215232D01*
X132953901Y-69205534D01*
X132955838Y-69196142D01*
X132958052Y-69187048D01*
X132960549Y-69178245D01*
X132963334Y-69169725D01*
X132966410Y-69161482D01*
X132969783Y-69153508D01*
X132973456Y-69145795D01*
X132977436Y-69138336D01*
X132981726Y-69131124D01*
X132986331Y-69124151D01*
X132991256Y-69117409D01*
X132996506Y-69110892D01*
X133002084Y-69104592D01*
X133007996Y-69098502D01*
X133014246Y-69092614D01*
X133020840Y-69086920D01*
X133027781Y-69081414D01*
X133035074Y-69076087D01*
X133042724Y-69070933D01*
X133050736Y-69065944D01*
X133059114Y-69061113D01*
X133067863Y-69056432D01*
X133076987Y-69051894D01*
X133096381Y-69043217D01*
X133110864Y-69037285D01*
X133124112Y-69032157D01*
X133136297Y-69027838D01*
X133147588Y-69024329D01*
X133158159Y-69021636D01*
X133168179Y-69019760D01*
X133177821Y-69018706D01*
X133182553Y-69018488D01*
X133187254Y-69018476D01*
X133191947Y-69018672D01*
G37*
X133191947Y-69018672D02*
X133196652Y-69019075D01*
X133201390Y-69019685D01*
X133206183Y-69020504D01*
X133216021Y-69022769D01*
X133226336Y-69025872D01*
X133237300Y-69029816D01*
X133249083Y-69034606D01*
X133261857Y-69040243D01*
X133275793Y-69046732D01*
X133289625Y-69053751D01*
X133302814Y-69061358D01*
X133315354Y-69069524D01*
X133327237Y-69078219D01*
X133338456Y-69087413D01*
X133349005Y-69097078D01*
X133358875Y-69107182D01*
X133368060Y-69117696D01*
X133376553Y-69128592D01*
X133384347Y-69139838D01*
X133391434Y-69151406D01*
X133397808Y-69163266D01*
X133403460Y-69175388D01*
X133408385Y-69187742D01*
X133412575Y-69200299D01*
X133416023Y-69213029D01*
X133418722Y-69225903D01*
X133420664Y-69238891D01*
X133421843Y-69251962D01*
X133422252Y-69265089D01*
X133421882Y-69278240D01*
X133420728Y-69291386D01*
X133418782Y-69304498D01*
X133416037Y-69317546D01*
X133412485Y-69330500D01*
X133408121Y-69343330D01*
X133402936Y-69356008D01*
X133396923Y-69368503D01*
X133390076Y-69380785D01*
X133382387Y-69392825D01*
X133373849Y-69404594D01*
X133364455Y-69416061D01*
X133364456Y-69416061D01*
X133357636Y-69423457D01*
X133350174Y-69430710D01*
X133342128Y-69437788D01*
X133333557Y-69444661D01*
X133324517Y-69451295D01*
X133315068Y-69457660D01*
X133305267Y-69463724D01*
X133295174Y-69469456D01*
X133284845Y-69474823D01*
X133274340Y-69479794D01*
X133263717Y-69484338D01*
X133253032Y-69488423D01*
X133242346Y-69492017D01*
X133231716Y-69495088D01*
X133221200Y-69497606D01*
X133210857Y-69499538D01*
X133198413Y-69501142D01*
X133186007Y-69502006D01*
X133173663Y-69502149D01*
X133161405Y-69501591D01*
X133149255Y-69500351D01*
X133137238Y-69498448D01*
X133125376Y-69495903D01*
X133113693Y-69492733D01*
X133102212Y-69488960D01*
X133090957Y-69484602D01*
X133079950Y-69479679D01*
X133069217Y-69474211D01*
X133058779Y-69468216D01*
X133048660Y-69461715D01*
X133038884Y-69454726D01*
X133029473Y-69447270D01*
X133020452Y-69439366D01*
X133011843Y-69431033D01*
X133003671Y-69422291D01*
X132995957Y-69413158D01*
X132988727Y-69403656D01*
X132982003Y-69393803D01*
X132975808Y-69383618D01*
X132970166Y-69373122D01*
X132965100Y-69362333D01*
X132960634Y-69351271D01*
X132956790Y-69339956D01*
X132953594Y-69328407D01*
X132951066Y-69316643D01*
X132949232Y-69304685D01*
X132948115Y-69292550D01*
X132947737Y-69280260D01*
X132948225Y-69257232D01*
X132949713Y-69235576D01*
X132950843Y-69225244D01*
X132952238Y-69215232D01*
X132953901Y-69205534D01*
X132955838Y-69196142D01*
X132958052Y-69187048D01*
X132960549Y-69178245D01*
X132963334Y-69169725D01*
X132966410Y-69161482D01*
X132969783Y-69153508D01*
X132973456Y-69145795D01*
X132977436Y-69138336D01*
X132981726Y-69131124D01*
X132986331Y-69124151D01*
X132991256Y-69117409D01*
X132996506Y-69110892D01*
X133002084Y-69104592D01*
X133007996Y-69098502D01*
X133014246Y-69092614D01*
X133020840Y-69086920D01*
X133027781Y-69081414D01*
X133035074Y-69076087D01*
X133042724Y-69070933D01*
X133050736Y-69065944D01*
X133059114Y-69061113D01*
X133067863Y-69056432D01*
X133076987Y-69051894D01*
X133096381Y-69043217D01*
X133110864Y-69037285D01*
X133124112Y-69032157D01*
X133136297Y-69027838D01*
X133147588Y-69024329D01*
X133158159Y-69021636D01*
X133168179Y-69019760D01*
X133177821Y-69018706D01*
X133182553Y-69018488D01*
X133187254Y-69018476D01*
X133191947Y-69018672D01*
D11*
X163000000Y-152571428D02*
X163071428Y-152500000D01*
X163214285Y-152428571D01*
X163571428Y-152428571D01*
X163714285Y-152500000D01*
X163785714Y-152571428D01*
X163857142Y-152714285D01*
X163857142Y-152857142D01*
X163785714Y-153071428D01*
X162928571Y-153928571D01*
X163857142Y-153928571D01*
X165142857Y-152928571D02*
X165142857Y-153928571D01*
X164785714Y-152357142D02*
X164428571Y-153428571D01*
X165357142Y-153428571D01*
X167000000Y-152357142D02*
X165714285Y-154285714D01*
X167785714Y-152428571D02*
X167928571Y-152428571D01*
X168071428Y-152500000D01*
X168142857Y-152571428D01*
X168214285Y-152714285D01*
X168285714Y-153000000D01*
X168285714Y-153357142D01*
X168214285Y-153642857D01*
X168142857Y-153785714D01*
X168071428Y-153857142D01*
X167928571Y-153928571D01*
X167785714Y-153928571D01*
X167642857Y-153857142D01*
X167571428Y-153785714D01*
X167500000Y-153642857D01*
X167428571Y-153357142D01*
X167428571Y-153000000D01*
X167500000Y-152714285D01*
X167571428Y-152571428D01*
X167642857Y-152500000D01*
X167785714Y-152428571D01*
X169571428Y-152428571D02*
X169285714Y-152428571D01*
X169142857Y-152500000D01*
X169071428Y-152571428D01*
X168928571Y-152785714D01*
X168857142Y-153071428D01*
X168857142Y-153642857D01*
X168928571Y-153785714D01*
X169000000Y-153857142D01*
X169142857Y-153928571D01*
X169428571Y-153928571D01*
X169571428Y-153857142D01*
X169642857Y-153785714D01*
X169714285Y-153642857D01*
X169714285Y-153285714D01*
X169642857Y-153142857D01*
X169571428Y-153071428D01*
X169428571Y-153000000D01*
X169142857Y-153000000D01*
X169000000Y-153071428D01*
X168928571Y-153142857D01*
X168857142Y-153285714D01*
X171428571Y-152357142D02*
X170142857Y-154285714D01*
X171857142Y-152571428D02*
X171928571Y-152500000D01*
X172071428Y-152428571D01*
X172428571Y-152428571D01*
X172571428Y-152500000D01*
X172642857Y-152571428D01*
X172714285Y-152714285D01*
X172714285Y-152857142D01*
X172642857Y-153071428D01*
X171785714Y-153928571D01*
X172714285Y-153928571D01*
X173642857Y-152428571D02*
X173785714Y-152428571D01*
X173928571Y-152500000D01*
X174000000Y-152571428D01*
X174071428Y-152714285D01*
X174142857Y-153000000D01*
X174142857Y-153357142D01*
X174071428Y-153642857D01*
X174000000Y-153785714D01*
X173928571Y-153857142D01*
X173785714Y-153928571D01*
X173642857Y-153928571D01*
X173500000Y-153857142D01*
X173428571Y-153785714D01*
X173357142Y-153642857D01*
X173285714Y-153357142D01*
X173285714Y-153000000D01*
X173357142Y-152714285D01*
X173428571Y-152571428D01*
X173500000Y-152500000D01*
X173642857Y-152428571D01*
X174714285Y-152571428D02*
X174785714Y-152500000D01*
X174928571Y-152428571D01*
X175285714Y-152428571D01*
X175428571Y-152500000D01*
X175500000Y-152571428D01*
X175571428Y-152714285D01*
X175571428Y-152857142D01*
X175500000Y-153071428D01*
X174642857Y-153928571D01*
X175571428Y-153928571D01*
X176142857Y-152571428D02*
X176214285Y-152500000D01*
X176357142Y-152428571D01*
X176714285Y-152428571D01*
X176857142Y-152500000D01*
X176928571Y-152571428D01*
X177000000Y-152714285D01*
X177000000Y-152857142D01*
X176928571Y-153071428D01*
X176071428Y-153928571D01*
X177000000Y-153928571D01*
X180721428Y-100399999D02*
X179221428Y-100899999D01*
X180721428Y-101399999D01*
X179221428Y-102542856D02*
X180007142Y-102542856D01*
X180150000Y-102471428D01*
X180221428Y-102328571D01*
X180221428Y-102042856D01*
X180150000Y-101899999D01*
X179292857Y-102542856D02*
X179221428Y-102399999D01*
X179221428Y-102042856D01*
X179292857Y-101899999D01*
X179435714Y-101828571D01*
X179578571Y-101828571D01*
X179721428Y-101899999D01*
X179792857Y-102042856D01*
X179792857Y-102399999D01*
X179864285Y-102542856D01*
X179221428Y-103471428D02*
X179292857Y-103328571D01*
X179435714Y-103257142D01*
X180721428Y-103257142D01*
X179221428Y-104042856D02*
X180221428Y-104042856D01*
X180721428Y-104042856D02*
X180650000Y-103971428D01*
X180578571Y-104042856D01*
X180650000Y-104114285D01*
X180721428Y-104042856D01*
X180578571Y-104042856D01*
X179221428Y-105399999D02*
X180721428Y-105399999D01*
X179292857Y-105399999D02*
X179221428Y-105257142D01*
X179221428Y-104971428D01*
X179292857Y-104828571D01*
X179364285Y-104757142D01*
X179507142Y-104685714D01*
X179935714Y-104685714D01*
X180078571Y-104757142D01*
X180150000Y-104828571D01*
X180221428Y-104971428D01*
X180221428Y-105257142D01*
X180150000Y-105399999D01*
X179221428Y-106757142D02*
X180007142Y-106757142D01*
X180150000Y-106685714D01*
X180221428Y-106542856D01*
X180221428Y-106257142D01*
X180150000Y-106114285D01*
X179292857Y-106757142D02*
X179221428Y-106614285D01*
X179221428Y-106257142D01*
X179292857Y-106114285D01*
X179435714Y-106042856D01*
X179578571Y-106042856D01*
X179721428Y-106114285D01*
X179792857Y-106257142D01*
X179792857Y-106614285D01*
X179864285Y-106757142D01*
X180221428Y-107257142D02*
X180221428Y-107828571D01*
X180721428Y-107471428D02*
X179435714Y-107471428D01*
X179292857Y-107542856D01*
X179221428Y-107685714D01*
X179221428Y-107828571D01*
X179292857Y-108899999D02*
X179221428Y-108757142D01*
X179221428Y-108471428D01*
X179292857Y-108328571D01*
X179435714Y-108257142D01*
X180007142Y-108257142D01*
X180150000Y-108328571D01*
X180221428Y-108471428D01*
X180221428Y-108757142D01*
X180150000Y-108899999D01*
X180007142Y-108971428D01*
X179864285Y-108971428D01*
X179721428Y-108257142D01*
X179221428Y-110257142D02*
X180721428Y-110257142D01*
X179292857Y-110257142D02*
X179221428Y-110114285D01*
X179221428Y-109828571D01*
X179292857Y-109685714D01*
X179364285Y-109614285D01*
X179507142Y-109542856D01*
X179935714Y-109542856D01*
X180078571Y-109614285D01*
X180150000Y-109685714D01*
X180221428Y-109828571D01*
X180221428Y-110114285D01*
X180150000Y-110257142D01*
D12*
X136221428Y-71450000D02*
X136050000Y-71364285D01*
X135792857Y-71364285D01*
X135535714Y-71450000D01*
X135364285Y-71621428D01*
X135278571Y-71792857D01*
X135192857Y-72135714D01*
X135192857Y-72392857D01*
X135278571Y-72735714D01*
X135364285Y-72907142D01*
X135535714Y-73078571D01*
X135792857Y-73164285D01*
X135964285Y-73164285D01*
X136221428Y-73078571D01*
X136307142Y-72992857D01*
X136307142Y-72392857D01*
X135964285Y-72392857D01*
X137078571Y-73164285D02*
X137078571Y-71964285D01*
X137078571Y-72307142D02*
X137164285Y-72135714D01*
X137250000Y-72050000D01*
X137421428Y-71964285D01*
X137592857Y-71964285D01*
X138450000Y-73164285D02*
X138278571Y-73078571D01*
X138192857Y-72992857D01*
X138107142Y-72821428D01*
X138107142Y-72307142D01*
X138192857Y-72135714D01*
X138278571Y-72050000D01*
X138450000Y-71964285D01*
X138707142Y-71964285D01*
X138878571Y-72050000D01*
X138964285Y-72135714D01*
X139050000Y-72307142D01*
X139050000Y-72821428D01*
X138964285Y-72992857D01*
X138878571Y-73078571D01*
X138707142Y-73164285D01*
X138450000Y-73164285D01*
X140592857Y-71964285D02*
X140592857Y-73164285D01*
X139821428Y-71964285D02*
X139821428Y-72907142D01*
X139907142Y-73078571D01*
X140078571Y-73164285D01*
X140335714Y-73164285D01*
X140507142Y-73078571D01*
X140592857Y-72992857D01*
X141450000Y-71964285D02*
X141450000Y-73764285D01*
X141450000Y-72050000D02*
X141621428Y-71964285D01*
X141964285Y-71964285D01*
X142135714Y-72050000D01*
X142221428Y-72135714D01*
X142307142Y-72307142D01*
X142307142Y-72821428D01*
X142221428Y-72992857D01*
X142135714Y-73078571D01*
X141964285Y-73164285D01*
X141621428Y-73164285D01*
X141450000Y-73078571D01*
D13*
X136845238Y-68314285D02*
X137416666Y-68504761D01*
X137607142Y-68695238D01*
X137797619Y-69076190D01*
X137797619Y-69647619D01*
X137607142Y-70028571D01*
X137416666Y-70219047D01*
X137035714Y-70409523D01*
X135511904Y-70409523D01*
X135511904Y-66409523D01*
X136845238Y-66409523D01*
X137226190Y-66600000D01*
X137416666Y-66790476D01*
X137607142Y-67171428D01*
X137607142Y-67552380D01*
X137416666Y-67933333D01*
X137226190Y-68123809D01*
X136845238Y-68314285D01*
X135511904Y-68314285D01*
X141226190Y-67742857D02*
X141226190Y-70409523D01*
X139511904Y-67742857D02*
X139511904Y-69838095D01*
X139702380Y-70219047D01*
X140083333Y-70409523D01*
X140654761Y-70409523D01*
X141035714Y-70219047D01*
X141226190Y-70028571D01*
X142940476Y-70219047D02*
X143321428Y-70409523D01*
X144083333Y-70409523D01*
X144464285Y-70219047D01*
X144654761Y-69838095D01*
X144654761Y-69647619D01*
X144464285Y-69266666D01*
X144083333Y-69076190D01*
X143511904Y-69076190D01*
X143130952Y-68885714D01*
X142940476Y-68504761D01*
X142940476Y-68314285D01*
X143130952Y-67933333D01*
X143511904Y-67742857D01*
X144083333Y-67742857D01*
X144464285Y-67933333D01*
X145797619Y-66409523D02*
X148083333Y-66409523D01*
X146940476Y-70409523D02*
X146940476Y-66409523D01*
X150940476Y-70219047D02*
X150559523Y-70409523D01*
X149797619Y-70409523D01*
X149416666Y-70219047D01*
X149226190Y-69838095D01*
X149226190Y-68314285D01*
X149416666Y-67933333D01*
X149797619Y-67742857D01*
X150559523Y-67742857D01*
X150940476Y-67933333D01*
X151130952Y-68314285D01*
X151130952Y-68695238D01*
X149226190Y-69076190D01*
X154559523Y-70219047D02*
X154178571Y-70409523D01*
X153416666Y-70409523D01*
X153035714Y-70219047D01*
X152845238Y-70028571D01*
X152654761Y-69647619D01*
X152654761Y-68504761D01*
X152845238Y-68123809D01*
X153035714Y-67933333D01*
X153416666Y-67742857D01*
X154178571Y-67742857D01*
X154559523Y-67933333D01*
X156273809Y-70409523D02*
X156273809Y-66409523D01*
X157988095Y-70409523D02*
X157988095Y-68314285D01*
X157797619Y-67933333D01*
X157416666Y-67742857D01*
X156845238Y-67742857D01*
X156464285Y-67933333D01*
X156273809Y-68123809D01*
D11*
X108250000Y-153392857D02*
X108750000Y-153392857D01*
X108964285Y-154178571D02*
X108250000Y-154178571D01*
X108250000Y-152678571D01*
X108964285Y-152678571D01*
X109607142Y-154178571D02*
X109607142Y-152678571D01*
X109607142Y-153392857D02*
X110464285Y-153392857D01*
X110464285Y-154178571D02*
X110464285Y-152678571D01*
X111964285Y-152750000D02*
X111821428Y-152678571D01*
X111607142Y-152678571D01*
X111392857Y-152750000D01*
X111250000Y-152892857D01*
X111178571Y-153035714D01*
X111107142Y-153321428D01*
X111107142Y-153535714D01*
X111178571Y-153821428D01*
X111250000Y-153964285D01*
X111392857Y-154107142D01*
X111607142Y-154178571D01*
X111750000Y-154178571D01*
X111964285Y-154107142D01*
X112035714Y-154035714D01*
X112035714Y-153535714D01*
X111750000Y-153535714D01*
X112678571Y-154178571D02*
X112678571Y-152678571D01*
X113535714Y-154178571D01*
X113535714Y-152678571D01*
X114250000Y-153607142D02*
X115392857Y-153607142D01*
X116821428Y-152678571D02*
X116107142Y-152678571D01*
X116035714Y-153392857D01*
X116107142Y-153321428D01*
X116250000Y-153250000D01*
X116607142Y-153250000D01*
X116750000Y-153321428D01*
X116821428Y-153392857D01*
X116892857Y-153535714D01*
X116892857Y-153892857D01*
X116821428Y-154035714D01*
X116750000Y-154107142D01*
X116607142Y-154178571D01*
X116250000Y-154178571D01*
X116107142Y-154107142D01*
X116035714Y-154035714D01*
X117821428Y-152678571D02*
X117964285Y-152678571D01*
X118107142Y-152750000D01*
X118178571Y-152821428D01*
X118250000Y-152964285D01*
X118321428Y-153250000D01*
X118321428Y-153607142D01*
X118250000Y-153892857D01*
X118178571Y-154035714D01*
X118107142Y-154107142D01*
X117964285Y-154178571D01*
X117821428Y-154178571D01*
X117678571Y-154107142D01*
X117607142Y-154035714D01*
X117535714Y-153892857D01*
X117464285Y-153607142D01*
X117464285Y-153250000D01*
X117535714Y-152964285D01*
X117607142Y-152821428D01*
X117678571Y-152750000D01*
X117821428Y-152678571D01*
X119250000Y-152678571D02*
X119392857Y-152678571D01*
X119535714Y-152750000D01*
X119607142Y-152821428D01*
X119678571Y-152964285D01*
X119750000Y-153250000D01*
X119750000Y-153607142D01*
X119678571Y-153892857D01*
X119607142Y-154035714D01*
X119535714Y-154107142D01*
X119392857Y-154178571D01*
X119250000Y-154178571D01*
X119107142Y-154107142D01*
X119035714Y-154035714D01*
X118964285Y-153892857D01*
X118892857Y-153607142D01*
X118892857Y-153250000D01*
X118964285Y-152964285D01*
X119035714Y-152821428D01*
X119107142Y-152750000D01*
X119250000Y-152678571D01*
X120678571Y-152678571D02*
X120821428Y-152678571D01*
X120964285Y-152750000D01*
X121035714Y-152821428D01*
X121107142Y-152964285D01*
X121178571Y-153250000D01*
X121178571Y-153607142D01*
X121107142Y-153892857D01*
X121035714Y-154035714D01*
X120964285Y-154107142D01*
X120821428Y-154178571D01*
X120678571Y-154178571D01*
X120535714Y-154107142D01*
X120464285Y-154035714D01*
X120392857Y-153892857D01*
X120321428Y-153607142D01*
X120321428Y-153250000D01*
X120392857Y-152964285D01*
X120464285Y-152821428D01*
X120535714Y-152750000D01*
X120678571Y-152678571D01*
X121821428Y-153607142D02*
X122964285Y-153607142D01*
X124178571Y-153392857D02*
X123678571Y-153392857D01*
X123678571Y-154178571D02*
X123678571Y-152678571D01*
X124392857Y-152678571D01*
X180800000Y-97885714D02*
X180800000Y-99485714D01*
X179200000Y-99485714D01*
X179200000Y-97885714D01*
X180800000Y-97885714D01*
D14*
%TO.C,R18*%
X125915712Y-110429055D02*
X125439522Y-110762388D01*
X125915712Y-111000483D02*
X124915712Y-111000483D01*
X124915712Y-110619531D01*
X124963332Y-110524293D01*
X125010951Y-110476674D01*
X125106189Y-110429055D01*
X125249046Y-110429055D01*
X125344284Y-110476674D01*
X125391903Y-110524293D01*
X125439522Y-110619531D01*
X125439522Y-111000483D01*
X125915712Y-109476674D02*
X125915712Y-110048102D01*
X125915712Y-109762388D02*
X124915712Y-109762388D01*
X125058570Y-109857626D01*
X125153808Y-109952864D01*
X125201427Y-110048102D01*
X125344284Y-108905245D02*
X125296665Y-109000483D01*
X125249046Y-109048102D01*
X125153808Y-109095721D01*
X125106189Y-109095721D01*
X125010951Y-109048102D01*
X124963332Y-109000483D01*
X124915712Y-108905245D01*
X124915712Y-108714769D01*
X124963332Y-108619531D01*
X125010951Y-108571912D01*
X125106189Y-108524293D01*
X125153808Y-108524293D01*
X125249046Y-108571912D01*
X125296665Y-108619531D01*
X125344284Y-108714769D01*
X125344284Y-108905245D01*
X125391903Y-109000483D01*
X125439522Y-109048102D01*
X125534760Y-109095721D01*
X125725236Y-109095721D01*
X125820474Y-109048102D01*
X125868093Y-109000483D01*
X125915712Y-108905245D01*
X125915712Y-108714769D01*
X125868093Y-108619531D01*
X125820474Y-108571912D01*
X125725236Y-108524293D01*
X125534760Y-108524293D01*
X125439522Y-108571912D01*
X125391903Y-108619531D01*
X125344284Y-108714769D01*
%TO.C,JP5*%
X148752380Y-108633333D02*
X149466666Y-108633333D01*
X149609523Y-108680952D01*
X149704761Y-108776190D01*
X149752380Y-108919047D01*
X149752380Y-109014285D01*
X149752380Y-108157142D02*
X148752380Y-108157142D01*
X148752380Y-107776190D01*
X148800000Y-107680952D01*
X148847619Y-107633333D01*
X148942857Y-107585714D01*
X149085714Y-107585714D01*
X149180952Y-107633333D01*
X149228571Y-107680952D01*
X149276190Y-107776190D01*
X149276190Y-108157142D01*
X148752380Y-106680952D02*
X148752380Y-107157142D01*
X149228571Y-107204761D01*
X149180952Y-107157142D01*
X149133333Y-107061904D01*
X149133333Y-106823809D01*
X149180952Y-106728571D01*
X149228571Y-106680952D01*
X149323809Y-106633333D01*
X149561904Y-106633333D01*
X149657142Y-106680952D01*
X149704761Y-106728571D01*
X149752380Y-106823809D01*
X149752380Y-107061904D01*
X149704761Y-107157142D01*
X149657142Y-107204761D01*
%TO.C,R15*%
X111499046Y-98035956D02*
X111022856Y-98369289D01*
X111499046Y-98607384D02*
X110499046Y-98607384D01*
X110499046Y-98226432D01*
X110546666Y-98131194D01*
X110594285Y-98083575D01*
X110689523Y-98035956D01*
X110832380Y-98035956D01*
X110927618Y-98083575D01*
X110975237Y-98131194D01*
X111022856Y-98226432D01*
X111022856Y-98607384D01*
X111499046Y-97083575D02*
X111499046Y-97655003D01*
X111499046Y-97369289D02*
X110499046Y-97369289D01*
X110641904Y-97464527D01*
X110737142Y-97559765D01*
X110784761Y-97655003D01*
X110499046Y-96178813D02*
X110499046Y-96655003D01*
X110975237Y-96702622D01*
X110927618Y-96655003D01*
X110879999Y-96559765D01*
X110879999Y-96321670D01*
X110927618Y-96226432D01*
X110975237Y-96178813D01*
X111070475Y-96131194D01*
X111308570Y-96131194D01*
X111403808Y-96178813D01*
X111451427Y-96226432D01*
X111499046Y-96321670D01*
X111499046Y-96559765D01*
X111451427Y-96655003D01*
X111403808Y-96702622D01*
%TO.C,D2*%
X154869044Y-75738095D02*
X153869044Y-75738095D01*
X153869044Y-75500000D01*
X153916664Y-75357142D01*
X154011902Y-75261904D01*
X154107140Y-75214285D01*
X154297616Y-75166666D01*
X154440473Y-75166666D01*
X154630949Y-75214285D01*
X154726187Y-75261904D01*
X154821425Y-75357142D01*
X154869044Y-75500000D01*
X154869044Y-75738095D01*
X153964283Y-74785714D02*
X153916664Y-74738095D01*
X153869044Y-74642857D01*
X153869044Y-74404761D01*
X153916664Y-74309523D01*
X153964283Y-74261904D01*
X154059521Y-74214285D01*
X154154759Y-74214285D01*
X154297616Y-74261904D01*
X154869044Y-74833333D01*
X154869044Y-74214285D01*
%TO.C,JP7*%
X120166666Y-147652380D02*
X120166666Y-148366666D01*
X120119047Y-148509523D01*
X120023809Y-148604761D01*
X119880952Y-148652380D01*
X119785714Y-148652380D01*
X120642857Y-148652380D02*
X120642857Y-147652380D01*
X121023809Y-147652380D01*
X121119047Y-147700000D01*
X121166666Y-147747619D01*
X121214285Y-147842857D01*
X121214285Y-147985714D01*
X121166666Y-148080952D01*
X121119047Y-148128571D01*
X121023809Y-148176190D01*
X120642857Y-148176190D01*
X121547619Y-147652380D02*
X122214285Y-147652380D01*
X121785714Y-148652380D01*
%TO.C,R6*%
X169165710Y-109502864D02*
X168689520Y-109836198D01*
X169165710Y-110074293D02*
X168165710Y-110074293D01*
X168165710Y-109693340D01*
X168213330Y-109598102D01*
X168260949Y-109550483D01*
X168356187Y-109502864D01*
X168499044Y-109502864D01*
X168594282Y-109550483D01*
X168641901Y-109598102D01*
X168689520Y-109693340D01*
X168689520Y-110074293D01*
X168165710Y-108645721D02*
X168165710Y-108836198D01*
X168213330Y-108931436D01*
X168260949Y-108979055D01*
X168403806Y-109074293D01*
X168594282Y-109121912D01*
X168975234Y-109121912D01*
X169070472Y-109074293D01*
X169118091Y-109026674D01*
X169165710Y-108931436D01*
X169165710Y-108740959D01*
X169118091Y-108645721D01*
X169070472Y-108598102D01*
X168975234Y-108550483D01*
X168737139Y-108550483D01*
X168641901Y-108598102D01*
X168594282Y-108645721D01*
X168546663Y-108740959D01*
X168546663Y-108931436D01*
X168594282Y-109026674D01*
X168641901Y-109074293D01*
X168737139Y-109121912D01*
%TO.C,D1*%
X174285710Y-75738095D02*
X173285710Y-75738095D01*
X173285710Y-75500000D01*
X173333330Y-75357142D01*
X173428568Y-75261904D01*
X173523806Y-75214285D01*
X173714282Y-75166666D01*
X173857139Y-75166666D01*
X174047615Y-75214285D01*
X174142853Y-75261904D01*
X174238091Y-75357142D01*
X174285710Y-75500000D01*
X174285710Y-75738095D01*
X174285710Y-74214285D02*
X174285710Y-74785714D01*
X174285710Y-74500000D02*
X173285710Y-74500000D01*
X173428568Y-74595238D01*
X173523806Y-74690476D01*
X173571425Y-74785714D01*
%TO.C,JP9*%
X132402380Y-121583333D02*
X133116666Y-121583333D01*
X133259523Y-121630952D01*
X133354761Y-121726190D01*
X133402380Y-121869047D01*
X133402380Y-121964285D01*
X133402380Y-121107142D02*
X132402380Y-121107142D01*
X132402380Y-120726190D01*
X132450000Y-120630952D01*
X132497619Y-120583333D01*
X132592857Y-120535714D01*
X132735714Y-120535714D01*
X132830952Y-120583333D01*
X132878571Y-120630952D01*
X132926190Y-120726190D01*
X132926190Y-121107142D01*
X133402380Y-120059523D02*
X133402380Y-119869047D01*
X133354761Y-119773809D01*
X133307142Y-119726190D01*
X133164285Y-119630952D01*
X132973809Y-119583333D01*
X132592857Y-119583333D01*
X132497619Y-119630952D01*
X132450000Y-119678571D01*
X132402380Y-119773809D01*
X132402380Y-119964285D01*
X132450000Y-120059523D01*
X132497619Y-120107142D01*
X132592857Y-120154761D01*
X132830952Y-120154761D01*
X132926190Y-120107142D01*
X132973809Y-120059523D01*
X133021428Y-119964285D01*
X133021428Y-119773809D01*
X132973809Y-119678571D01*
X132926190Y-119630952D01*
X132830952Y-119583333D01*
%TO.C,R20*%
X154749044Y-122522154D02*
X154272854Y-122855487D01*
X154749044Y-123093582D02*
X153749044Y-123093582D01*
X153749044Y-122712630D01*
X153796664Y-122617392D01*
X153844283Y-122569773D01*
X153939521Y-122522154D01*
X154082378Y-122522154D01*
X154177616Y-122569773D01*
X154225235Y-122617392D01*
X154272854Y-122712630D01*
X154272854Y-123093582D01*
X153844283Y-122141201D02*
X153796664Y-122093582D01*
X153749044Y-121998344D01*
X153749044Y-121760249D01*
X153796664Y-121665011D01*
X153844283Y-121617392D01*
X153939521Y-121569773D01*
X154034759Y-121569773D01*
X154177616Y-121617392D01*
X154749044Y-122188820D01*
X154749044Y-121569773D01*
X153749044Y-120950725D02*
X153749044Y-120855487D01*
X153796664Y-120760249D01*
X153844283Y-120712630D01*
X153939521Y-120665011D01*
X154129997Y-120617392D01*
X154368092Y-120617392D01*
X154558568Y-120665011D01*
X154653806Y-120712630D01*
X154701425Y-120760249D01*
X154749044Y-120855487D01*
X154749044Y-120950725D01*
X154701425Y-121045963D01*
X154653806Y-121093582D01*
X154558568Y-121141201D01*
X154368092Y-121188820D01*
X154129997Y-121188820D01*
X153939521Y-121141201D01*
X153844283Y-121093582D01*
X153796664Y-121045963D01*
X153749044Y-120950725D01*
%TO.C,R12*%
X111499046Y-85642857D02*
X111022856Y-85976190D01*
X111499046Y-86214285D02*
X110499046Y-86214285D01*
X110499046Y-85833333D01*
X110546666Y-85738095D01*
X110594285Y-85690476D01*
X110689523Y-85642857D01*
X110832380Y-85642857D01*
X110927618Y-85690476D01*
X110975237Y-85738095D01*
X111022856Y-85833333D01*
X111022856Y-86214285D01*
X111499046Y-84690476D02*
X111499046Y-85261904D01*
X111499046Y-84976190D02*
X110499046Y-84976190D01*
X110641904Y-85071428D01*
X110737142Y-85166666D01*
X110784761Y-85261904D01*
X110594285Y-84309523D02*
X110546666Y-84261904D01*
X110499046Y-84166666D01*
X110499046Y-83928571D01*
X110546666Y-83833333D01*
X110594285Y-83785714D01*
X110689523Y-83738095D01*
X110784761Y-83738095D01*
X110927618Y-83785714D01*
X111499046Y-84357142D01*
X111499046Y-83738095D01*
%TO.C,TP-L1*%
X132514285Y-128652380D02*
X133085714Y-128652380D01*
X132800000Y-129652380D02*
X132800000Y-128652380D01*
X133419047Y-129652380D02*
X133419047Y-128652380D01*
X133800000Y-128652380D01*
X133895238Y-128700000D01*
X133942857Y-128747619D01*
X133990476Y-128842857D01*
X133990476Y-128985714D01*
X133942857Y-129080952D01*
X133895238Y-129128571D01*
X133800000Y-129176190D01*
X133419047Y-129176190D01*
X134419047Y-129271428D02*
X135180952Y-129271428D01*
X136133333Y-129652380D02*
X135657142Y-129652380D01*
X135657142Y-128652380D01*
X136990476Y-129652380D02*
X136419047Y-129652380D01*
X136704761Y-129652380D02*
X136704761Y-128652380D01*
X136609523Y-128795238D01*
X136514285Y-128890476D01*
X136419047Y-128938095D01*
%TO.C,R24*%
X125915712Y-135215253D02*
X125439522Y-135548586D01*
X125915712Y-135786681D02*
X124915712Y-135786681D01*
X124915712Y-135405729D01*
X124963332Y-135310491D01*
X125010951Y-135262872D01*
X125106189Y-135215253D01*
X125249046Y-135215253D01*
X125344284Y-135262872D01*
X125391903Y-135310491D01*
X125439522Y-135405729D01*
X125439522Y-135786681D01*
X125010951Y-134834300D02*
X124963332Y-134786681D01*
X124915712Y-134691443D01*
X124915712Y-134453348D01*
X124963332Y-134358110D01*
X125010951Y-134310491D01*
X125106189Y-134262872D01*
X125201427Y-134262872D01*
X125344284Y-134310491D01*
X125915712Y-134881919D01*
X125915712Y-134262872D01*
X125249046Y-133405729D02*
X125915712Y-133405729D01*
X124868093Y-133643824D02*
X125582379Y-133881919D01*
X125582379Y-133262872D01*
%TO.C,TP-R1*%
X147519047Y-128602380D02*
X148090476Y-128602380D01*
X147804761Y-129602380D02*
X147804761Y-128602380D01*
X148423809Y-129602380D02*
X148423809Y-128602380D01*
X148804761Y-128602380D01*
X148900000Y-128650000D01*
X148947619Y-128697619D01*
X148995238Y-128792857D01*
X148995238Y-128935714D01*
X148947619Y-129030952D01*
X148900000Y-129078571D01*
X148804761Y-129126190D01*
X148423809Y-129126190D01*
X149423809Y-129221428D02*
X150185714Y-129221428D01*
X151233333Y-129602380D02*
X150900000Y-129126190D01*
X150661904Y-129602380D02*
X150661904Y-128602380D01*
X151042857Y-128602380D01*
X151138095Y-128650000D01*
X151185714Y-128697619D01*
X151233333Y-128792857D01*
X151233333Y-128935714D01*
X151185714Y-129030952D01*
X151138095Y-129078571D01*
X151042857Y-129126190D01*
X150661904Y-129126190D01*
X152185714Y-129602380D02*
X151614285Y-129602380D01*
X151900000Y-129602380D02*
X151900000Y-128602380D01*
X151804761Y-128745238D01*
X151709523Y-128840476D01*
X151614285Y-128888095D01*
%TO.C,R28*%
X111499046Y-147608355D02*
X111022856Y-147941688D01*
X111499046Y-148179783D02*
X110499046Y-148179783D01*
X110499046Y-147798831D01*
X110546666Y-147703593D01*
X110594285Y-147655974D01*
X110689523Y-147608355D01*
X110832380Y-147608355D01*
X110927618Y-147655974D01*
X110975237Y-147703593D01*
X111022856Y-147798831D01*
X111022856Y-148179783D01*
X110594285Y-147227402D02*
X110546666Y-147179783D01*
X110499046Y-147084545D01*
X110499046Y-146846450D01*
X110546666Y-146751212D01*
X110594285Y-146703593D01*
X110689523Y-146655974D01*
X110784761Y-146655974D01*
X110927618Y-146703593D01*
X111499046Y-147275021D01*
X111499046Y-146655974D01*
X110927618Y-146084545D02*
X110879999Y-146179783D01*
X110832380Y-146227402D01*
X110737142Y-146275021D01*
X110689523Y-146275021D01*
X110594285Y-146227402D01*
X110546666Y-146179783D01*
X110499046Y-146084545D01*
X110499046Y-145894069D01*
X110546666Y-145798831D01*
X110594285Y-145751212D01*
X110689523Y-145703593D01*
X110737142Y-145703593D01*
X110832380Y-145751212D01*
X110879999Y-145798831D01*
X110927618Y-145894069D01*
X110927618Y-146084545D01*
X110975237Y-146179783D01*
X111022856Y-146227402D01*
X111118094Y-146275021D01*
X111308570Y-146275021D01*
X111403808Y-146227402D01*
X111451427Y-146179783D01*
X111499046Y-146084545D01*
X111499046Y-145894069D01*
X111451427Y-145798831D01*
X111403808Y-145751212D01*
X111308570Y-145703593D01*
X111118094Y-145703593D01*
X111022856Y-145751212D01*
X110975237Y-145798831D01*
X110927618Y-145894069D01*
%TO.C,J3*%
X139573332Y-123877380D02*
X139573332Y-124591666D01*
X139525713Y-124734523D01*
X139430475Y-124829761D01*
X139287618Y-124877380D01*
X139192380Y-124877380D01*
X139954285Y-123877380D02*
X140573332Y-123877380D01*
X140239999Y-124258333D01*
X140382856Y-124258333D01*
X140478094Y-124305952D01*
X140525713Y-124353571D01*
X140573332Y-124448809D01*
X140573332Y-124686904D01*
X140525713Y-124782142D01*
X140478094Y-124829761D01*
X140382856Y-124877380D01*
X140097142Y-124877380D01*
X140001904Y-124829761D01*
X139954285Y-124782142D01*
%TO.C,R8*%
X169165710Y-134589062D02*
X168689520Y-134922396D01*
X169165710Y-135160491D02*
X168165710Y-135160491D01*
X168165710Y-134779538D01*
X168213330Y-134684300D01*
X168260949Y-134636681D01*
X168356187Y-134589062D01*
X168499044Y-134589062D01*
X168594282Y-134636681D01*
X168641901Y-134684300D01*
X168689520Y-134779538D01*
X168689520Y-135160491D01*
X168594282Y-134017634D02*
X168546663Y-134112872D01*
X168499044Y-134160491D01*
X168403806Y-134208110D01*
X168356187Y-134208110D01*
X168260949Y-134160491D01*
X168213330Y-134112872D01*
X168165710Y-134017634D01*
X168165710Y-133827157D01*
X168213330Y-133731919D01*
X168260949Y-133684300D01*
X168356187Y-133636681D01*
X168403806Y-133636681D01*
X168499044Y-133684300D01*
X168546663Y-133731919D01*
X168594282Y-133827157D01*
X168594282Y-134017634D01*
X168641901Y-134112872D01*
X168689520Y-134160491D01*
X168784758Y-134208110D01*
X168975234Y-134208110D01*
X169070472Y-134160491D01*
X169118091Y-134112872D01*
X169165710Y-134017634D01*
X169165710Y-133827157D01*
X169118091Y-133731919D01*
X169070472Y-133684300D01*
X168975234Y-133636681D01*
X168784758Y-133636681D01*
X168689520Y-133684300D01*
X168641901Y-133731919D01*
X168594282Y-133827157D01*
%TO.C,R25*%
X111499046Y-135215253D02*
X111022856Y-135548586D01*
X111499046Y-135786681D02*
X110499046Y-135786681D01*
X110499046Y-135405729D01*
X110546666Y-135310491D01*
X110594285Y-135262872D01*
X110689523Y-135215253D01*
X110832380Y-135215253D01*
X110927618Y-135262872D01*
X110975237Y-135310491D01*
X111022856Y-135405729D01*
X111022856Y-135786681D01*
X110594285Y-134834300D02*
X110546666Y-134786681D01*
X110499046Y-134691443D01*
X110499046Y-134453348D01*
X110546666Y-134358110D01*
X110594285Y-134310491D01*
X110689523Y-134262872D01*
X110784761Y-134262872D01*
X110927618Y-134310491D01*
X111499046Y-134881919D01*
X111499046Y-134262872D01*
X110499046Y-133358110D02*
X110499046Y-133834300D01*
X110975237Y-133881919D01*
X110927618Y-133834300D01*
X110879999Y-133739062D01*
X110879999Y-133500967D01*
X110927618Y-133405729D01*
X110975237Y-133358110D01*
X111070475Y-133310491D01*
X111308570Y-133310491D01*
X111403808Y-133358110D01*
X111451427Y-133405729D01*
X111499046Y-133500967D01*
X111499046Y-133739062D01*
X111451427Y-133834300D01*
X111403808Y-133881919D01*
%TO.C,JP8*%
X152252380Y-121583333D02*
X152966666Y-121583333D01*
X153109523Y-121630952D01*
X153204761Y-121726190D01*
X153252380Y-121869047D01*
X153252380Y-121964285D01*
X153252380Y-121107142D02*
X152252380Y-121107142D01*
X152252380Y-120726190D01*
X152300000Y-120630952D01*
X152347619Y-120583333D01*
X152442857Y-120535714D01*
X152585714Y-120535714D01*
X152680952Y-120583333D01*
X152728571Y-120630952D01*
X152776190Y-120726190D01*
X152776190Y-121107142D01*
X152680952Y-119964285D02*
X152633333Y-120059523D01*
X152585714Y-120107142D01*
X152490476Y-120154761D01*
X152442857Y-120154761D01*
X152347619Y-120107142D01*
X152300000Y-120059523D01*
X152252380Y-119964285D01*
X152252380Y-119773809D01*
X152300000Y-119678571D01*
X152347619Y-119630952D01*
X152442857Y-119583333D01*
X152490476Y-119583333D01*
X152585714Y-119630952D01*
X152633333Y-119678571D01*
X152680952Y-119773809D01*
X152680952Y-119964285D01*
X152728571Y-120059523D01*
X152776190Y-120107142D01*
X152871428Y-120154761D01*
X153061904Y-120154761D01*
X153157142Y-120107142D01*
X153204761Y-120059523D01*
X153252380Y-119964285D01*
X153252380Y-119773809D01*
X153204761Y-119678571D01*
X153157142Y-119630952D01*
X153061904Y-119583333D01*
X152871428Y-119583333D01*
X152776190Y-119630952D01*
X152728571Y-119678571D01*
X152680952Y-119773809D01*
%TO.C,R13*%
X169165710Y-97435956D02*
X168689520Y-97769289D01*
X169165710Y-98007384D02*
X168165710Y-98007384D01*
X168165710Y-97626432D01*
X168213330Y-97531194D01*
X168260949Y-97483575D01*
X168356187Y-97435956D01*
X168499044Y-97435956D01*
X168594282Y-97483575D01*
X168641901Y-97531194D01*
X168689520Y-97626432D01*
X168689520Y-98007384D01*
X169165710Y-96483575D02*
X169165710Y-97055003D01*
X169165710Y-96769289D02*
X168165710Y-96769289D01*
X168308568Y-96864527D01*
X168403806Y-96959765D01*
X168451425Y-97055003D01*
X168165710Y-96150241D02*
X168165710Y-95531194D01*
X168546663Y-95864527D01*
X168546663Y-95721670D01*
X168594282Y-95626432D01*
X168641901Y-95578813D01*
X168737139Y-95531194D01*
X168975234Y-95531194D01*
X169070472Y-95578813D01*
X169118091Y-95626432D01*
X169165710Y-95721670D01*
X169165710Y-96007384D01*
X169118091Y-96102622D01*
X169070472Y-96150241D01*
%TO.C,D4*%
X112928570Y-75452380D02*
X112928570Y-74452380D01*
X113166666Y-74452380D01*
X113309523Y-74500000D01*
X113404761Y-74595238D01*
X113452380Y-74690476D01*
X113499999Y-74880952D01*
X113499999Y-75023809D01*
X113452380Y-75214285D01*
X113404761Y-75309523D01*
X113309523Y-75404761D01*
X113166666Y-75452380D01*
X112928570Y-75452380D01*
X114357142Y-74785714D02*
X114357142Y-75452380D01*
X114119046Y-74404761D02*
X113880951Y-75119047D01*
X114499999Y-75119047D01*
%TO.C,R19*%
X111499046Y-110429055D02*
X111022856Y-110762388D01*
X111499046Y-111000483D02*
X110499046Y-111000483D01*
X110499046Y-110619531D01*
X110546666Y-110524293D01*
X110594285Y-110476674D01*
X110689523Y-110429055D01*
X110832380Y-110429055D01*
X110927618Y-110476674D01*
X110975237Y-110524293D01*
X111022856Y-110619531D01*
X111022856Y-111000483D01*
X111499046Y-109476674D02*
X111499046Y-110048102D01*
X111499046Y-109762388D02*
X110499046Y-109762388D01*
X110641904Y-109857626D01*
X110737142Y-109952864D01*
X110784761Y-110048102D01*
X111499046Y-109000483D02*
X111499046Y-108810007D01*
X111451427Y-108714769D01*
X111403808Y-108667150D01*
X111260951Y-108571912D01*
X111070475Y-108524293D01*
X110689523Y-108524293D01*
X110594285Y-108571912D01*
X110546666Y-108619531D01*
X110499046Y-108714769D01*
X110499046Y-108905245D01*
X110546666Y-109000483D01*
X110594285Y-109048102D01*
X110689523Y-109095721D01*
X110927618Y-109095721D01*
X111022856Y-109048102D01*
X111070475Y-109000483D01*
X111118094Y-108905245D01*
X111118094Y-108714769D01*
X111070475Y-108619531D01*
X111022856Y-108571912D01*
X110927618Y-108524293D01*
%TO.C,J2*%
X145609998Y-123877380D02*
X145609998Y-124591666D01*
X145562379Y-124734523D01*
X145467141Y-124829761D01*
X145324284Y-124877380D01*
X145229046Y-124877380D01*
X146038570Y-123972619D02*
X146086189Y-123925000D01*
X146181427Y-123877380D01*
X146419522Y-123877380D01*
X146514760Y-123925000D01*
X146562379Y-123972619D01*
X146609998Y-124067857D01*
X146609998Y-124163095D01*
X146562379Y-124305952D01*
X145990951Y-124877380D01*
X146609998Y-124877380D01*
%TO.C,R14*%
X125915712Y-98035956D02*
X125439522Y-98369289D01*
X125915712Y-98607384D02*
X124915712Y-98607384D01*
X124915712Y-98226432D01*
X124963332Y-98131194D01*
X125010951Y-98083575D01*
X125106189Y-98035956D01*
X125249046Y-98035956D01*
X125344284Y-98083575D01*
X125391903Y-98131194D01*
X125439522Y-98226432D01*
X125439522Y-98607384D01*
X125915712Y-97083575D02*
X125915712Y-97655003D01*
X125915712Y-97369289D02*
X124915712Y-97369289D01*
X125058570Y-97464527D01*
X125153808Y-97559765D01*
X125201427Y-97655003D01*
X125249046Y-96226432D02*
X125915712Y-96226432D01*
X124868093Y-96464527D02*
X125582379Y-96702622D01*
X125582379Y-96083575D01*
%TO.C,R23*%
X154749044Y-135065253D02*
X154272854Y-135398586D01*
X154749044Y-135636681D02*
X153749044Y-135636681D01*
X153749044Y-135255729D01*
X153796664Y-135160491D01*
X153844283Y-135112872D01*
X153939521Y-135065253D01*
X154082378Y-135065253D01*
X154177616Y-135112872D01*
X154225235Y-135160491D01*
X154272854Y-135255729D01*
X154272854Y-135636681D01*
X153844283Y-134684300D02*
X153796664Y-134636681D01*
X153749044Y-134541443D01*
X153749044Y-134303348D01*
X153796664Y-134208110D01*
X153844283Y-134160491D01*
X153939521Y-134112872D01*
X154034759Y-134112872D01*
X154177616Y-134160491D01*
X154749044Y-134731919D01*
X154749044Y-134112872D01*
X153749044Y-133779538D02*
X153749044Y-133160491D01*
X154129997Y-133493824D01*
X154129997Y-133350967D01*
X154177616Y-133255729D01*
X154225235Y-133208110D01*
X154320473Y-133160491D01*
X154558568Y-133160491D01*
X154653806Y-133208110D01*
X154701425Y-133255729D01*
X154749044Y-133350967D01*
X154749044Y-133636681D01*
X154701425Y-133731919D01*
X154653806Y-133779538D01*
%TO.C,R11*%
X125915712Y-85642857D02*
X125439522Y-85976190D01*
X125915712Y-86214285D02*
X124915712Y-86214285D01*
X124915712Y-85833333D01*
X124963332Y-85738095D01*
X125010951Y-85690476D01*
X125106189Y-85642857D01*
X125249046Y-85642857D01*
X125344284Y-85690476D01*
X125391903Y-85738095D01*
X125439522Y-85833333D01*
X125439522Y-86214285D01*
X125915712Y-84690476D02*
X125915712Y-85261904D01*
X125915712Y-84976190D02*
X124915712Y-84976190D01*
X125058570Y-85071428D01*
X125153808Y-85166666D01*
X125201427Y-85261904D01*
X125915712Y-83738095D02*
X125915712Y-84309523D01*
X125915712Y-84023809D02*
X124915712Y-84023809D01*
X125058570Y-84119047D01*
X125153808Y-84214285D01*
X125201427Y-84309523D01*
%TO.C,R4*%
X166333333Y-72452380D02*
X166000000Y-71976190D01*
X165761904Y-72452380D02*
X165761904Y-71452380D01*
X166142857Y-71452380D01*
X166238095Y-71500000D01*
X166285714Y-71547619D01*
X166333333Y-71642857D01*
X166333333Y-71785714D01*
X166285714Y-71880952D01*
X166238095Y-71928571D01*
X166142857Y-71976190D01*
X165761904Y-71976190D01*
X167190476Y-71785714D02*
X167190476Y-72452380D01*
X166952380Y-71404761D02*
X166714285Y-72119047D01*
X167333333Y-72119047D01*
%TO.C,R5*%
X164483333Y-66702380D02*
X164150000Y-66226190D01*
X163911904Y-66702380D02*
X163911904Y-65702380D01*
X164292857Y-65702380D01*
X164388095Y-65750000D01*
X164435714Y-65797619D01*
X164483333Y-65892857D01*
X164483333Y-66035714D01*
X164435714Y-66130952D01*
X164388095Y-66178571D01*
X164292857Y-66226190D01*
X163911904Y-66226190D01*
X165388095Y-65702380D02*
X164911904Y-65702380D01*
X164864285Y-66178571D01*
X164911904Y-66130952D01*
X165007142Y-66083333D01*
X165245238Y-66083333D01*
X165340476Y-66130952D01*
X165388095Y-66178571D01*
X165435714Y-66273809D01*
X165435714Y-66511904D01*
X165388095Y-66607142D01*
X165340476Y-66654761D01*
X165245238Y-66702380D01*
X165007142Y-66702380D01*
X164911904Y-66654761D01*
X164864285Y-66607142D01*
%TO.C,TP-L2*%
X132514285Y-115652380D02*
X133085714Y-115652380D01*
X132800000Y-116652380D02*
X132800000Y-115652380D01*
X133419047Y-116652380D02*
X133419047Y-115652380D01*
X133800000Y-115652380D01*
X133895238Y-115700000D01*
X133942857Y-115747619D01*
X133990476Y-115842857D01*
X133990476Y-115985714D01*
X133942857Y-116080952D01*
X133895238Y-116128571D01*
X133800000Y-116176190D01*
X133419047Y-116176190D01*
X134419047Y-116271428D02*
X135180952Y-116271428D01*
X136133333Y-116652380D02*
X135657142Y-116652380D01*
X135657142Y-115652380D01*
X136419047Y-115747619D02*
X136466666Y-115700000D01*
X136561904Y-115652380D01*
X136800000Y-115652380D01*
X136895238Y-115700000D01*
X136942857Y-115747619D01*
X136990476Y-115842857D01*
X136990476Y-115938095D01*
X136942857Y-116080952D01*
X136371428Y-116652380D01*
X136990476Y-116652380D01*
%TO.C,D5*%
X146511904Y-79202380D02*
X146511904Y-78202380D01*
X146750000Y-78202380D01*
X146892857Y-78250000D01*
X146988095Y-78345238D01*
X147035714Y-78440476D01*
X147083333Y-78630952D01*
X147083333Y-78773809D01*
X147035714Y-78964285D01*
X146988095Y-79059523D01*
X146892857Y-79154761D01*
X146750000Y-79202380D01*
X146511904Y-79202380D01*
X147988095Y-78202380D02*
X147511904Y-78202380D01*
X147464285Y-78678571D01*
X147511904Y-78630952D01*
X147607142Y-78583333D01*
X147845238Y-78583333D01*
X147940476Y-78630952D01*
X147988095Y-78678571D01*
X148035714Y-78773809D01*
X148035714Y-79011904D01*
X147988095Y-79107142D01*
X147940476Y-79154761D01*
X147845238Y-79202380D01*
X147607142Y-79202380D01*
X147511904Y-79154761D01*
X147464285Y-79107142D01*
%TO.C,R27*%
X125915712Y-147608355D02*
X125439522Y-147941688D01*
X125915712Y-148179783D02*
X124915712Y-148179783D01*
X124915712Y-147798831D01*
X124963332Y-147703593D01*
X125010951Y-147655974D01*
X125106189Y-147608355D01*
X125249046Y-147608355D01*
X125344284Y-147655974D01*
X125391903Y-147703593D01*
X125439522Y-147798831D01*
X125439522Y-148179783D01*
X125010951Y-147227402D02*
X124963332Y-147179783D01*
X124915712Y-147084545D01*
X124915712Y-146846450D01*
X124963332Y-146751212D01*
X125010951Y-146703593D01*
X125106189Y-146655974D01*
X125201427Y-146655974D01*
X125344284Y-146703593D01*
X125915712Y-147275021D01*
X125915712Y-146655974D01*
X124915712Y-146322640D02*
X124915712Y-145655974D01*
X125915712Y-146084545D01*
%TO.C,BP-R1*%
X162101187Y-81678571D02*
X162244044Y-81726190D01*
X162291663Y-81773809D01*
X162339282Y-81869047D01*
X162339282Y-82011904D01*
X162291663Y-82107142D01*
X162244044Y-82154761D01*
X162148806Y-82202380D01*
X161767854Y-82202380D01*
X161767854Y-81202380D01*
X162101187Y-81202380D01*
X162196425Y-81250000D01*
X162244044Y-81297619D01*
X162291663Y-81392857D01*
X162291663Y-81488095D01*
X162244044Y-81583333D01*
X162196425Y-81630952D01*
X162101187Y-81678571D01*
X161767854Y-81678571D01*
X162767854Y-82202380D02*
X162767854Y-81202380D01*
X163148806Y-81202380D01*
X163244044Y-81250000D01*
X163291663Y-81297619D01*
X163339282Y-81392857D01*
X163339282Y-81535714D01*
X163291663Y-81630952D01*
X163244044Y-81678571D01*
X163148806Y-81726190D01*
X162767854Y-81726190D01*
X163767854Y-81821428D02*
X164529758Y-81821428D01*
X165577377Y-82202380D02*
X165244044Y-81726190D01*
X165005949Y-82202380D02*
X165005949Y-81202380D01*
X165386901Y-81202380D01*
X165482139Y-81250000D01*
X165529758Y-81297619D01*
X165577377Y-81392857D01*
X165577377Y-81535714D01*
X165529758Y-81630952D01*
X165482139Y-81678571D01*
X165386901Y-81726190D01*
X165005949Y-81726190D01*
X166529758Y-82202380D02*
X165958330Y-82202380D01*
X166244044Y-82202380D02*
X166244044Y-81202380D01*
X166148806Y-81345238D01*
X166053568Y-81440476D01*
X165958330Y-81488095D01*
%TO.C,R1*%
X154749044Y-84416666D02*
X154272854Y-84750000D01*
X154749044Y-84988095D02*
X153749044Y-84988095D01*
X153749044Y-84607142D01*
X153796664Y-84511904D01*
X153844283Y-84464285D01*
X153939521Y-84416666D01*
X154082378Y-84416666D01*
X154177616Y-84464285D01*
X154225235Y-84511904D01*
X154272854Y-84607142D01*
X154272854Y-84988095D01*
X154749044Y-83464285D02*
X154749044Y-84035714D01*
X154749044Y-83750000D02*
X153749044Y-83750000D01*
X153891902Y-83845238D01*
X153987140Y-83940476D01*
X154034759Y-84035714D01*
%TO.C,TP-R2*%
X147519047Y-115627380D02*
X148090476Y-115627380D01*
X147804761Y-116627380D02*
X147804761Y-115627380D01*
X148423809Y-116627380D02*
X148423809Y-115627380D01*
X148804761Y-115627380D01*
X148900000Y-115675000D01*
X148947619Y-115722619D01*
X148995238Y-115817857D01*
X148995238Y-115960714D01*
X148947619Y-116055952D01*
X148900000Y-116103571D01*
X148804761Y-116151190D01*
X148423809Y-116151190D01*
X149423809Y-116246428D02*
X150185714Y-116246428D01*
X151233333Y-116627380D02*
X150900000Y-116151190D01*
X150661904Y-116627380D02*
X150661904Y-115627380D01*
X151042857Y-115627380D01*
X151138095Y-115675000D01*
X151185714Y-115722619D01*
X151233333Y-115817857D01*
X151233333Y-115960714D01*
X151185714Y-116055952D01*
X151138095Y-116103571D01*
X151042857Y-116151190D01*
X150661904Y-116151190D01*
X151614285Y-115722619D02*
X151661904Y-115675000D01*
X151757142Y-115627380D01*
X151995238Y-115627380D01*
X152090476Y-115675000D01*
X152138095Y-115722619D01*
X152185714Y-115817857D01*
X152185714Y-115913095D01*
X152138095Y-116055952D01*
X151566666Y-116627380D01*
X152185714Y-116627380D01*
%TO.C,D3*%
X126035712Y-75738095D02*
X125035712Y-75738095D01*
X125035712Y-75500000D01*
X125083332Y-75357142D01*
X125178570Y-75261904D01*
X125273808Y-75214285D01*
X125464284Y-75166666D01*
X125607141Y-75166666D01*
X125797617Y-75214285D01*
X125892855Y-75261904D01*
X125988093Y-75357142D01*
X126035712Y-75500000D01*
X126035712Y-75738095D01*
X125035712Y-74833333D02*
X125035712Y-74214285D01*
X125416665Y-74547619D01*
X125416665Y-74404761D01*
X125464284Y-74309523D01*
X125511903Y-74261904D01*
X125607141Y-74214285D01*
X125845236Y-74214285D01*
X125940474Y-74261904D01*
X125988093Y-74309523D01*
X126035712Y-74404761D01*
X126035712Y-74690476D01*
X125988093Y-74785714D01*
X125940474Y-74833333D01*
%TO.C,R17*%
X154749044Y-109979055D02*
X154272854Y-110312388D01*
X154749044Y-110550483D02*
X153749044Y-110550483D01*
X153749044Y-110169531D01*
X153796664Y-110074293D01*
X153844283Y-110026674D01*
X153939521Y-109979055D01*
X154082378Y-109979055D01*
X154177616Y-110026674D01*
X154225235Y-110074293D01*
X154272854Y-110169531D01*
X154272854Y-110550483D01*
X154749044Y-109026674D02*
X154749044Y-109598102D01*
X154749044Y-109312388D02*
X153749044Y-109312388D01*
X153891902Y-109407626D01*
X153987140Y-109502864D01*
X154034759Y-109598102D01*
X153749044Y-108693340D02*
X153749044Y-108026674D01*
X154749044Y-108455245D01*
%TO.C,R7*%
X169165710Y-122045963D02*
X168689520Y-122379297D01*
X169165710Y-122617392D02*
X168165710Y-122617392D01*
X168165710Y-122236439D01*
X168213330Y-122141201D01*
X168260949Y-122093582D01*
X168356187Y-122045963D01*
X168499044Y-122045963D01*
X168594282Y-122093582D01*
X168641901Y-122141201D01*
X168689520Y-122236439D01*
X168689520Y-122617392D01*
X168165710Y-121712630D02*
X168165710Y-121045963D01*
X169165710Y-121474535D01*
%TO.C,BP-L1*%
X118946427Y-82428571D02*
X119089284Y-82476190D01*
X119136903Y-82523809D01*
X119184522Y-82619047D01*
X119184522Y-82761904D01*
X119136903Y-82857142D01*
X119089284Y-82904761D01*
X118994046Y-82952380D01*
X118613094Y-82952380D01*
X118613094Y-81952380D01*
X118946427Y-81952380D01*
X119041665Y-82000000D01*
X119089284Y-82047619D01*
X119136903Y-82142857D01*
X119136903Y-82238095D01*
X119089284Y-82333333D01*
X119041665Y-82380952D01*
X118946427Y-82428571D01*
X118613094Y-82428571D01*
X119613094Y-82952380D02*
X119613094Y-81952380D01*
X119994046Y-81952380D01*
X120089284Y-82000000D01*
X120136903Y-82047619D01*
X120184522Y-82142857D01*
X120184522Y-82285714D01*
X120136903Y-82380952D01*
X120089284Y-82428571D01*
X119994046Y-82476190D01*
X119613094Y-82476190D01*
X120613094Y-82571428D02*
X121374999Y-82571428D01*
X122327379Y-82952380D02*
X121851189Y-82952380D01*
X121851189Y-81952380D01*
X123184522Y-82952380D02*
X122613094Y-82952380D01*
X122898808Y-82952380D02*
X122898808Y-81952380D01*
X122803570Y-82095238D01*
X122708332Y-82190476D01*
X122613094Y-82238095D01*
%TO.C,JP6*%
X153752380Y-143333333D02*
X154466666Y-143333333D01*
X154609523Y-143380952D01*
X154704761Y-143476190D01*
X154752380Y-143619047D01*
X154752380Y-143714285D01*
X154752380Y-142857142D02*
X153752380Y-142857142D01*
X153752380Y-142476190D01*
X153800000Y-142380952D01*
X153847619Y-142333333D01*
X153942857Y-142285714D01*
X154085714Y-142285714D01*
X154180952Y-142333333D01*
X154228571Y-142380952D01*
X154276190Y-142476190D01*
X154276190Y-142857142D01*
X153752380Y-141428571D02*
X153752380Y-141619047D01*
X153800000Y-141714285D01*
X153847619Y-141761904D01*
X153990476Y-141857142D01*
X154180952Y-141904761D01*
X154561904Y-141904761D01*
X154657142Y-141857142D01*
X154704761Y-141809523D01*
X154752380Y-141714285D01*
X154752380Y-141523809D01*
X154704761Y-141428571D01*
X154657142Y-141380952D01*
X154561904Y-141333333D01*
X154323809Y-141333333D01*
X154228571Y-141380952D01*
X154180952Y-141428571D01*
X154133333Y-141523809D01*
X154133333Y-141714285D01*
X154180952Y-141809523D01*
X154228571Y-141857142D01*
X154323809Y-141904761D01*
%TO.C,BP-L2*%
X132871428Y-135878571D02*
X133014285Y-135926190D01*
X133061904Y-135973809D01*
X133109523Y-136069047D01*
X133109523Y-136211904D01*
X133061904Y-136307142D01*
X133014285Y-136354761D01*
X132919047Y-136402380D01*
X132538095Y-136402380D01*
X132538095Y-135402380D01*
X132871428Y-135402380D01*
X132966666Y-135450000D01*
X133014285Y-135497619D01*
X133061904Y-135592857D01*
X133061904Y-135688095D01*
X133014285Y-135783333D01*
X132966666Y-135830952D01*
X132871428Y-135878571D01*
X132538095Y-135878571D01*
X133538095Y-136402380D02*
X133538095Y-135402380D01*
X133919047Y-135402380D01*
X134014285Y-135450000D01*
X134061904Y-135497619D01*
X134109523Y-135592857D01*
X134109523Y-135735714D01*
X134061904Y-135830952D01*
X134014285Y-135878571D01*
X133919047Y-135926190D01*
X133538095Y-135926190D01*
X134538095Y-136021428D02*
X135300000Y-136021428D01*
X136252380Y-136402380D02*
X135776190Y-136402380D01*
X135776190Y-135402380D01*
X136538095Y-135497619D02*
X136585714Y-135450000D01*
X136680952Y-135402380D01*
X136919047Y-135402380D01*
X137014285Y-135450000D01*
X137061904Y-135497619D01*
X137109523Y-135592857D01*
X137109523Y-135688095D01*
X137061904Y-135830952D01*
X136490476Y-136402380D01*
X137109523Y-136402380D01*
%TO.C,R2*%
X154749044Y-96959765D02*
X154272854Y-97293099D01*
X154749044Y-97531194D02*
X153749044Y-97531194D01*
X153749044Y-97150241D01*
X153796664Y-97055003D01*
X153844283Y-97007384D01*
X153939521Y-96959765D01*
X154082378Y-96959765D01*
X154177616Y-97007384D01*
X154225235Y-97055003D01*
X154272854Y-97150241D01*
X154272854Y-97531194D01*
X153844283Y-96578813D02*
X153796664Y-96531194D01*
X153749044Y-96435956D01*
X153749044Y-96197860D01*
X153796664Y-96102622D01*
X153844283Y-96055003D01*
X153939521Y-96007384D01*
X154034759Y-96007384D01*
X154177616Y-96055003D01*
X154749044Y-96626432D01*
X154749044Y-96007384D01*
D15*
%TO.C,J1*%
X142026666Y-45011630D02*
X142026666Y-45918773D01*
X141966190Y-46100202D01*
X141845238Y-46221154D01*
X141663809Y-46281630D01*
X141542857Y-46281630D01*
X143296666Y-46281630D02*
X142570952Y-46281630D01*
X142933809Y-46281630D02*
X142933809Y-45011630D01*
X142812857Y-45193059D01*
X142691904Y-45314011D01*
X142570952Y-45374487D01*
D14*
%TO.C,K1*%
X141761904Y-82524880D02*
X141761904Y-81524880D01*
X142333333Y-82524880D02*
X141904761Y-81953452D01*
X142333333Y-81524880D02*
X141761904Y-82096309D01*
X143285714Y-82524880D02*
X142714285Y-82524880D01*
X143000000Y-82524880D02*
X143000000Y-81524880D01*
X142904761Y-81667738D01*
X142809523Y-81762976D01*
X142714285Y-81810595D01*
%TO.C,R10*%
X169165710Y-84892857D02*
X168689520Y-85226190D01*
X169165710Y-85464285D02*
X168165710Y-85464285D01*
X168165710Y-85083333D01*
X168213330Y-84988095D01*
X168260949Y-84940476D01*
X168356187Y-84892857D01*
X168499044Y-84892857D01*
X168594282Y-84940476D01*
X168641901Y-84988095D01*
X168689520Y-85083333D01*
X168689520Y-85464285D01*
X169165710Y-83940476D02*
X169165710Y-84511904D01*
X169165710Y-84226190D02*
X168165710Y-84226190D01*
X168308568Y-84321428D01*
X168403806Y-84416666D01*
X168451425Y-84511904D01*
X168165710Y-83321428D02*
X168165710Y-83226190D01*
X168213330Y-83130952D01*
X168260949Y-83083333D01*
X168356187Y-83035714D01*
X168546663Y-82988095D01*
X168784758Y-82988095D01*
X168975234Y-83035714D01*
X169070472Y-83083333D01*
X169118091Y-83130952D01*
X169165710Y-83226190D01*
X169165710Y-83321428D01*
X169118091Y-83416666D01*
X169070472Y-83464285D01*
X168975234Y-83511904D01*
X168784758Y-83559523D01*
X168546663Y-83559523D01*
X168356187Y-83511904D01*
X168260949Y-83464285D01*
X168213330Y-83416666D01*
X168165710Y-83321428D01*
%TO.C,JP3*%
X135202380Y-108633333D02*
X135916666Y-108633333D01*
X136059523Y-108680952D01*
X136154761Y-108776190D01*
X136202380Y-108919047D01*
X136202380Y-109014285D01*
X136202380Y-108157142D02*
X135202380Y-108157142D01*
X135202380Y-107776190D01*
X135250000Y-107680952D01*
X135297619Y-107633333D01*
X135392857Y-107585714D01*
X135535714Y-107585714D01*
X135630952Y-107633333D01*
X135678571Y-107680952D01*
X135726190Y-107776190D01*
X135726190Y-108157142D01*
X135202380Y-107252380D02*
X135202380Y-106633333D01*
X135583333Y-106966666D01*
X135583333Y-106823809D01*
X135630952Y-106728571D01*
X135678571Y-106680952D01*
X135773809Y-106633333D01*
X136011904Y-106633333D01*
X136107142Y-106680952D01*
X136154761Y-106728571D01*
X136202380Y-106823809D01*
X136202380Y-107109523D01*
X136154761Y-107204761D01*
X136107142Y-107252380D01*
%TO.C,R9*%
X169165710Y-147132164D02*
X168689520Y-147465498D01*
X169165710Y-147703593D02*
X168165710Y-147703593D01*
X168165710Y-147322640D01*
X168213330Y-147227402D01*
X168260949Y-147179783D01*
X168356187Y-147132164D01*
X168499044Y-147132164D01*
X168594282Y-147179783D01*
X168641901Y-147227402D01*
X168689520Y-147322640D01*
X168689520Y-147703593D01*
X169165710Y-146655974D02*
X169165710Y-146465498D01*
X169118091Y-146370259D01*
X169070472Y-146322640D01*
X168927615Y-146227402D01*
X168737139Y-146179783D01*
X168356187Y-146179783D01*
X168260949Y-146227402D01*
X168213330Y-146275021D01*
X168165710Y-146370259D01*
X168165710Y-146560736D01*
X168213330Y-146655974D01*
X168260949Y-146703593D01*
X168356187Y-146751212D01*
X168594282Y-146751212D01*
X168689520Y-146703593D01*
X168737139Y-146655974D01*
X168784758Y-146560736D01*
X168784758Y-146370259D01*
X168737139Y-146275021D01*
X168689520Y-146227402D01*
X168594282Y-146179783D01*
%TO.C,BP-R2*%
X147876190Y-135578571D02*
X148019047Y-135626190D01*
X148066666Y-135673809D01*
X148114285Y-135769047D01*
X148114285Y-135911904D01*
X148066666Y-136007142D01*
X148019047Y-136054761D01*
X147923809Y-136102380D01*
X147542857Y-136102380D01*
X147542857Y-135102380D01*
X147876190Y-135102380D01*
X147971428Y-135150000D01*
X148019047Y-135197619D01*
X148066666Y-135292857D01*
X148066666Y-135388095D01*
X148019047Y-135483333D01*
X147971428Y-135530952D01*
X147876190Y-135578571D01*
X147542857Y-135578571D01*
X148542857Y-136102380D02*
X148542857Y-135102380D01*
X148923809Y-135102380D01*
X149019047Y-135150000D01*
X149066666Y-135197619D01*
X149114285Y-135292857D01*
X149114285Y-135435714D01*
X149066666Y-135530952D01*
X149019047Y-135578571D01*
X148923809Y-135626190D01*
X148542857Y-135626190D01*
X149542857Y-135721428D02*
X150304761Y-135721428D01*
X151352380Y-136102380D02*
X151019047Y-135626190D01*
X150780952Y-136102380D02*
X150780952Y-135102380D01*
X151161904Y-135102380D01*
X151257142Y-135150000D01*
X151304761Y-135197619D01*
X151352380Y-135292857D01*
X151352380Y-135435714D01*
X151304761Y-135530952D01*
X151257142Y-135578571D01*
X151161904Y-135626190D01*
X150780952Y-135626190D01*
X151733333Y-135197619D02*
X151780952Y-135150000D01*
X151876190Y-135102380D01*
X152114285Y-135102380D01*
X152209523Y-135150000D01*
X152257142Y-135197619D01*
X152304761Y-135292857D01*
X152304761Y-135388095D01*
X152257142Y-135530952D01*
X151685714Y-136102380D01*
X152304761Y-136102380D01*
%TO.C,R26*%
X154732380Y-147642857D02*
X154256190Y-147976190D01*
X154732380Y-148214285D02*
X153732380Y-148214285D01*
X153732380Y-147833333D01*
X153780000Y-147738095D01*
X153827619Y-147690476D01*
X153922857Y-147642857D01*
X154065714Y-147642857D01*
X154160952Y-147690476D01*
X154208571Y-147738095D01*
X154256190Y-147833333D01*
X154256190Y-148214285D01*
X153827619Y-147261904D02*
X153780000Y-147214285D01*
X153732380Y-147119047D01*
X153732380Y-146880952D01*
X153780000Y-146785714D01*
X153827619Y-146738095D01*
X153922857Y-146690476D01*
X154018095Y-146690476D01*
X154160952Y-146738095D01*
X154732380Y-147309523D01*
X154732380Y-146690476D01*
X153732380Y-145833333D02*
X153732380Y-146023809D01*
X153780000Y-146119047D01*
X153827619Y-146166666D01*
X153970476Y-146261904D01*
X154160952Y-146309523D01*
X154541904Y-146309523D01*
X154637142Y-146261904D01*
X154684761Y-146214285D01*
X154732380Y-146119047D01*
X154732380Y-145928571D01*
X154684761Y-145833333D01*
X154637142Y-145785714D01*
X154541904Y-145738095D01*
X154303809Y-145738095D01*
X154208571Y-145785714D01*
X154160952Y-145833333D01*
X154113333Y-145928571D01*
X154113333Y-146119047D01*
X154160952Y-146214285D01*
X154208571Y-146261904D01*
X154303809Y-146309523D01*
%TO.C,JP4*%
X139666666Y-108152380D02*
X139666666Y-108866666D01*
X139619047Y-109009523D01*
X139523809Y-109104761D01*
X139380952Y-109152380D01*
X139285714Y-109152380D01*
X140142857Y-109152380D02*
X140142857Y-108152380D01*
X140523809Y-108152380D01*
X140619047Y-108200000D01*
X140666666Y-108247619D01*
X140714285Y-108342857D01*
X140714285Y-108485714D01*
X140666666Y-108580952D01*
X140619047Y-108628571D01*
X140523809Y-108676190D01*
X140142857Y-108676190D01*
X141571428Y-108485714D02*
X141571428Y-109152380D01*
X141333333Y-108104761D02*
X141095238Y-108819047D01*
X141714285Y-108819047D01*
%TO.C,JP1*%
X163166666Y-147652380D02*
X163166666Y-148366666D01*
X163119047Y-148509523D01*
X163023809Y-148604761D01*
X162880952Y-148652380D01*
X162785714Y-148652380D01*
X163642857Y-148652380D02*
X163642857Y-147652380D01*
X164023809Y-147652380D01*
X164119047Y-147700000D01*
X164166666Y-147747619D01*
X164214285Y-147842857D01*
X164214285Y-147985714D01*
X164166666Y-148080952D01*
X164119047Y-148128571D01*
X164023809Y-148176190D01*
X163642857Y-148176190D01*
X165166666Y-148652380D02*
X164595238Y-148652380D01*
X164880952Y-148652380D02*
X164880952Y-147652380D01*
X164785714Y-147795238D01*
X164690476Y-147890476D01*
X164595238Y-147938095D01*
%TO.C,R22*%
X111499046Y-122822154D02*
X111022856Y-123155487D01*
X111499046Y-123393582D02*
X110499046Y-123393582D01*
X110499046Y-123012630D01*
X110546666Y-122917392D01*
X110594285Y-122869773D01*
X110689523Y-122822154D01*
X110832380Y-122822154D01*
X110927618Y-122869773D01*
X110975237Y-122917392D01*
X111022856Y-123012630D01*
X111022856Y-123393582D01*
X110594285Y-122441201D02*
X110546666Y-122393582D01*
X110499046Y-122298344D01*
X110499046Y-122060249D01*
X110546666Y-121965011D01*
X110594285Y-121917392D01*
X110689523Y-121869773D01*
X110784761Y-121869773D01*
X110927618Y-121917392D01*
X111499046Y-122488820D01*
X111499046Y-121869773D01*
X110594285Y-121488820D02*
X110546666Y-121441201D01*
X110499046Y-121345963D01*
X110499046Y-121107868D01*
X110546666Y-121012630D01*
X110594285Y-120965011D01*
X110689523Y-120917392D01*
X110784761Y-120917392D01*
X110927618Y-120965011D01*
X111499046Y-121536439D01*
X111499046Y-120917392D01*
%TO.C,R21*%
X125915712Y-122822154D02*
X125439522Y-123155487D01*
X125915712Y-123393582D02*
X124915712Y-123393582D01*
X124915712Y-123012630D01*
X124963332Y-122917392D01*
X125010951Y-122869773D01*
X125106189Y-122822154D01*
X125249046Y-122822154D01*
X125344284Y-122869773D01*
X125391903Y-122917392D01*
X125439522Y-123012630D01*
X125439522Y-123393582D01*
X125010951Y-122441201D02*
X124963332Y-122393582D01*
X124915712Y-122298344D01*
X124915712Y-122060249D01*
X124963332Y-121965011D01*
X125010951Y-121917392D01*
X125106189Y-121869773D01*
X125201427Y-121869773D01*
X125344284Y-121917392D01*
X125915712Y-122488820D01*
X125915712Y-121869773D01*
X125915712Y-120917392D02*
X125915712Y-121488820D01*
X125915712Y-121203106D02*
X124915712Y-121203106D01*
X125058570Y-121298344D01*
X125153808Y-121393582D01*
X125201427Y-121488820D01*
%TO.C,JP2*%
X133752380Y-143333333D02*
X134466666Y-143333333D01*
X134609523Y-143380952D01*
X134704761Y-143476190D01*
X134752380Y-143619047D01*
X134752380Y-143714285D01*
X134752380Y-142857142D02*
X133752380Y-142857142D01*
X133752380Y-142476190D01*
X133800000Y-142380952D01*
X133847619Y-142333333D01*
X133942857Y-142285714D01*
X134085714Y-142285714D01*
X134180952Y-142333333D01*
X134228571Y-142380952D01*
X134276190Y-142476190D01*
X134276190Y-142857142D01*
X133847619Y-141904761D02*
X133800000Y-141857142D01*
X133752380Y-141761904D01*
X133752380Y-141523809D01*
X133800000Y-141428571D01*
X133847619Y-141380952D01*
X133942857Y-141333333D01*
X134038095Y-141333333D01*
X134180952Y-141380952D01*
X134752380Y-141952380D01*
X134752380Y-141333333D01*
D16*
%TO.C,R18*%
X126373332Y-111963262D02*
X126373332Y-107609134D01*
X129793332Y-111963262D02*
X129793332Y-107609134D01*
%TO.C,JP5*%
X148500000Y-106400000D02*
X148500000Y-109200000D01*
X146500000Y-109200000D02*
X146500000Y-106400000D01*
X148500000Y-109200000D02*
X146500000Y-109200000D01*
X146500000Y-106400000D02*
X148500000Y-106400000D01*
%TO.C,R15*%
X115376666Y-99570163D02*
X115376666Y-95216035D01*
X111956666Y-99570163D02*
X111956666Y-95216035D01*
%TO.C,D2*%
X155266664Y-78400000D02*
X158566664Y-78400000D01*
X155266664Y-78400000D02*
X155266664Y-73000000D01*
X158566664Y-78400000D02*
X158566664Y-73000000D01*
%TO.C,JP7*%
X119600000Y-151000000D02*
X119600000Y-149000000D01*
X122400000Y-149000000D02*
X122400000Y-151000000D01*
X119600000Y-149000000D02*
X122400000Y-149000000D01*
X122400000Y-151000000D02*
X119600000Y-151000000D01*
%TO.C,R6*%
X169623330Y-111513262D02*
X169623330Y-107159134D01*
X173043330Y-111513262D02*
X173043330Y-107159134D01*
%TO.C,D1*%
X172983330Y-78400000D02*
X172983330Y-73000000D01*
X169683330Y-78400000D02*
X169683330Y-73000000D01*
X169683330Y-78400000D02*
X172983330Y-78400000D01*
%TO.C,JP9*%
X135750000Y-119350000D02*
X135750000Y-122150000D01*
X133750000Y-122150000D02*
X133750000Y-119350000D01*
X133750000Y-119350000D02*
X135750000Y-119350000D01*
X135750000Y-122150000D02*
X133750000Y-122150000D01*
%TO.C,R20*%
X155206664Y-124056361D02*
X155206664Y-119702233D01*
X158626664Y-124056361D02*
X158626664Y-119702233D01*
%TO.C,R12*%
X111956666Y-87177064D02*
X111956666Y-82822936D01*
X115376666Y-87177064D02*
X115376666Y-82822936D01*
D14*
%TO.C,TP-L1*%
X136200000Y-126950000D02*
G75*
G03*
X136200000Y-126950000I-1400000J0D01*
G01*
D16*
%TO.C,R24*%
X129793332Y-136749460D02*
X129793332Y-132395332D01*
X126373332Y-136749460D02*
X126373332Y-132395332D01*
D14*
%TO.C,TP-R1*%
X151300000Y-126900000D02*
G75*
G03*
X151300000Y-126900000I-1400000J0D01*
G01*
D16*
%TO.C,R28*%
X111956666Y-149142562D02*
X111956666Y-144788434D01*
X115376666Y-149142562D02*
X115376666Y-144788434D01*
%TO.C,J3*%
X138576666Y-119425000D02*
X138576666Y-118095000D01*
X141236666Y-120695000D02*
X141236666Y-123295000D01*
X138576666Y-123295000D02*
X141236666Y-123295000D01*
X138576666Y-120695000D02*
X138576666Y-123295000D01*
X138576666Y-118095000D02*
X139906666Y-118095000D01*
X138576666Y-120695000D02*
X141236666Y-120695000D01*
%TO.C,R8*%
X169623330Y-136599460D02*
X169623330Y-132245332D01*
X173043330Y-136599460D02*
X173043330Y-132245332D01*
%TO.C,R25*%
X111956666Y-136749460D02*
X111956666Y-132395332D01*
X115376666Y-136749460D02*
X115376666Y-132395332D01*
%TO.C,JP8*%
X150000000Y-122150000D02*
X150000000Y-119350000D01*
X150000000Y-119350000D02*
X152000000Y-119350000D01*
X152000000Y-119350000D02*
X152000000Y-122150000D01*
X152000000Y-122150000D02*
X150000000Y-122150000D01*
%TO.C,R13*%
X169623330Y-98970163D02*
X169623330Y-94616035D01*
X173043330Y-98970163D02*
X173043330Y-94616035D01*
%TO.C,D4*%
X112016666Y-78400000D02*
X115316666Y-78400000D01*
X115316666Y-78400000D02*
X115316666Y-73000000D01*
X112016666Y-78400000D02*
X112016666Y-73000000D01*
%TO.C,R19*%
X111956666Y-111963262D02*
X111956666Y-107609134D01*
X115376666Y-111963262D02*
X115376666Y-107609134D01*
%TO.C,J2*%
X144363332Y-118070000D02*
X145693332Y-118070000D01*
X144363332Y-123270000D02*
X147023332Y-123270000D01*
X144363332Y-120670000D02*
X144363332Y-123270000D01*
X144363332Y-119400000D02*
X144363332Y-118070000D01*
X144363332Y-120670000D02*
X147023332Y-120670000D01*
X147023332Y-120670000D02*
X147023332Y-123270000D01*
%TO.C,R14*%
X129793332Y-99570163D02*
X129793332Y-95216035D01*
X126373332Y-99570163D02*
X126373332Y-95216035D01*
%TO.C,R23*%
X158626664Y-136599460D02*
X158626664Y-132245332D01*
X155206664Y-136599460D02*
X155206664Y-132245332D01*
%TO.C,R11*%
X126373332Y-87177064D02*
X126373332Y-82822936D01*
X129793332Y-87177064D02*
X129793332Y-82822936D01*
%TO.C,R4*%
X165772936Y-69340000D02*
X167227064Y-69340000D01*
X165772936Y-71160000D02*
X167227064Y-71160000D01*
%TO.C,R5*%
X174870000Y-68970000D02*
X174870000Y-65530000D01*
X165630000Y-65530000D02*
X165630000Y-68970000D01*
X163670000Y-67250000D02*
X165630000Y-67250000D01*
X174870000Y-65530000D02*
X165630000Y-65530000D01*
X176830000Y-67250000D02*
X174870000Y-67250000D01*
X165630000Y-68970000D02*
X174870000Y-68970000D01*
D14*
%TO.C,TP-L2*%
X136200000Y-113950000D02*
G75*
G03*
X136200000Y-113950000I-1400000J0D01*
G01*
D16*
%TO.C,D5*%
X139100000Y-77100000D02*
X144500000Y-77100000D01*
X139100000Y-80400000D02*
X144500000Y-80400000D01*
X139100000Y-77100000D02*
X139100000Y-80400000D01*
%TO.C,R27*%
X129793332Y-149142562D02*
X129793332Y-144788434D01*
X126373332Y-149142562D02*
X126373332Y-144788434D01*
D14*
%TO.C,BP-R1*%
X165524997Y-84250000D02*
G75*
G03*
X165524997Y-84250000I-1400000J0D01*
G01*
D16*
%TO.C,R1*%
X158626664Y-86427064D02*
X158626664Y-82072936D01*
X155206664Y-86427064D02*
X155206664Y-82072936D01*
D14*
%TO.C,TP-R2*%
X151300000Y-113925000D02*
G75*
G03*
X151300000Y-113925000I-1400000J0D01*
G01*
D16*
%TO.C,D3*%
X129733332Y-78400000D02*
X129733332Y-73000000D01*
X126433332Y-78400000D02*
X126433332Y-73000000D01*
X126433332Y-78400000D02*
X129733332Y-78400000D01*
%TO.C,R17*%
X155206664Y-111513262D02*
X155206664Y-107159134D01*
X158626664Y-111513262D02*
X158626664Y-107159134D01*
%TO.C,R7*%
X173043330Y-124056361D02*
X173043330Y-119702233D01*
X169623330Y-124056361D02*
X169623330Y-119702233D01*
D14*
%TO.C,BP-L1*%
X122274999Y-85000000D02*
G75*
G03*
X122274999Y-85000000I-1400000J0D01*
G01*
D16*
%TO.C,JP6*%
X153500000Y-143900000D02*
X151500000Y-143900000D01*
X151500000Y-143900000D02*
X151500000Y-141100000D01*
X153500000Y-141100000D02*
X153500000Y-143900000D01*
X151500000Y-141100000D02*
X153500000Y-141100000D01*
D14*
%TO.C,BP-L2*%
X136200000Y-133700000D02*
G75*
G03*
X136200000Y-133700000I-1400000J0D01*
G01*
D16*
%TO.C,R2*%
X155206664Y-98970163D02*
X155206664Y-94616035D01*
X158626664Y-98970163D02*
X158626664Y-94616035D01*
D17*
%TO.C,J1*%
X91950000Y-64157107D02*
X91950000Y-27257107D01*
X192950000Y-64157107D02*
X91950000Y-64157107D01*
X91950000Y-27257107D02*
X192950000Y-27257107D01*
X192950000Y-27257107D02*
X192950000Y-64157107D01*
D16*
%TO.C,K1*%
X141500000Y-82962500D02*
X143500000Y-82962500D01*
X142850000Y-88672500D02*
X142850000Y-87472500D01*
X150850000Y-83222500D02*
X134150000Y-83222500D01*
X134150000Y-105922500D02*
X150850000Y-105922500D01*
X138000000Y-88072500D02*
X141150000Y-88072500D01*
X143850000Y-88072500D02*
X147000000Y-88072500D01*
X142150000Y-88272500D02*
X142850000Y-87872500D01*
X134150000Y-83222500D02*
X134150000Y-105922500D01*
X150850000Y-105922500D02*
X150850000Y-83222500D01*
X142150000Y-87472500D02*
X142150000Y-88672500D01*
X142850000Y-87472500D02*
X142150000Y-87472500D01*
X142150000Y-88672500D02*
X142850000Y-88672500D01*
%TO.C,R10*%
X169623330Y-86427064D02*
X169623330Y-82072936D01*
X173043330Y-86427064D02*
X173043330Y-82072936D01*
%TO.C,JP3*%
X138500000Y-109200000D02*
X136500000Y-109200000D01*
X136500000Y-109200000D02*
X136500000Y-106400000D01*
X138500000Y-106400000D02*
X138500000Y-109200000D01*
X136500000Y-106400000D02*
X138500000Y-106400000D01*
%TO.C,R9*%
X173043330Y-149142562D02*
X173043330Y-144788434D01*
X169623330Y-149142562D02*
X169623330Y-144788434D01*
D14*
%TO.C,BP-R2*%
X151300000Y-133400000D02*
G75*
G03*
X151300000Y-133400000I-1400000J0D01*
G01*
D16*
%TO.C,R26*%
X155190000Y-149177064D02*
X155190000Y-144822936D01*
X158610000Y-149177064D02*
X158610000Y-144822936D01*
%TO.C,JP4*%
X141900000Y-111500000D02*
X139100000Y-111500000D01*
X139100000Y-111500000D02*
X139100000Y-109500000D01*
X139100000Y-109500000D02*
X141900000Y-109500000D01*
X141900000Y-109500000D02*
X141900000Y-111500000D01*
%TO.C,JP1*%
X162600000Y-149000000D02*
X165400000Y-149000000D01*
X162600000Y-151000000D02*
X162600000Y-149000000D01*
X165400000Y-149000000D02*
X165400000Y-151000000D01*
X165400000Y-151000000D02*
X162600000Y-151000000D01*
%TO.C,R22*%
X111956666Y-124356361D02*
X111956666Y-120002233D01*
X115376666Y-124356361D02*
X115376666Y-120002233D01*
%TO.C,R21*%
X126373332Y-124356361D02*
X126373332Y-120002233D01*
X129793332Y-124356361D02*
X129793332Y-120002233D01*
%TO.C,JP2*%
X133500000Y-141100000D02*
X133500000Y-143900000D01*
X131500000Y-143900000D02*
X131500000Y-141100000D01*
X131500000Y-141100000D02*
X133500000Y-141100000D01*
X133500000Y-143900000D02*
X131500000Y-143900000D01*
%TD*%
M02*
