%TF.GenerationSoftware,KiCad,Pcbnew,(6.0.0)*%
%TF.CreationDate,2022-06-28T12:49:40+09:30*%
%TF.ProjectId,Indicator V2,496e6469-6361-4746-9f72-2056322e6b69,E*%
%TF.SameCoordinates,Original*%
%TF.FileFunction,Soldermask,Top*%
%TF.FilePolarity,Negative*%
%FSLAX46Y46*%
G04 Gerber Fmt 4.6, Leading zero omitted, Abs format (unit mm)*
G04 Created by KiCad (PCBNEW (6.0.0)) date 2022-06-28 12:49:40*
%MOMM*%
%LPD*%
G01*
G04 APERTURE LIST*
G04 Aperture macros list*
%AMRoundRect*
0 Rectangle with rounded corners*
0 $1 Rounding radius*
0 $2 $3 $4 $5 $6 $7 $8 $9 X,Y pos of 4 corners*
0 Add a 4 corners polygon primitive as box body*
4,1,4,$2,$3,$4,$5,$6,$7,$8,$9,$2,$3,0*
0 Add four circle primitives for the rounded corners*
1,1,$1+$1,$2,$3*
1,1,$1+$1,$4,$5*
1,1,$1+$1,$6,$7*
1,1,$1+$1,$8,$9*
0 Add four rect primitives between the rounded corners*
20,1,$1+$1,$2,$3,$4,$5,0*
20,1,$1+$1,$4,$5,$6,$7,0*
20,1,$1+$1,$6,$7,$8,$9,0*
20,1,$1+$1,$8,$9,$2,$3,0*%
G04 Aperture macros list end*
%ADD10C,0.120000*%
%ADD11RoundRect,0.250000X1.425000X-0.362500X1.425000X0.362500X-1.425000X0.362500X-1.425000X-0.362500X0*%
%ADD12R,1.500000X1.000000*%
%ADD13R,1.800000X2.500000*%
%ADD14R,1.000000X1.500000*%
%ADD15C,2.000000*%
%ADD16C,1.500000*%
%ADD17R,1.700000X1.700000*%
%ADD18O,1.700000X1.700000*%
%ADD19RoundRect,0.250000X-0.312500X-0.625000X0.312500X-0.625000X0.312500X0.625000X-0.312500X0.625000X0*%
%ADD20C,1.600000*%
%ADD21O,1.600000X1.600000*%
%ADD22R,2.500000X1.800000*%
%ADD23R,2.100000X2.100000*%
%ADD24C,2.100000*%
%ADD25C,4.800000*%
%ADD26R,2.500000X2.500000*%
%ADD27O,2.500000X2.500000*%
G04 APERTURE END LIST*
D10*
%TO.C,R18*%
X126583332Y-111536198D02*
X129583332Y-111536198D01*
X129583332Y-111536198D02*
X129583332Y-108036198D01*
X129583332Y-108036198D02*
X126583332Y-108036198D01*
X126583332Y-108036198D02*
X126583332Y-111536198D01*
G36*
X126583332Y-111536198D02*
G01*
X129583332Y-111536198D01*
X129583332Y-108036198D01*
X126583332Y-108036198D01*
X126583332Y-111536198D01*
G37*
%TO.C,R15*%
X112166666Y-99143099D02*
X115166666Y-99143099D01*
X115166666Y-99143099D02*
X115166666Y-95643099D01*
X115166666Y-95643099D02*
X112166666Y-95643099D01*
X112166666Y-95643099D02*
X112166666Y-99143099D01*
G36*
X112166666Y-99143099D02*
G01*
X115166666Y-99143099D01*
X115166666Y-95643099D01*
X112166666Y-95643099D01*
X112166666Y-99143099D01*
G37*
%TO.C,R6*%
X169833330Y-111086198D02*
X172833330Y-111086198D01*
X172833330Y-111086198D02*
X172833330Y-107586198D01*
X172833330Y-107586198D02*
X169833330Y-107586198D01*
X169833330Y-107586198D02*
X169833330Y-111086198D01*
G36*
X169833330Y-111086198D02*
G01*
X172833330Y-111086198D01*
X172833330Y-107586198D01*
X169833330Y-107586198D01*
X169833330Y-111086198D01*
G37*
%TO.C,R20*%
X155416664Y-123629297D02*
X158416664Y-123629297D01*
X158416664Y-123629297D02*
X158416664Y-120129297D01*
X158416664Y-120129297D02*
X155416664Y-120129297D01*
X155416664Y-120129297D02*
X155416664Y-123629297D01*
G36*
X155416664Y-123629297D02*
G01*
X158416664Y-123629297D01*
X158416664Y-120129297D01*
X155416664Y-120129297D01*
X155416664Y-123629297D01*
G37*
%TO.C,R12*%
X112166666Y-86750000D02*
X115166666Y-86750000D01*
X115166666Y-86750000D02*
X115166666Y-83250000D01*
X115166666Y-83250000D02*
X112166666Y-83250000D01*
X112166666Y-83250000D02*
X112166666Y-86750000D01*
G36*
X112166666Y-86750000D02*
G01*
X115166666Y-86750000D01*
X115166666Y-83250000D01*
X112166666Y-83250000D01*
X112166666Y-86750000D01*
G37*
%TO.C,R24*%
X126583332Y-136322396D02*
X129583332Y-136322396D01*
X129583332Y-136322396D02*
X129583332Y-132822396D01*
X129583332Y-132822396D02*
X126583332Y-132822396D01*
X126583332Y-132822396D02*
X126583332Y-136322396D01*
G36*
X126583332Y-136322396D02*
G01*
X129583332Y-136322396D01*
X129583332Y-132822396D01*
X126583332Y-132822396D01*
X126583332Y-136322396D01*
G37*
%TO.C,R28*%
X112166666Y-148715498D02*
X115166666Y-148715498D01*
X115166666Y-148715498D02*
X115166666Y-145215498D01*
X115166666Y-145215498D02*
X112166666Y-145215498D01*
X112166666Y-145215498D02*
X112166666Y-148715498D01*
G36*
X112166666Y-148715498D02*
G01*
X115166666Y-148715498D01*
X115166666Y-145215498D01*
X112166666Y-145215498D01*
X112166666Y-148715498D01*
G37*
%TO.C,R8*%
X169833330Y-136172396D02*
X172833330Y-136172396D01*
X172833330Y-136172396D02*
X172833330Y-132672396D01*
X172833330Y-132672396D02*
X169833330Y-132672396D01*
X169833330Y-132672396D02*
X169833330Y-136172396D01*
G36*
X169833330Y-136172396D02*
G01*
X172833330Y-136172396D01*
X172833330Y-132672396D01*
X169833330Y-132672396D01*
X169833330Y-136172396D01*
G37*
%TO.C,R25*%
X112166666Y-136322396D02*
X115166666Y-136322396D01*
X115166666Y-136322396D02*
X115166666Y-132822396D01*
X115166666Y-132822396D02*
X112166666Y-132822396D01*
X112166666Y-132822396D02*
X112166666Y-136322396D01*
G36*
X112166666Y-136322396D02*
G01*
X115166666Y-136322396D01*
X115166666Y-132822396D01*
X112166666Y-132822396D01*
X112166666Y-136322396D01*
G37*
%TO.C,R13*%
X169833330Y-98543099D02*
X172833330Y-98543099D01*
X172833330Y-98543099D02*
X172833330Y-95043099D01*
X172833330Y-95043099D02*
X169833330Y-95043099D01*
X169833330Y-95043099D02*
X169833330Y-98543099D01*
G36*
X169833330Y-98543099D02*
G01*
X172833330Y-98543099D01*
X172833330Y-95043099D01*
X169833330Y-95043099D01*
X169833330Y-98543099D01*
G37*
%TO.C,R19*%
X112166666Y-111536198D02*
X115166666Y-111536198D01*
X115166666Y-111536198D02*
X115166666Y-108036198D01*
X115166666Y-108036198D02*
X112166666Y-108036198D01*
X112166666Y-108036198D02*
X112166666Y-111536198D01*
G36*
X112166666Y-111536198D02*
G01*
X115166666Y-111536198D01*
X115166666Y-108036198D01*
X112166666Y-108036198D01*
X112166666Y-111536198D01*
G37*
%TO.C,R14*%
X126583332Y-99143099D02*
X129583332Y-99143099D01*
X129583332Y-99143099D02*
X129583332Y-95643099D01*
X129583332Y-95643099D02*
X126583332Y-95643099D01*
X126583332Y-95643099D02*
X126583332Y-99143099D01*
G36*
X126583332Y-99143099D02*
G01*
X129583332Y-99143099D01*
X129583332Y-95643099D01*
X126583332Y-95643099D01*
X126583332Y-99143099D01*
G37*
%TO.C,R23*%
X155416664Y-136172396D02*
X158416664Y-136172396D01*
X158416664Y-136172396D02*
X158416664Y-132672396D01*
X158416664Y-132672396D02*
X155416664Y-132672396D01*
X155416664Y-132672396D02*
X155416664Y-136172396D01*
G36*
X155416664Y-136172396D02*
G01*
X158416664Y-136172396D01*
X158416664Y-132672396D01*
X155416664Y-132672396D01*
X155416664Y-136172396D01*
G37*
%TO.C,R11*%
X126583332Y-86750000D02*
X129583332Y-86750000D01*
X129583332Y-86750000D02*
X129583332Y-83250000D01*
X129583332Y-83250000D02*
X126583332Y-83250000D01*
X126583332Y-83250000D02*
X126583332Y-86750000D01*
G36*
X126583332Y-86750000D02*
G01*
X129583332Y-86750000D01*
X129583332Y-83250000D01*
X126583332Y-83250000D01*
X126583332Y-86750000D01*
G37*
%TO.C,R27*%
X126583332Y-148715498D02*
X129583332Y-148715498D01*
X129583332Y-148715498D02*
X129583332Y-145215498D01*
X129583332Y-145215498D02*
X126583332Y-145215498D01*
X126583332Y-145215498D02*
X126583332Y-148715498D01*
G36*
X126583332Y-148715498D02*
G01*
X129583332Y-148715498D01*
X129583332Y-145215498D01*
X126583332Y-145215498D01*
X126583332Y-148715498D01*
G37*
%TO.C,R1*%
X155416664Y-86000000D02*
X158416664Y-86000000D01*
X158416664Y-86000000D02*
X158416664Y-82500000D01*
X158416664Y-82500000D02*
X155416664Y-82500000D01*
X155416664Y-82500000D02*
X155416664Y-86000000D01*
G36*
X155416664Y-86000000D02*
G01*
X158416664Y-86000000D01*
X158416664Y-82500000D01*
X155416664Y-82500000D01*
X155416664Y-86000000D01*
G37*
%TO.C,R17*%
X155416664Y-111086198D02*
X158416664Y-111086198D01*
X158416664Y-111086198D02*
X158416664Y-107586198D01*
X158416664Y-107586198D02*
X155416664Y-107586198D01*
X155416664Y-107586198D02*
X155416664Y-111086198D01*
G36*
X155416664Y-111086198D02*
G01*
X158416664Y-111086198D01*
X158416664Y-107586198D01*
X155416664Y-107586198D01*
X155416664Y-111086198D01*
G37*
%TO.C,R7*%
X169833330Y-123629297D02*
X172833330Y-123629297D01*
X172833330Y-123629297D02*
X172833330Y-120129297D01*
X172833330Y-120129297D02*
X169833330Y-120129297D01*
X169833330Y-120129297D02*
X169833330Y-123629297D01*
G36*
X169833330Y-123629297D02*
G01*
X172833330Y-123629297D01*
X172833330Y-120129297D01*
X169833330Y-120129297D01*
X169833330Y-123629297D01*
G37*
%TO.C,R2*%
X155416664Y-98543099D02*
X158416664Y-98543099D01*
X158416664Y-98543099D02*
X158416664Y-95043099D01*
X158416664Y-95043099D02*
X155416664Y-95043099D01*
X155416664Y-95043099D02*
X155416664Y-98543099D01*
G36*
X155416664Y-98543099D02*
G01*
X158416664Y-98543099D01*
X158416664Y-95043099D01*
X155416664Y-95043099D01*
X155416664Y-98543099D01*
G37*
%TO.C,R10*%
X169833330Y-86000000D02*
X172833330Y-86000000D01*
X172833330Y-86000000D02*
X172833330Y-82500000D01*
X172833330Y-82500000D02*
X169833330Y-82500000D01*
X169833330Y-82500000D02*
X169833330Y-86000000D01*
G36*
X169833330Y-86000000D02*
G01*
X172833330Y-86000000D01*
X172833330Y-82500000D01*
X169833330Y-82500000D01*
X169833330Y-86000000D01*
G37*
%TO.C,R9*%
X169833330Y-148715498D02*
X172833330Y-148715498D01*
X172833330Y-148715498D02*
X172833330Y-145215498D01*
X172833330Y-145215498D02*
X169833330Y-145215498D01*
X169833330Y-145215498D02*
X169833330Y-148715498D01*
G36*
X169833330Y-148715498D02*
G01*
X172833330Y-148715498D01*
X172833330Y-145215498D01*
X169833330Y-145215498D01*
X169833330Y-148715498D01*
G37*
%TO.C,R26*%
X155400000Y-148750000D02*
X158400000Y-148750000D01*
X158400000Y-148750000D02*
X158400000Y-145250000D01*
X158400000Y-145250000D02*
X155400000Y-145250000D01*
X155400000Y-145250000D02*
X155400000Y-148750000D01*
G36*
X155400000Y-148750000D02*
G01*
X158400000Y-148750000D01*
X158400000Y-145250000D01*
X155400000Y-145250000D01*
X155400000Y-148750000D01*
G37*
%TO.C,R22*%
X112166666Y-123929297D02*
X115166666Y-123929297D01*
X115166666Y-123929297D02*
X115166666Y-120429297D01*
X115166666Y-120429297D02*
X112166666Y-120429297D01*
X112166666Y-120429297D02*
X112166666Y-123929297D01*
G36*
X112166666Y-123929297D02*
G01*
X115166666Y-123929297D01*
X115166666Y-120429297D01*
X112166666Y-120429297D01*
X112166666Y-123929297D01*
G37*
%TO.C,R21*%
X126583332Y-123929297D02*
X129583332Y-123929297D01*
X129583332Y-123929297D02*
X129583332Y-120429297D01*
X129583332Y-120429297D02*
X126583332Y-120429297D01*
X126583332Y-120429297D02*
X126583332Y-123929297D01*
G36*
X126583332Y-123929297D02*
G01*
X129583332Y-123929297D01*
X129583332Y-120429297D01*
X126583332Y-120429297D01*
X126583332Y-123929297D01*
G37*
%TD*%
D11*
%TO.C,R18*%
X128083332Y-112748698D03*
X128083332Y-106823698D03*
%TD*%
D12*
%TO.C,JP5*%
X147500000Y-107150000D03*
X147500000Y-108450000D03*
%TD*%
D11*
%TO.C,R15*%
X113666666Y-100355599D03*
X113666666Y-94430599D03*
%TD*%
D13*
%TO.C,D2*%
X156916664Y-77000000D03*
X156916664Y-73000000D03*
%TD*%
D14*
%TO.C,JP7*%
X120350000Y-150000000D03*
X121650000Y-150000000D03*
%TD*%
D11*
%TO.C,R6*%
X171333330Y-112298698D03*
X171333330Y-106373698D03*
%TD*%
D13*
%TO.C,D1*%
X171333330Y-77000000D03*
X171333330Y-73000000D03*
%TD*%
D12*
%TO.C,JP9*%
X134750000Y-121400000D03*
X134750000Y-120100000D03*
%TD*%
D11*
%TO.C,R20*%
X156916664Y-124841797D03*
X156916664Y-118916797D03*
%TD*%
%TO.C,R12*%
X113666666Y-87962500D03*
X113666666Y-82037500D03*
%TD*%
D15*
%TO.C,TP-L1*%
X134800000Y-126950000D03*
%TD*%
D16*
%TO.C,FID2*%
X181250000Y-139500000D03*
%TD*%
D11*
%TO.C,R24*%
X128083332Y-137534896D03*
X128083332Y-131609896D03*
%TD*%
D15*
%TO.C,TP-R1*%
X149900000Y-126900000D03*
%TD*%
D11*
%TO.C,R28*%
X113666666Y-149927998D03*
X113666666Y-144002998D03*
%TD*%
D17*
%TO.C,J3*%
X139906666Y-119425000D03*
D18*
X139906666Y-121965000D03*
%TD*%
D11*
%TO.C,R8*%
X171333330Y-137384896D03*
X171333330Y-131459896D03*
%TD*%
%TO.C,R25*%
X113666666Y-137534896D03*
X113666666Y-131609896D03*
%TD*%
D12*
%TO.C,JP8*%
X151000000Y-120100000D03*
X151000000Y-121400000D03*
%TD*%
D11*
%TO.C,R13*%
X171333330Y-99755599D03*
X171333330Y-93830599D03*
%TD*%
D13*
%TO.C,D4*%
X113666666Y-77000000D03*
X113666666Y-73000000D03*
%TD*%
D16*
%TO.C,FID3*%
X105000000Y-77500000D03*
%TD*%
D11*
%TO.C,R19*%
X113666666Y-112748698D03*
X113666666Y-106823698D03*
%TD*%
D17*
%TO.C,J2*%
X145693332Y-119400000D03*
D18*
X145693332Y-121940000D03*
%TD*%
D11*
%TO.C,R14*%
X128083332Y-100355599D03*
X128083332Y-94430599D03*
%TD*%
%TO.C,R23*%
X156916664Y-137384896D03*
X156916664Y-131459896D03*
%TD*%
%TO.C,R11*%
X128083332Y-87962500D03*
X128083332Y-82037500D03*
%TD*%
D19*
%TO.C,R4*%
X165037500Y-70250000D03*
X167962500Y-70250000D03*
%TD*%
D20*
%TO.C,R5*%
X162630000Y-67250000D03*
D21*
X177870000Y-67250000D03*
%TD*%
D15*
%TO.C,TP-L2*%
X134800000Y-113950000D03*
%TD*%
D22*
%TO.C,D5*%
X140500000Y-78750000D03*
X144500000Y-78750000D03*
%TD*%
D11*
%TO.C,R27*%
X128083332Y-149927998D03*
X128083332Y-144002998D03*
%TD*%
D15*
%TO.C,BP-R1*%
X164124997Y-84250000D03*
%TD*%
D11*
%TO.C,R1*%
X156916664Y-87212500D03*
X156916664Y-81287500D03*
%TD*%
D15*
%TO.C,TP-R2*%
X149900000Y-113925000D03*
%TD*%
D13*
%TO.C,D3*%
X128083332Y-77000000D03*
X128083332Y-73000000D03*
%TD*%
D11*
%TO.C,R17*%
X156916664Y-112298698D03*
X156916664Y-106373698D03*
%TD*%
D16*
%TO.C,FID1*%
X180000000Y-77500000D03*
%TD*%
D11*
%TO.C,R7*%
X171333330Y-124841797D03*
X171333330Y-118916797D03*
%TD*%
D15*
%TO.C,BP-L1*%
X120874999Y-85000000D03*
%TD*%
D12*
%TO.C,JP6*%
X152500000Y-141850000D03*
X152500000Y-143150000D03*
%TD*%
D15*
%TO.C,BP-L2*%
X134800000Y-133700000D03*
%TD*%
D11*
%TO.C,R2*%
X156916664Y-99755599D03*
X156916664Y-93830599D03*
%TD*%
D23*
%TO.C,J1*%
X131950000Y-62207107D03*
D24*
X136150000Y-62207107D03*
X140350000Y-62207107D03*
X144550000Y-62207107D03*
X148750000Y-62207107D03*
X152950000Y-62207107D03*
X152950000Y-55857107D03*
X148750000Y-55857107D03*
X144550000Y-55857107D03*
X140350000Y-55857107D03*
X136150000Y-55857107D03*
X131950000Y-55857107D03*
D25*
X107450000Y-57837107D03*
X177450000Y-57837107D03*
%TD*%
D26*
%TO.C,K1*%
X142500000Y-85872500D03*
D27*
X136500000Y-87872500D03*
X136500000Y-100072500D03*
X148500000Y-100072500D03*
X148500000Y-87872500D03*
%TD*%
D11*
%TO.C,R10*%
X171333330Y-87212500D03*
X171333330Y-81287500D03*
%TD*%
D12*
%TO.C,JP3*%
X137500000Y-107150000D03*
X137500000Y-108450000D03*
%TD*%
D11*
%TO.C,R9*%
X171333330Y-149927998D03*
X171333330Y-144002998D03*
%TD*%
D15*
%TO.C,BP-R2*%
X149900000Y-133400000D03*
%TD*%
D11*
%TO.C,R26*%
X156900000Y-149962500D03*
X156900000Y-144037500D03*
%TD*%
D14*
%TO.C,JP4*%
X139850000Y-110500000D03*
X141150000Y-110500000D03*
%TD*%
%TO.C,JP1*%
X163350000Y-150000000D03*
X164650000Y-150000000D03*
%TD*%
D11*
%TO.C,R22*%
X113666666Y-125141797D03*
X113666666Y-119216797D03*
%TD*%
%TO.C,R21*%
X128083332Y-125141797D03*
X128083332Y-119216797D03*
%TD*%
D12*
%TO.C,JP2*%
X132500000Y-141850000D03*
X132500000Y-143150000D03*
%TD*%
M02*
